{
.appVersion = "3151";
.storedFileType = org.unifiedfontobject.ufo;
.formatVersion = 3;
customParameters = (
{
name = "Enforce Compatibility Check";
value = 1;
},
{
name = isFixedPitch;
value = 1;
},
{
name = panose;
value = (
2,
9,
5,
3,
6,
2,
3,
8,
3,
3
);
},
{
name = fsType;
value = (
3
);
}
);
date = "2022-12-12 10:24:24 +0000";
familyName = Sector;
featurePrefixes = (
{
code = "languagesystem DFLT dflt;";
name = Languagesystems;
}
);
features = (
{
automatic = 1;
code = "feature salt;
feature ss01;
feature ss02;";
tag = aalt;
},
{
automatic = 1;
code = "lookup ccmp_Other_1 {
	@CombiningTopAccents = [acutecomb circumflexcomb dieresiscomb dotaccentcomb gravecomb ringcomb tildecomb];
	@CombiningNonTopAccents = [cedillacomb];
	sub [i]' @CombiningTopAccents by [idotless];
	sub [i]' @CombiningNonTopAccents @CombiningTopAccents by [idotless];
} ccmp_Other_1;";
tag = ccmp;
},
{
automatic = 1;
code = "sub O by O.ss01;";
tag = salt;
},
{
automatic = 1;
code = "sub O by O.ss01;";
tag = ss01;
},
{
automatic = 1;
code = "sub O by O.ss02;";
tag = ss02;
}
);
fontMaster = (
{
guides = (
{
pos = (428,-89);
},
{
pos = (409,720);
},
{
pos = (301,680);
},
{
pos = (301,570);
},
{
pos = (563,350);
}
);
id = "C8365536-00F6-4CBD-B31D-2172D190A829";
metricValues = (
{
over = 16;
pos = 680;
},
{
over = 16;
pos = 680;
},
{
over = 16;
pos = 520;
},
{
over = -16;
},
{
over = -16;
pos = -240;
}
);
name = Normal;
userData = {
GSCornerRadius = 15;
};
}
);
glyphs = (
{
glyphname = A;
lastChange = "2020-12-25 14:04:59 +0000";
layers = (
{
layerId = "C8365536-00F6-4CBD-B31D-2172D190A829";
shapes = (
{
closed = 1;
nodes = (
(166,0,o),
(264,25,o),
(264,55,cs),
(264,85,o),
(166,110,o),
(135,110,cs),
(104,110,o),
(79,86,o),
(79,55,cs),
(79,24,o),
(104,0,o),
(135,0,cs)
);
},
{
closed = 1;
nodes = (
(240,408,o),
(261,430,o),
(261,458,cs),
(261,486,o),
(240,508,o),
(212,508,cs),
(184,508,o),
(161,486,o),
(161,458,cs),
(161,430,o),
(184,408,o),
(212,408,cs)
);
},
{
closed = 1;
nodes = (
(161,170,o),
(184,272,o),
(184,300,cs),
(184,328,o),
(163,350,o),
(135,350,cs),
(107,350,o),
(84,328,o),
(84,300,cs),
(84,272,o),
(107,170,o),
(135,170,cs)
);
},
{
closed = 1;
nodes = (
(161,170,o),
(184,192,o),
(184,220,cs),
(184,248,o),
(163,270,o),
(135,270,cs),
(107,270,o),
(84,248,o),
(84,220,cs),
(84,192,o),
(107,170,o),
(135,170,cs)
);
},
{
closed = 1;
nodes = (
(161,90,o),
(184,112,o),
(184,140,cs),
(184,168,o),
(163,270,o),
(135,270,cs),
(107,270,o),
(84,168,o),
(84,140,cs),
(84,112,o),
(107,90,o),
(135,90,cs)
);
},
{
closed = 1;
nodes = (
(305,205,o),
(330,230,o),
(330,260,c),
(330,290,o),
(305,315,o),
(275,315,c),
(245,315,o),
(145,290,o),
(145,260,c),
(145,230,o),
(245,205,o),
(275,205,c)
);
},
{
closed = 1;
nodes = (
(230,205,o),
(330,230,o),
(330,260,c),
(330,290,o),
(230,315,o),
(200,315,c),
(170,315,o),
(145,290,o),
(145,260,c),
(145,230,o),
(170,205,o),
(200,205,c)
);
},
{
closed = 1;
nodes = (
(325,570,o),
(423,594,o),
(423,625,cs),
(423,656,o),
(325,680,o),
(294,680,cs),
(263,680,o),
(238,656,o),
(238,625,cs),
(238,594,o),
(263,570,o),
(294,570,cs)
);
},
{
closed = 1;
nodes = (
(382,570,o),
(405,594,o),
(405,625,cs),
(405,656,o),
(382,680,o),
(351,680,cs),
(320,680,o),
(295,656,o),
(295,625,cs),
(295,594,o),
(320,570,o),
(351,570,cs)
);
},
{
closed = 1;
nodes = (
(596,0,o),
(621,24,o),
(621,55,cs),
(621,86,o),
(596,110,o),
(565,110,cs),
(534,110,o),
(436,86,o),
(436,55,cs),
(436,24,o),
(534,0,o),
(565,0,cs)
);
},
{
closed = 1;
nodes = (
(593,170,o),
(616,272,o),
(616,300,cs),
(616,328,o),
(593,350,o),
(565,350,cs),
(537,350,o),
(516,328,o),
(516,300,cs),
(516,272,o),
(539,170,o),
(565,170,cs)
);
},
{
closed = 1;
nodes = (
(593,170,o),
(616,192,o),
(616,220,cs),
(616,248,o),
(593,270,o),
(565,270,cs),
(537,270,o),
(516,248,o),
(516,220,cs),
(516,192,o),
(539,170,o),
(565,170,cs)
);
},
{
closed = 1;
nodes = (
(593,90,o),
(616,112,o),
(616,140,cs),
(616,168,o),
(593,270,o),
(565,270,cs),
(537,270,o),
(516,168,o),
(516,140,cs),
(516,112,o),
(539,90,o),
(565,90,cs)
);
},
{
closed = 1;
nodes = (
(455,204,o),
(555,229,o),
(555,259,c),
(555,289,o),
(455,314,o),
(425,314,c),
(395,314,o),
(370,289,o),
(370,259,c),
(370,229,o),
(395,204,o),
(425,204,c)
);
},
{
closed = 1;
nodes = (
(530,204,o),
(555,229,o),
(555,259,c),
(555,289,o),
(530,314,o),
(500,314,c),
(470,314,o),
(370,289,o),
(370,259,c),
(370,229,o),
(470,204,o),
(500,204,c)
);
},
{
closed = 1;
nodes = (
(437,570,o),
(462,594,o),
(462,625,cs),
(462,656,o),
(437,680,o),
(406,680,cs),
(375,680,o),
(277,656,o),
(277,625,cs),
(277,594,o),
(375,570,o),
(406,570,cs)
);
},
{
closed = 1;
nodes = (
(380,205,o),
(405,230,o),
(405,260,c),
(405,290,o),
(380,315,o),
(350,315,c),
(320,315,o),
(295,290,o),
(295,260,c),
(295,230,o),
(320,205,o),
(350,205,c)
);
},
{
closed = 1;
nodes = (
(239,0,o),
(264,25,o),
(264,55,c),
(264,85,o),
(239,110,o),
(209,110,c),
(179,110,o),
(79,86,o),
(79,55,c),
(79,24,o),
(179,0,o),
(209,0,c)
);
},
{
closed = 1;
nodes = (
(521,0,o),
(621,24,o),
(621,55,c),
(621,86,o),
(521,110,o),
(491,110,c),
(461,110,o),
(436,86,o),
(436,55,c),
(436,24,o),
(461,0,o),
(491,0,c)
);
},
{
closed = 1;
nodes = (
(218,371,o),
(247,470,o),
(221,485,c),
(195,499,o),
(123,426,o),
(108,400,c),
(93,374,o),
(102,339,o),
(128,324,c),
(154,309,o),
(188,318,o),
(204,345,c)
);
},
{
closed = 1;
nodes = (
(327,546,o),
(318,581,o),
(292,596,c),
(266,610,o),
(232,601,o),
(216,575,c),
(201,549,o),
(173,450,o),
(199,435,c),
(225,420,o),
(296,494,o),
(312,520,c)
);
},
{
closed = 1;
nodes = (
(510,408,o),
(533,430,o),
(533,458,cs),
(533,486,o),
(510,508,o),
(482,508,cs),
(454,508,o),
(433,486,o),
(433,458,cs),
(433,430,o),
(454,408,o),
(482,408,cs)
);
},
{
closed = 1;
nodes = (
(506,318,o),
(540,309,o),
(566,324,c),
(592,339,o),
(601,374,o),
(586,400,c),
(571,426,o),
(499,499,o),
(473,485,c),
(447,470,o),
(476,371,o),
(490,345,c)
);
},
{
closed = 1;
nodes = (
(398,494,o),
(469,420,o),
(495,435,c),
(521,450,o),
(493,549,o),
(478,575,c),
(462,601,o),
(428,610,o),
(402,596,c),
(376,581,o),
(367,546,o),
(382,520,c)
);
}
);
width = 700;
}
);
unicode = 65;
},
{
glyphname = AE;
lastChange = "2020-12-30 12:56:08 +0000";
layers = (
{
layerId = "C8365536-00F6-4CBD-B31D-2172D190A829";
shapes = (
{
closed = 0;
nodes = (
(313,55,l)
);
},
{
closed = 1;
nodes = (
(400,0,o),
(498,24,o),
(498,55,cs),
(498,86,o),
(400,110,o),
(369,110,cs),
(338,110,o),
(313,86,o),
(313,55,cs),
(313,24,o),
(338,0,o),
(369,0,cs)
);
},
{
closed = 1;
nodes = (
(475,0,o),
(498,24,o),
(498,55,cs),
(498,86,o),
(475,110,o),
(444,110,cs),
(413,110,o),
(313,86,o),
(313,55,c),
(313,24,o),
(413,0,o),
(444,0,cs)
);
},
{
closed = 1;
nodes = (
(399,0,o),
(499,25,o),
(499,55,c),
(499,85,o),
(399,110,o),
(369,110,c),
(339,110,o),
(314,85,o),
(314,55,c),
(314,25,o),
(339,0,o),
(369,0,c)
);
},
{
closed = 1;
nodes = (
(367,85,o),
(396,99,o),
(405,125,cs),
(414,152,o),
(430,255,o),
(404,264,cs),
(377,273,o),
(321,186,o),
(311,159,cs),
(301,133,o),
(316,105,o),
(342,95,cs)
);
},
{
closed = 1;
nodes = (
(369,85,o),
(423,174,o),
(433,200,cs),
(443,227,o),
(430,255,o),
(404,264,cs),
(377,273,o),
(348,261,o),
(339,235,cs),
(330,208,o),
(316,105,o),
(342,95,cs)
);
},
{
closed = 1;
nodes = (
(550,0,o),
(648,24,o),
(648,55,cs),
(648,86,o),
(550,110,o),
(519,110,cs),
(488,110,o),
(463,86,o),
(463,55,cs),
(463,24,o),
(488,0,o),
(519,0,cs)
);
},
{
closed = 1;
nodes = (
(625,0,o),
(648,24,o),
(648,55,cs),
(648,86,o),
(625,110,o),
(594,110,cs),
(563,110,o),
(463,86,o),
(463,55,cs),
(463,24,o),
(563,0,o),
(594,0,cs)
);
},
{
closed = 0;
nodes = (
(313,339,l)
);
},
{
closed = 1;
nodes = (
(397,250,o),
(418,272,o),
(418,300,c),
(418,328,o),
(397,350,o),
(369,350,cs),
(341,350,o),
(318,328,o),
(318,300,cs),
(318,272,o),
(341,250,o),
(369,250,cs)
);
},
{
closed = 1;
nodes = (
(475,284,o),
(498,308,o),
(498,339,cs),
(498,370,o),
(475,394,o),
(444,394,cs),
(413,394,o),
(388,370,o),
(388,339,c),
(388,308,o),
(413,284,o),
(444,284,cs)
);
},
{
closed = 1;
nodes = (
(384,330,o),
(413,344,o),
(422,370,cs),
(431,397,o),
(447,500,o),
(421,509,cs),
(394,518,o),
(338,431,o),
(328,404,cs),
(318,378,o),
(333,350,o),
(359,340,cs)
);
},
{
closed = 1;
nodes = (
(386,330,o),
(440,419,o),
(450,445,cs),
(460,472,o),
(447,500,o),
(421,509,cs),
(394,518,o),
(365,506,o),
(356,480,cs),
(347,453,o),
(333,350,o),
(359,340,cs)
);
},
{
closed = 1;
nodes = (
(550,284,o),
(648,308,o),
(648,339,cs),
(648,370,o),
(550,394,o),
(519,394,cs),
(488,394,o),
(463,370,o),
(463,339,cs),
(463,308,o),
(488,284,o),
(519,284,cs)
);
},
{
closed = 1;
nodes = (
(625,284,o),
(648,308,o),
(648,339,cs),
(648,370,o),
(625,394,o),
(594,394,cs),
(563,394,o),
(463,370,o),
(463,339,cs),
(463,308,o),
(563,284,o),
(594,284,cs)
);
},
{
closed = 1;
nodes = (
(397,490,o),
(418,512,o),
(418,540,cs),
(418,568,o),
(397,590,o),
(369,590,cs),
(341,590,o),
(318,568,o),
(318,540,cs),
(318,512,o),
(341,490,o),
(369,490,cs)
);
},
{
closed = 0;
nodes = (
(313,625,l)
);
},
{
closed = 1;
nodes = (
(398,570,o),
(498,595,o),
(498,625,c),
(498,655,o),
(398,680,o),
(368,680,c),
(338,680,o),
(313,655,o),
(313,625,c),
(313,595,o),
(338,570,o),
(368,570,c)
);
},
{
closed = 1;
nodes = (
(475,570,o),
(498,594,o),
(498,625,cs),
(498,656,o),
(475,680,o),
(444,680,cs),
(413,680,o),
(313,656,o),
(313,625,c),
(313,594,o),
(413,570,o),
(444,570,cs)
);
},
{
closed = 1;
nodes = (
(550,570,o),
(648,594,o),
(648,625,cs),
(648,656,o),
(550,680,o),
(519,680,cs),
(488,680,o),
(463,656,o),
(463,625,cs),
(463,594,o),
(488,570,o),
(519,570,cs)
);
},
{
closed = 1;
nodes = (
(625,570,o),
(648,594,o),
(648,625,cs),
(648,656,o),
(625,680,o),
(594,680,cs),
(563,680,o),
(463,656,o),
(463,625,cs),
(463,594,o),
(563,570,o),
(594,570,cs)
);
},
{
closed = 1;
nodes = (
(140,0,o),
(238,25,o),
(238,55,cs),
(238,85,o),
(140,110,o),
(109,110,cs),
(78,110,o),
(53,86,o),
(53,55,cs),
(53,24,o),
(78,0,o),
(109,0,cs)
);
},
{
closed = 1;
nodes = (
(214,408,o),
(235,430,o),
(235,458,cs),
(235,486,o),
(214,508,o),
(186,508,cs),
(158,508,o),
(135,486,o),
(135,458,cs),
(135,430,o),
(158,408,o),
(186,408,cs)
);
},
{
closed = 1;
nodes = (
(135,170,o),
(158,272,o),
(158,300,cs),
(158,328,o),
(137,350,o),
(109,350,cs),
(81,350,o),
(58,328,o),
(58,300,cs),
(58,272,o),
(81,170,o),
(109,170,cs)
);
},
{
closed = 1;
nodes = (
(135,170,o),
(158,192,o),
(158,220,cs),
(158,248,o),
(137,270,o),
(109,270,cs),
(81,270,o),
(58,248,o),
(58,220,cs),
(58,192,o),
(81,170,o),
(109,170,cs)
);
},
{
closed = 1;
nodes = (
(135,90,o),
(158,112,o),
(158,140,cs),
(158,168,o),
(137,270,o),
(109,270,cs),
(81,270,o),
(58,168,o),
(58,140,cs),
(58,112,o),
(81,90,o),
(109,90,cs)
);
},
{
closed = 1;
nodes = (
(279,205,o),
(304,230,o),
(304,260,c),
(304,290,o),
(279,315,o),
(249,315,c),
(219,315,o),
(119,290,o),
(119,260,c),
(119,230,o),
(219,205,o),
(249,205,c)
);
},
{
closed = 1;
nodes = (
(204,205,o),
(304,230,o),
(304,260,c),
(304,290,o),
(204,315,o),
(174,315,c),
(144,315,o),
(119,290,o),
(119,260,c),
(119,230,o),
(144,205,o),
(174,205,c)
);
},
{
closed = 1;
nodes = (
(299,570,o),
(397,594,o),
(397,625,cs),
(397,656,o),
(299,680,o),
(268,680,cs),
(237,680,o),
(212,656,o),
(212,625,cs),
(212,594,o),
(237,570,o),
(268,570,cs)
);
},
{
closed = 1;
nodes = (
(356,570,o),
(379,594,o),
(379,625,cs),
(379,656,o),
(356,680,o),
(325,680,cs),
(294,680,o),
(269,656,o),
(269,625,cs),
(269,594,o),
(294,570,o),
(325,570,cs)
);
},
{
closed = 1;
nodes = (
(354,205,o),
(379,230,o),
(379,260,c),
(379,290,o),
(354,315,o),
(324,315,c),
(294,315,o),
(269,290,o),
(269,260,c),
(269,230,o),
(294,205,o),
(324,205,c)
);
},
{
closed = 1;
nodes = (
(213,0,o),
(238,25,o),
(238,55,c),
(238,85,o),
(213,110,o),
(183,110,c),
(153,110,o),
(53,86,o),
(53,55,c),
(53,24,o),
(153,0,o),
(183,0,c)
);
},
{
closed = 1;
nodes = (
(192,371,o),
(221,470,o),
(195,485,c),
(169,499,o),
(97,426,o),
(82,400,c),
(67,374,o),
(76,339,o),
(102,324,c),
(128,309,o),
(162,318,o),
(178,345,c)
);
},
{
closed = 1;
nodes = (
(301,546,o),
(292,581,o),
(266,596,c),
(240,610,o),
(206,601,o),
(190,575,c),
(175,549,o),
(147,450,o),
(173,435,c),
(199,420,o),
(270,494,o),
(286,520,c)
);
}
);
width = 700;
}
);
unicode = 198;
},
{
glyphname = B;
lastChange = "2020-12-30 13:17:51 +0000";
layers = (
{
layerId = "C8365536-00F6-4CBD-B31D-2172D190A829";
shapes = (
{
closed = 1;
nodes = (
(200,570,o),
(298,594,o),
(298,625,cs),
(298,656,o),
(200,680,o),
(169,680,cs),
(138,680,o),
(113,656,o),
(113,625,cs),
(113,594,o),
(138,570,o),
(169,570,cs)
);
},
{
closed = 1;
nodes = (
(500,285,o),
(523,309,o),
(523,340,cs),
(523,371,o),
(500,395,o),
(469,395,cs),
(438,395,o),
(338,371,o),
(338,340,cs),
(338,309,o),
(438,285,o),
(469,285,cs)
);
},
{
closed = 1;
nodes = (
(200,0,o),
(298,24,o),
(298,55,cs),
(298,86,o),
(200,110,o),
(169,110,cs),
(138,110,o),
(113,86,o),
(113,55,cs),
(113,24,o),
(138,0,o),
(169,0,cs)
);
},
{
closed = 1;
nodes = (
(275,285,o),
(373,309,o),
(373,340,cs),
(373,371,o),
(275,395,o),
(244,395,cs),
(213,395,o),
(188,371,o),
(188,340,c),
(188,309,o),
(213,285,o),
(244,285,cs)
);
},
{
closed = 1;
nodes = (
(350,285,o),
(373,309,o),
(373,340,cs),
(373,371,o),
(350,395,o),
(319,395,cs),
(288,395,o),
(188,371,o),
(188,340,cs),
(188,309,o),
(288,285,o),
(319,285,cs)
);
},
{
closed = 1;
nodes = (
(425,285,o),
(523,309,o),
(523,340,cs),
(523,371,o),
(425,395,o),
(394,395,cs),
(363,395,o),
(338,371,o),
(338,340,cs),
(338,309,o),
(363,285,o),
(394,285,cs)
);
},
{
closed = 1;
nodes = (
(165,405,o),
(219,494,o),
(229,520,cs),
(239,547,o),
(226,575,o),
(200,584,cs),
(173,593,o),
(144,581,o),
(135,555,cs),
(126,528,o),
(112,425,o),
(138,415,cs)
);
},
{
closed = 1;
nodes = (
(197,250,o),
(218,272,o),
(218,300,c),
(218,328,o),
(197,430,o),
(169,430,cs),
(141,430,o),
(118,328,o),
(118,300,cs),
(118,272,o),
(141,250,o),
(169,250,cs)
);
},
{
closed = 1;
nodes = (
(165,85,o),
(219,174,o),
(229,200,cs),
(239,227,o),
(226,255,o),
(200,264,cs),
(173,273,o),
(144,261,o),
(135,235,cs),
(126,208,o),
(112,105,o),
(138,95,cs)
);
},
{
closed = 1;
nodes = (
(163,85,o),
(192,99,o),
(201,125,cs),
(210,152,o),
(226,255,o),
(200,264,cs),
(173,273,o),
(117,186,o),
(107,160,cs),
(97,133,o),
(112,105,o),
(138,95,cs)
);
},
{
closed = 1;
nodes = (
(197,250,o),
(218,352,o),
(218,380,cs),
(218,408,o),
(197,430,o),
(169,430,cs),
(141,430,o),
(118,408,o),
(118,380,cs),
(118,352,o),
(141,250,o),
(169,250,cs)
);
},
{
closed = 1;
nodes = (
(165,405,o),
(192,419,o),
(201,445,cs),
(210,472,o),
(226,575,o),
(200,584,cs),
(173,593,o),
(117,506,o),
(107,480,c),
(98,453,o),
(112,425,o),
(138,415,cs)
);
},
{
closed = 1;
nodes = (
(575,410,o),
(596,512,o),
(596,540,cs),
(596,568,o),
(575,590,o),
(547,590,cs),
(519,590,o),
(496,568,o),
(496,540,cs),
(496,512,o),
(519,410,o),
(547,410,cs)
);
},
{
closed = 1;
nodes = (
(575,410,o),
(596,432,o),
(596,460,cs),
(596,488,o),
(575,590,o),
(547,590,cs),
(519,590,o),
(496,488,o),
(496,460,c),
(496,432,o),
(519,410,o),
(547,410,cs)
);
},
{
closed = 1;
nodes = (
(500,570,o),
(523,594,o),
(523,625,cs),
(523,656,o),
(500,680,o),
(469,680,cs),
(438,680,o),
(413,656,o),
(413,625,cs),
(413,594,o),
(438,570,o),
(469,570,cs)
);
},
{
closed = 1;
nodes = (
(275,570,o),
(298,594,o),
(298,625,cs),
(298,656,o),
(275,680,o),
(244,680,cs),
(213,680,o),
(113,656,o),
(113,625,c),
(113,594,o),
(213,570,o),
(244,570,cs)
);
},
{
closed = 1;
nodes = (
(350,570,o),
(448,594,o),
(448,625,cs),
(448,656,o),
(350,680,o),
(319,680,cs),
(288,680,o),
(263,656,o),
(263,625,cs),
(263,594,o),
(288,570,o),
(319,570,cs)
);
},
{
closed = 1;
nodes = (
(425,570,o),
(448,594,o),
(448,625,cs),
(448,656,o),
(425,680,o),
(394,680,cs),
(363,680,o),
(263,656,o),
(263,625,cs),
(263,594,o),
(363,570,o),
(394,570,cs)
);
},
{
closed = 1;
nodes = (
(537,568,o),
(548,579,o),
(548,593,c),
(548,607,o),
(537,618,o),
(523,618,c),
(509,618,o),
(498,607,o),
(498,593,c),
(498,579,o),
(509,568,o),
(523,568,c)
);
},
{
closed = 1;
nodes = (
(519,270,o),
(496,248,o),
(496,220,cs),
(496,192,o),
(520,87,o),
(548,87,cs),
(576,87,o),
(596,192,o),
(596,220,cs),
(596,248,o),
(575,270,o),
(547,270,cs)
);
},
{
closed = 1;
nodes = (
(438,110,o),
(413,86,o),
(413,55,cs),
(413,24,o),
(438,0,o),
(469,0,cs),
(500,0,o),
(523,24,o),
(523,55,cs),
(523,86,o),
(500,110,o),
(469,110,cs)
);
},
{
closed = 1;
nodes = (
(213,110,o),
(113,86,o),
(113,55,c),
(113,24,o),
(213,0,o),
(244,0,cs),
(275,0,o),
(298,24,o),
(298,55,cs),
(298,86,o),
(275,110,o),
(244,110,cs)
);
},
{
closed = 1;
nodes = (
(288,110,o),
(263,86,o),
(263,55,cs),
(263,24,o),
(288,0,o),
(319,0,cs),
(350,0,o),
(448,24,o),
(448,55,cs),
(448,86,o),
(350,110,o),
(319,110,cs)
);
},
{
closed = 1;
nodes = (
(363,110,o),
(263,86,o),
(263,55,cs),
(263,24,o),
(363,0,o),
(394,0,cs),
(425,0,o),
(448,24,o),
(448,55,cs),
(448,86,o),
(425,110,o),
(394,110,cs)
);
},
{
closed = 1;
nodes = (
(509,112,o),
(498,101,o),
(498,87,c),
(498,73,o),
(509,62,o),
(523,62,c),
(537,62,o),
(548,73,o),
(548,87,c),
(548,101,o),
(537,112,o),
(523,112,c)
);
},
{
closed = 1;
nodes = (
(519,270,o),
(496,168,o),
(496,140,cs),
(496,112,o),
(519,90,o),
(547,90,cs),
(575,90,o),
(596,112,o),
(596,140,cs),
(596,168,o),
(575,270,o),
(547,270,cs)
);
},
{
closed = 1;
nodes = (
(523,253,o),
(534,264,o),
(534,278,cs),
(534,292,o),
(523,303,o),
(509,303,cs),
(495,303,o),
(484,292,o),
(484,278,cs),
(484,264,o),
(495,253,o),
(509,253,cs)
);
},
{
closed = 1;
nodes = (
(523,376,o),
(534,387,o),
(534,401,cs),
(534,415,o),
(523,426,o),
(509,426,cs),
(495,426,o),
(484,415,o),
(484,401,cs),
(484,387,o),
(495,376,o),
(509,376,cs)
);
}
);
width = 700;
}
);
unicode = 66;
},
{
glyphname = C;
lastChange = "2020-12-30 12:27:50 +0000";
layers = (
{
layerId = "C8365536-00F6-4CBD-B31D-2172D190A829";
shapes = (
{
closed = 1;
nodes = (
(309,570,o),
(409,595,o),
(409,625,c),
(409,655,o),
(309,680,o),
(279,680,c),
(249,680,o),
(224,655,o),
(224,625,c),
(224,595,o),
(249,570,o),
(279,570,c)
);
},
{
closed = 1;
nodes = (
(459,570,o),
(559,595,o),
(559,625,c),
(559,655,o),
(459,680,o),
(429,680,c),
(399,680,o),
(374,655,o),
(374,625,c),
(374,595,o),
(399,570,o),
(429,570,c)
);
},
{
closed = 1;
nodes = (
(534,570,o),
(559,595,o),
(559,625,c),
(559,655,o),
(534,680,o),
(504,680,c),
(474,680,o),
(374,655,o),
(374,625,c),
(374,595,o),
(474,570,o),
(504,570,c)
);
},
{
closed = 1;
nodes = (
(162,207,o),
(184,309,o),
(184,337,c),
(184,365,o),
(162,387,o),
(134,387,c),
(106,387,o),
(84,365,o),
(84,337,c),
(84,309,o),
(106,207,o),
(134,207,c)
);
},
{
closed = 1;
nodes = (
(162,207,o),
(184,229,o),
(184,257,c),
(184,285,o),
(162,387,o),
(134,387,c),
(106,387,o),
(84,285,o),
(84,257,c),
(84,229,o),
(106,207,o),
(134,207,c)
);
},
{
closed = 1;
nodes = (
(162,367,o),
(184,389,o),
(184,417,c),
(184,445,o),
(162,547,o),
(134,547,c),
(106,547,o),
(84,445,o),
(84,417,c),
(84,389,o),
(106,367,o),
(134,367,c)
);
},
{
closed = 1;
nodes = (
(249,110,o),
(224,85,o),
(224,55,c),
(224,25,o),
(249,0,o),
(279,0,c),
(309,0,o),
(409,25,o),
(409,55,c),
(409,85,o),
(309,110,o),
(279,110,c)
);
},
{
closed = 1;
nodes = (
(399,110,o),
(374,85,o),
(374,55,c),
(374,25,o),
(399,0,o),
(429,0,c),
(459,0,o),
(559,25,o),
(559,55,c),
(559,85,o),
(459,110,o),
(429,110,c)
);
},
{
closed = 1;
nodes = (
(474,110,o),
(374,85,o),
(374,55,c),
(374,25,o),
(474,0,o),
(504,0,c),
(534,0,o),
(559,25,o),
(559,55,c),
(559,85,o),
(534,110,o),
(504,110,c)
);
},
{
closed = 1;
nodes = (
(106,547,o),
(84,525,o),
(84,497,c),
(84,469,o),
(106,367,o),
(134,367,c),
(162,367,o),
(184,469,o),
(184,497,c),
(184,525,o),
(162,547,o),
(134,547,c)
);
},
{
closed = 1;
nodes = (
(162,127,o),
(184,149,o),
(184,177,c),
(184,205,o),
(162,227,o),
(134,227,c),
(106,227,o),
(84,205,o),
(84,177,c),
(84,149,o),
(106,127,o),
(134,127,c)
);
},
{
closed = 1;
nodes = (
(384,570,o),
(409,595,o),
(409,625,c),
(409,655,o),
(384,680,o),
(354,680,c),
(324,680,o),
(224,655,o),
(224,625,c),
(224,595,o),
(324,570,o),
(354,570,c)
);
},
{
closed = 1;
nodes = (
(324,110,o),
(224,85,o),
(224,55,c),
(224,25,o),
(324,0,o),
(354,0,c),
(384,0,o),
(409,25,o),
(409,55,c),
(409,85,o),
(384,110,o),
(354,110,c)
);
},
{
closed = 1;
nodes = (
(341,123,o),
(277,206,o),
(257,224,cs),
(236,243,o),
(203,239,o),
(185,218,cs),
(167,197,o),
(171,166,o),
(192,148,cs),
(214,130,o),
(305,79,o),
(323,101,cs)
);
},
{
closed = 1;
nodes = (
(341,123,o),
(339,154,o),
(318,172,c),
(296,190,o),
(203,239,o),
(185,218,cs),
(167,197,o),
(232,114,o),
(253,95,cs),
(273,77,o),
(305,79,o),
(323,101,cs)
);
},
{
closed = 1;
nodes = (
(309,593,o),
(218,542,o),
(196,524,cs),
(175,506,o),
(171,475,o),
(189,454,cs),
(207,433,o),
(240,429,o),
(261,448,cs),
(281,466,o),
(345,549,o),
(327,571,cs)
);
},
{
closed = 1;
nodes = (
(309,593,o),
(277,595,o),
(257,577,cs),
(236,558,o),
(171,475,o),
(189,454,cs),
(207,433,o),
(300,482,o),
(322,500,c),
(343,518,o),
(345,549,o),
(327,571,cs)
);
},
{
closed = 1;
nodes = (
(470,581,o),
(509,484,o),
(523,461,cs),
(538,437,o),
(571,432,o),
(594,447,cs),
(617,462,o),
(623,494,o),
(607,516,cs),
(590,539,o),
(517,614,o),
(494,598,cs)
);
},
{
closed = 1;
nodes = (
(470,581,o),
(464,551,o),
(479,528,c),
(495,505,o),
(571,432,o),
(594,447,cs),
(617,462,o),
(578,560,o),
(563,584,cs),
(549,607,o),
(517,614,o),
(494,598,cs)
);
},
{
closed = 1;
nodes = (
(517,59,o),
(590,134,o),
(607,157,cs),
(623,179,o),
(617,211,o),
(594,226,cs),
(571,241,o),
(538,236,o),
(523,212,cs),
(509,189,o),
(470,92,o),
(494,75,cs)
);
},
{
closed = 1;
nodes = (
(517,59,o),
(549,66,o),
(563,89,cs),
(578,113,o),
(617,211,o),
(594,226,cs),
(571,241,o),
(495,168,o),
(479,145,c),
(464,122,o),
(470,92,o),
(494,75,cs)
);
}
);
width = 700;
}
);
unicode = 67;
},
{
glyphname = D;
lastChange = "2020-12-30 12:35:33 +0000";
layers = (
{
layerId = "C8365536-00F6-4CBD-B31D-2172D190A829";
shapes = (
{
closed = 1;
nodes = (
(370,0,o),
(395,25,o),
(395,55,c),
(395,85,o),
(370,110,o),
(340,110,c),
(310,110,o),
(210,85,o),
(210,55,c),
(210,25,o),
(310,0,o),
(340,0,c)
);
},
{
closed = 1;
nodes = (
(295,0,o),
(395,25,o),
(395,55,cs),
(395,85,o),
(295,110,o),
(265,110,c),
(235,110,o),
(210,85,o),
(210,55,c),
(210,25,o),
(235,0,o),
(265,0,c)
);
},
{
closed = 1;
nodes = (
(220,410,o),
(240,512,o),
(240,540,cs),
(240,568,o),
(219,590,o),
(191,590,cs),
(163,590,o),
(140,568,o),
(140,540,cs),
(140,512,o),
(164,410,o),
(192,410,cs)
);
},
{
closed = 1;
nodes = (
(219,250,o),
(240,272,o),
(240,300,c),
(240,328,o),
(219,430,o),
(191,430,cs),
(163,430,o),
(140,328,o),
(140,300,cs),
(140,272,o),
(163,250,o),
(191,250,cs)
);
},
{
closed = 1;
nodes = (
(219,90,o),
(240,192,o),
(240,220,cs),
(240,248,o),
(219,270,o),
(191,270,cs),
(163,270,o),
(140,248,o),
(140,220,cs),
(140,192,o),
(163,90,o),
(191,90,cs)
);
},
{
closed = 1;
nodes = (
(217,90,o),
(240,112,o),
(240,140,cs),
(240,168,o),
(219,270,o),
(191,270,cs),
(163,270,o),
(140,168,o),
(140,140,cs),
(140,112,o),
(163,90,o),
(191,90,cs)
);
},
{
closed = 1;
nodes = (
(219,250,o),
(240,352,o),
(240,380,cs),
(240,408,o),
(219,430,o),
(191,430,cs),
(163,430,o),
(140,408,o),
(140,380,cs),
(140,352,o),
(163,250,o),
(191,250,cs)
);
},
{
closed = 1;
nodes = (
(220,410,o),
(241,432,o),
(241,460,cs),
(241,488,o),
(219,590,o),
(191,590,cs),
(163,590,o),
(141,488,o),
(141,460,c),
(141,432,o),
(164,410,o),
(192,410,cs)
);
},
{
closed = 1;
nodes = (
(412,570,o),
(437,595,o),
(437,625,c),
(437,655,o),
(412,680,o),
(382,680,c),
(352,680,o),
(252,655,o),
(252,625,c),
(252,595,o),
(352,570,o),
(382,570,c)
);
},
{
closed = 1;
nodes = (
(262,570,o),
(287,595,o),
(287,625,c),
(287,655,o),
(262,680,o),
(232,680,c),
(202,680,o),
(102,655,o),
(102,625,c),
(102,595,o),
(202,570,o),
(232,570,c)
);
},
{
closed = 1;
nodes = (
(187,570,o),
(287,595,o),
(287,625,c),
(287,655,o),
(187,680,o),
(157,680,c),
(127,680,o),
(102,655,o),
(102,625,c),
(102,595,o),
(127,570,o),
(157,570,c)
);
},
{
closed = 1;
nodes = (
(577,171,o),
(599,273,o),
(599,301,c),
(599,329,o),
(577,351,o),
(549,351,c),
(521,351,o),
(499,329,o),
(499,301,c),
(499,273,o),
(521,171,o),
(549,171,c)
);
},
{
closed = 1;
nodes = (
(577,171,o),
(599,193,o),
(599,221,c),
(599,249,o),
(577,351,o),
(549,351,c),
(521,351,o),
(499,249,o),
(499,221,c),
(499,193,o),
(521,171,o),
(549,171,c)
);
},
{
closed = 1;
nodes = (
(577,331,o),
(599,353,o),
(599,381,c),
(599,409,o),
(577,511,o),
(549,511,c),
(521,511,o),
(499,409,o),
(499,381,c),
(499,353,o),
(521,331,o),
(549,331,c)
);
},
{
closed = 1;
nodes = (
(202,110,o),
(102,85,o),
(102,55,c),
(102,25,o),
(202,0,o),
(232,0,c),
(262,0,o),
(287,25,o),
(287,55,c),
(287,85,o),
(262,110,o),
(232,110,c)
);
},
{
closed = 1;
nodes = (
(127,110,o),
(102,85,o),
(102,55,c),
(102,25,o),
(127,0,o),
(157,0,c),
(187,0,o),
(287,25,o),
(287,55,c),
(287,85,o),
(187,110,o),
(157,110,c)
);
},
{
closed = 1;
nodes = (
(521,511,o),
(499,489,o),
(499,461,c),
(499,433,o),
(521,331,o),
(549,331,c),
(577,331,o),
(599,433,o),
(599,461,c),
(599,489,o),
(577,511,o),
(549,511,c)
);
},
{
closed = 1;
nodes = (
(337,570,o),
(437,595,o),
(437,625,c),
(437,655,o),
(337,680,o),
(307,680,c),
(277,680,o),
(252,655,o),
(252,625,c),
(252,595,o),
(277,570,o),
(307,570,c)
);
},
{
closed = 1;
nodes = (
(383,79,o),
(474,130,o),
(496,148,cs),
(517,166,o),
(521,197,o),
(503,218,cs),
(485,239,o),
(452,243,o),
(431,224,cs),
(411,206,o),
(347,123,o),
(365,101,cs)
);
},
{
closed = 1;
nodes = (
(383,79,o),
(415,77,o),
(435,95,cs),
(456,114,o),
(521,197,o),
(503,218,cs),
(485,239,o),
(392,190,o),
(370,172,c),
(349,154,o),
(347,123,o),
(365,101,cs)
);
},
{
closed = 1;
nodes = (
(346,548,o),
(410,465,o),
(430,447,cs),
(451,428,o),
(484,432,o),
(502,453,cs),
(520,474,o),
(516,505,o),
(495,523,cs),
(473,541,o),
(382,592,o),
(364,570,cs)
);
},
{
closed = 1;
nodes = (
(346,548,o),
(348,517,o),
(369,499,c),
(391,481,o),
(484,432,o),
(502,453,cs),
(520,474,o),
(455,557,o),
(434,576,cs),
(414,594,o),
(382,592,o),
(364,570,cs)
);
}
);
width = 700;
}
);
unicode = 68;
},
{
glyphname = Eth;
lastChange = "2020-12-30 12:36:02 +0000";
layers = (
{
layerId = "C8365536-00F6-4CBD-B31D-2172D190A829";
shapes = (
{
closed = 1;
nodes = (
(124,313,o),
(146,292,o),
(174,292,cs),
(202,292,o),
(224,313,o),
(224,341,cs),
(224,369,o),
(202,392,o),
(174,392,cs),
(146,392,o),
(124,369,o),
(124,341,cs)
);
},
{
closed = 1;
nodes = (
(44,315,o),
(66,292,o),
(94,292,cs),
(122,292,o),
(224,313,o),
(224,341,cs),
(224,369,o),
(122,392,o),
(94,392,cs),
(66,392,o),
(44,369,o),
(44,341,cs)
);
},
{
closed = 1;
nodes = (
(204,313,o),
(226,292,o),
(254,292,cs),
(282,292,o),
(304,313,o),
(304,341,cs),
(304,369,o),
(282,392,o),
(254,392,cs),
(226,392,o),
(204,369,o),
(204,341,cs)
);
},
{
closed = 1;
nodes = (
(384,369,o),
(362,392,o),
(334,392,c),
(306,392,o),
(204,369,o),
(204,341,c),
(204,313,o),
(306,292,o),
(334,292,cs),
(362,292,o),
(384,315,o),
(384,341,c)
);
},
{
ref = D;
}
);
width = 700;
}
);
unicode = 208;
},
{
glyphname = E;
lastChange = "2020-12-30 09:47:25 +0000";
layers = (
{
layerId = "C8365536-00F6-4CBD-B31D-2172D190A829";
shapes = (
{
closed = 1;
nodes = (
(197,570,o),
(295,594,o),
(295,625,cs),
(295,656,o),
(197,680,o),
(166,680,cs),
(135,680,o),
(110,656,o),
(110,625,cs),
(110,594,o),
(135,570,o),
(166,570,cs)
);
},
{
closed = 1;
nodes = (
(497,0,o),
(595,24,o),
(595,55,cs),
(595,86,o),
(497,110,o),
(466,110,cs),
(435,110,o),
(410,86,o),
(410,55,cs),
(410,24,o),
(435,0,o),
(466,0,cs)
);
},
{
closed = 1;
nodes = (
(572,0,o),
(595,24,o),
(595,55,cs),
(595,86,o),
(572,110,o),
(541,110,cs),
(510,110,o),
(410,86,o),
(410,55,cs),
(410,24,o),
(510,0,o),
(541,0,cs)
);
},
{
closed = 1;
nodes = (
(197,0,o),
(295,24,o),
(295,55,cs),
(295,86,o),
(197,110,o),
(166,110,cs),
(135,110,o),
(110,86,o),
(110,55,cs),
(110,24,o),
(135,0,o),
(166,0,cs)
);
},
{
closed = 1;
nodes = (
(272,0,o),
(295,24,o),
(295,55,cs),
(295,86,o),
(272,110,o),
(241,110,cs),
(210,110,o),
(110,86,o),
(110,55,c),
(110,24,o),
(210,0,o),
(241,0,cs)
);
},
{
closed = 1;
nodes = (
(347,0,o),
(445,24,o),
(445,55,cs),
(445,86,o),
(347,110,o),
(316,110,cs),
(285,110,o),
(260,86,o),
(260,55,cs),
(260,24,o),
(285,0,o),
(316,0,cs)
);
},
{
closed = 1;
nodes = (
(422,0,o),
(445,24,o),
(445,55,cs),
(445,86,o),
(422,110,o),
(391,110,cs),
(360,110,o),
(260,86,o),
(260,55,cs),
(260,24,o),
(360,0,o),
(391,0,cs)
);
},
{
closed = 1;
nodes = (
(194,490,o),
(215,512,o),
(215,540,cs),
(215,568,o),
(194,590,o),
(166,590,cs),
(138,590,o),
(115,568,o),
(115,540,cs),
(115,512,o),
(138,490,o),
(166,490,cs)
);
},
{
closed = 1;
nodes = (
(194,250,o),
(215,272,o),
(215,300,c),
(215,328,o),
(194,350,o),
(166,350,cs),
(138,350,o),
(115,328,o),
(115,300,cs),
(115,272,o),
(138,250,o),
(166,250,cs)
);
},
{
closed = 1;
nodes = (
(497,570,o),
(595,594,o),
(595,625,cs),
(595,656,o),
(497,680,o),
(466,680,cs),
(435,680,o),
(410,656,o),
(410,625,cs),
(410,594,o),
(435,570,o),
(466,570,cs)
);
},
{
closed = 1;
nodes = (
(572,570,o),
(595,594,o),
(595,625,cs),
(595,656,o),
(572,680,o),
(541,680,cs),
(510,680,o),
(410,656,o),
(410,625,cs),
(410,594,o),
(510,570,o),
(541,570,cs)
);
},
{
closed = 1;
nodes = (
(272,570,o),
(295,594,o),
(295,625,cs),
(295,656,o),
(272,680,o),
(241,680,cs),
(210,680,o),
(110,656,o),
(110,625,c),
(110,594,o),
(210,570,o),
(241,570,cs)
);
},
{
closed = 1;
nodes = (
(347,570,o),
(445,594,o),
(445,625,cs),
(445,656,o),
(347,680,o),
(316,680,cs),
(285,680,o),
(260,656,o),
(260,625,cs),
(260,594,o),
(285,570,o),
(316,570,cs)
);
},
{
closed = 1;
nodes = (
(422,570,o),
(445,594,o),
(445,625,cs),
(445,656,o),
(422,680,o),
(391,680,cs),
(360,680,o),
(260,656,o),
(260,625,cs),
(260,594,o),
(360,570,o),
(391,570,cs)
);
},
{
closed = 1;
nodes = (
(272,284,o),
(295,308,o),
(295,339,cs),
(295,370,o),
(272,394,o),
(241,394,cs),
(210,394,o),
(185,370,o),
(185,339,c),
(185,308,o),
(210,284,o),
(241,284,cs)
);
},
{
closed = 1;
nodes = (
(347,284,o),
(445,308,o),
(445,339,cs),
(445,370,o),
(347,394,o),
(316,394,cs),
(285,394,o),
(260,370,o),
(260,339,cs),
(260,308,o),
(285,284,o),
(316,284,cs)
);
},
{
closed = 1;
nodes = (
(422,284,o),
(445,308,o),
(445,339,cs),
(445,370,o),
(422,394,o),
(391,394,cs),
(360,394,o),
(260,370,o),
(260,339,cs),
(260,308,o),
(360,284,o),
(391,284,cs)
);
},
{
closed = 1;
nodes = (
(569,490,o),
(590,512,o),
(590,540,cs),
(590,568,o),
(569,680,o),
(541,680,cs),
(513,680,o),
(490,568,o),
(490,540,cs),
(490,512,o),
(513,490,o),
(541,490,cs)
);
},
{
closed = 1;
nodes = (
(569,0,o),
(590,112,o),
(590,140,cs),
(590,168,o),
(569,190,o),
(541,190,cs),
(513,190,o),
(490,168,o),
(490,140,cs),
(490,112,o),
(513,0,o),
(541,0,cs)
);
},
{
closed = 1;
nodes = (
(166,85,o),
(220,174,o),
(230,200,cs),
(240,227,o),
(227,255,o),
(201,264,cs),
(174,273,o),
(145,261,o),
(136,235,cs),
(127,208,o),
(113,105,o),
(139,95,cs)
);
},
{
closed = 1;
nodes = (
(164,85,o),
(193,99,o),
(202,125,cs),
(211,152,o),
(227,255,o),
(201,264,cs),
(174,273,o),
(118,186,o),
(108,159,cs),
(98,133,o),
(113,105,o),
(139,95,cs)
);
},
{
closed = 1;
nodes = (
(183,330,o),
(237,419,o),
(247,445,cs),
(257,472,o),
(244,500,o),
(218,509,cs),
(191,518,o),
(162,506,o),
(153,480,cs),
(144,453,o),
(130,350,o),
(156,340,cs)
);
},
{
closed = 1;
nodes = (
(181,330,o),
(210,344,o),
(219,370,cs),
(228,397,o),
(244,500,o),
(218,509,cs),
(191,518,o),
(135,431,o),
(125,404,cs),
(115,378,o),
(130,350,o),
(156,340,cs)
);
}
);
width = 700;
}
);
unicode = 69;
},
{
glyphname = F;
lastChange = "2020-12-30 11:29:19 +0000";
layers = (
{
layerId = "C8365536-00F6-4CBD-B31D-2172D190A829";
shapes = (
{
closed = 1;
nodes = (
(197,570,o),
(295,594,o),
(295,625,cs),
(295,656,o),
(197,680,o),
(166,680,cs),
(135,680,o),
(110,656,o),
(110,625,cs),
(110,594,o),
(135,570,o),
(166,570,cs)
);
},
{
closed = 1;
nodes = (
(197,0,o),
(295,24,o),
(295,55,cs),
(295,86,o),
(197,110,o),
(166,110,cs),
(135,110,o),
(110,86,o),
(110,55,cs),
(110,24,o),
(135,0,o),
(166,0,cs)
);
},
{
closed = 1;
nodes = (
(272,0,o),
(295,24,o),
(295,55,cs),
(295,86,o),
(272,110,o),
(241,110,cs),
(210,110,o),
(110,86,o),
(110,55,c),
(110,24,o),
(210,0,o),
(241,0,cs)
);
},
{
closed = 1;
nodes = (
(194,490,o),
(215,512,o),
(215,540,cs),
(215,568,o),
(194,590,o),
(166,590,cs),
(138,590,o),
(115,568,o),
(115,540,cs),
(115,512,o),
(138,490,o),
(166,490,cs)
);
},
{
closed = 1;
nodes = (
(194,250,o),
(215,272,o),
(215,300,c),
(215,328,o),
(194,350,o),
(166,350,cs),
(138,350,o),
(115,328,o),
(115,300,cs),
(115,272,o),
(138,250,o),
(166,250,cs)
);
},
{
closed = 1;
nodes = (
(497,570,o),
(595,594,o),
(595,625,cs),
(595,656,o),
(497,680,o),
(466,680,cs),
(435,680,o),
(410,656,o),
(410,625,cs),
(410,594,o),
(435,570,o),
(466,570,cs)
);
},
{
closed = 1;
nodes = (
(572,570,o),
(595,594,o),
(595,625,cs),
(595,656,o),
(572,680,o),
(541,680,cs),
(510,680,o),
(410,656,o),
(410,625,cs),
(410,594,o),
(510,570,o),
(541,570,cs)
);
},
{
closed = 1;
nodes = (
(272,570,o),
(295,594,o),
(295,625,cs),
(295,656,o),
(272,680,o),
(241,680,cs),
(210,680,o),
(110,656,o),
(110,625,c),
(110,594,o),
(210,570,o),
(241,570,cs)
);
},
{
closed = 1;
nodes = (
(347,570,o),
(445,594,o),
(445,625,cs),
(445,656,o),
(347,680,o),
(316,680,cs),
(285,680,o),
(260,656,o),
(260,625,cs),
(260,594,o),
(285,570,o),
(316,570,cs)
);
},
{
closed = 1;
nodes = (
(422,570,o),
(445,594,o),
(445,625,cs),
(445,656,o),
(422,680,o),
(391,680,cs),
(360,680,o),
(260,656,o),
(260,625,cs),
(260,594,o),
(360,570,o),
(391,570,cs)
);
},
{
closed = 1;
nodes = (
(272,284,o),
(295,308,o),
(295,339,cs),
(295,370,o),
(272,394,o),
(241,394,cs),
(210,394,o),
(185,370,o),
(185,339,c),
(185,308,o),
(210,284,o),
(241,284,cs)
);
},
{
closed = 1;
nodes = (
(347,284,o),
(445,308,o),
(445,339,cs),
(445,370,o),
(347,394,o),
(316,394,cs),
(285,394,o),
(260,370,o),
(260,339,cs),
(260,308,o),
(285,284,o),
(316,284,cs)
);
},
{
closed = 1;
nodes = (
(422,284,o),
(445,308,o),
(445,339,cs),
(445,370,o),
(422,394,o),
(391,394,cs),
(360,394,o),
(260,370,o),
(260,339,cs),
(260,308,o),
(360,284,o),
(391,284,cs)
);
},
{
closed = 1;
nodes = (
(569,490,o),
(590,512,o),
(590,540,cs),
(590,568,o),
(569,680,o),
(541,680,cs),
(513,680,o),
(490,568,o),
(490,540,cs),
(490,512,o),
(513,490,o),
(541,490,cs)
);
},
{
closed = 1;
nodes = (
(166,85,o),
(220,174,o),
(230,200,cs),
(240,227,o),
(227,255,o),
(201,264,cs),
(174,273,o),
(145,261,o),
(136,235,cs),
(127,208,o),
(113,105,o),
(139,95,cs)
);
},
{
closed = 1;
nodes = (
(164,85,o),
(193,99,o),
(202,125,cs),
(211,152,o),
(227,255,o),
(201,264,cs),
(174,273,o),
(118,186,o),
(108,159,cs),
(98,133,o),
(113,105,o),
(139,95,cs)
);
},
{
closed = 1;
nodes = (
(183,330,o),
(237,419,o),
(247,445,cs),
(257,472,o),
(244,500,o),
(218,509,cs),
(191,518,o),
(162,506,o),
(153,480,cs),
(144,453,o),
(130,350,o),
(156,340,cs)
);
},
{
closed = 1;
nodes = (
(181,330,o),
(210,344,o),
(219,370,cs),
(228,397,o),
(244,500,o),
(218,509,cs),
(191,518,o),
(135,431,o),
(125,404,cs),
(115,378,o),
(130,350,o),
(156,340,cs)
);
}
);
width = 700;
}
);
unicode = 70;
},
{
glyphname = G;
lastChange = "2022-12-12 10:40:41 +0000";
layers = (
{
layerId = "C8365536-00F6-4CBD-B31D-2172D190A829";
shapes = (
{
closed = 1;
nodes = (
(305,570,o),
(405,595,o),
(405,625,c),
(405,655,o),
(305,680,o),
(275,680,c),
(245,680,o),
(220,655,o),
(220,625,c),
(220,595,o),
(245,570,o),
(275,570,c)
);
},
{
closed = 1;
nodes = (
(455,570,o),
(555,595,o),
(555,625,c),
(555,655,o),
(455,680,o),
(425,680,c),
(395,680,o),
(370,655,o),
(370,625,c),
(370,595,o),
(395,570,o),
(425,570,c)
);
},
{
closed = 1;
nodes = (
(530,570,o),
(555,595,o),
(555,625,c),
(555,655,o),
(530,680,o),
(500,680,c),
(470,680,o),
(370,655,o),
(370,625,c),
(370,595,o),
(470,570,o),
(500,570,c)
);
},
{
closed = 1;
nodes = (
(158,207,o),
(180,309,o),
(180,337,c),
(180,365,o),
(158,387,o),
(130,387,c),
(102,387,o),
(80,365,o),
(80,337,c),
(80,309,o),
(102,207,o),
(130,207,c)
);
},
{
closed = 1;
nodes = (
(158,207,o),
(180,229,o),
(180,257,c),
(180,285,o),
(158,387,o),
(130,387,c),
(102,387,o),
(80,285,o),
(80,257,c),
(80,229,o),
(102,207,o),
(130,207,c)
);
},
{
closed = 1;
nodes = (
(158,367,o),
(180,389,o),
(180,417,c),
(180,445,o),
(158,547,o),
(130,547,c),
(102,547,o),
(80,445,o),
(80,417,c),
(80,389,o),
(102,367,o),
(130,367,c)
);
},
{
closed = 1;
nodes = (
(502,241,o),
(480,139,o),
(480,111,c),
(480,83,o),
(502,61,o),
(530,61,c),
(558,61,o),
(580,83,o),
(580,111,c),
(580,139,o),
(558,241,o),
(530,241,c)
);
},
{
closed = 1;
nodes = (
(502,241,o),
(480,219,o),
(480,191,c),
(480,163,o),
(502,61,o),
(530,61,c),
(558,61,o),
(580,163,o),
(580,191,c),
(580,219,o),
(558,241,o),
(530,241,c)
);
},
{
closed = 1;
nodes = (
(245,110,o),
(220,85,o),
(220,55,c),
(220,25,o),
(245,0,o),
(275,0,c),
(305,0,o),
(405,25,o),
(405,55,c),
(405,85,o),
(305,110,o),
(275,110,c)
);
},
{
closed = 1;
nodes = (
(395,110,o),
(370,85,o),
(370,55,c),
(370,25,o),
(395,0,o),
(425,0,c),
(455,0,o),
(555,25,o),
(555,55,c),
(555,85,o),
(455,110,o),
(425,110,c)
);
},
{
closed = 1;
nodes = (
(470,110,o),
(370,85,o),
(370,55,c),
(370,25,o),
(470,0,o),
(500,0,c),
(530,0,o),
(555,25,o),
(555,55,c),
(555,85,o),
(530,110,o),
(500,110,c)
);
},
{
closed = 1;
nodes = (
(102,547,o),
(80,525,o),
(80,497,c),
(80,469,o),
(102,367,o),
(130,367,c),
(158,367,o),
(180,469,o),
(180,497,c),
(180,525,o),
(158,547,o),
(130,547,c)
);
},
{
closed = 1;
nodes = (
(158,127,o),
(180,149,o),
(180,177,c),
(180,205,o),
(158,227,o),
(130,227,c),
(102,227,o),
(80,205,o),
(80,177,c),
(80,149,o),
(102,127,o),
(130,127,c)
);
},
{
closed = 1;
nodes = (
(380,570,o),
(405,595,o),
(405,625,c),
(405,655,o),
(380,680,o),
(350,680,c),
(320,680,o),
(220,655,o),
(220,625,c),
(220,595,o),
(320,570,o),
(350,570,c)
);
},
{
closed = 1;
nodes = (
(320,110,o),
(220,85,o),
(220,55,c),
(220,25,o),
(320,0,o),
(350,0,c),
(380,0,o),
(405,25,o),
(405,55,c),
(405,85,o),
(380,110,o),
(350,110,c)
);
},
{
closed = 1;
nodes = (
(502,321,o),
(405,299,o),
(405,271,c),
(405,243,o),
(502,221,o),
(530,221,c),
(558,221,o),
(580,243,o),
(580,271,c),
(580,299,o),
(558,321,o),
(530,321,c)
);
},
{
closed = 1;
nodes = (
(430,326,o),
(405,301,o),
(405,271,c),
(405,241,o),
(430,216,o),
(460,216,c),
(490,216,o),
(580,241,o),
(580,271,c),
(580,301,o),
(490,326,o),
(460,326,c)
);
},
{
closed = 1;
nodes = (
(338,126,o),
(336,157,o),
(315,175,c),
(293,193,o),
(200,242,o),
(182,221,cs),
(164,200,o),
(229,117,o),
(250,98,cs),
(270,80,o),
(302,82,o),
(320,104,cs)
);
},
{
closed = 1;
nodes = (
(299,593,o),
(208,542,o),
(186,524,cs),
(165,506,o),
(161,475,o),
(179,454,cs),
(197,433,o),
(230,429,o),
(251,448,cs),
(271,466,o),
(335,549,o),
(317,571,cs)
);
},
{
closed = 1;
nodes = (
(299,593,o),
(267,595,o),
(247,577,cs),
(226,558,o),
(161,475,o),
(179,454,cs),
(197,433,o),
(290,482,o),
(312,500,c),
(333,518,o),
(335,549,o),
(317,571,cs)
);
},
{
closed = 1;
nodes = (
(466,581,o),
(505,484,o),
(519,461,cs),
(534,437,o),
(567,432,o),
(590,447,cs),
(613,462,o),
(619,494,o),
(603,516,cs),
(586,539,o),
(513,614,o),
(490,598,cs)
);
},
{
closed = 1;
nodes = (
(466,581,o),
(460,551,o),
(475,528,c),
(491,505,o),
(567,432,o),
(590,447,cs),
(613,462,o),
(574,560,o),
(559,584,cs),
(545,607,o),
(513,614,o),
(490,598,cs)
);
},
{
closed = 1;
nodes = (
(162,197,o),
(165,166,o),
(186,148,c),
(209,130,o),
(302,83,o),
(320,104,cs),
(338,126,o),
(271,208,o),
(250,226,cs),
(230,244,o),
(198,241,o),
(180,219,cs)
);
}
);
width = 700;
}
);
unicode = 71;
},
{
glyphname = H;
lastChange = "2020-12-25 14:47:37 +0000";
layers = (
{
layerId = "C8365536-00F6-4CBD-B31D-2172D190A829";
shapes = (
{
closed = 1;
nodes = (
(230,285,o),
(330,310,o),
(330,340,c),
(330,370,o),
(230,395,o),
(200,395,c),
(170,395,o),
(145,370,o),
(145,340,c),
(145,310,o),
(170,285,o),
(200,285,c)
);
},
{
closed = 1;
nodes = (
(530,285,o),
(555,310,o),
(555,340,c),
(555,370,o),
(530,395,o),
(500,395,c),
(470,395,o),
(370,370,o),
(370,340,c),
(370,310,o),
(470,285,o),
(500,285,c)
);
},
{
closed = 1;
nodes = (
(530,570,o),
(629,595,o),
(629,625,c),
(629,655,o),
(530,680,o),
(500,680,c),
(470,680,o),
(445,655,o),
(445,625,c),
(445,595,o),
(470,570,o),
(500,570,c)
);
},
{
closed = 1;
nodes = (
(604,570,o),
(629,595,o),
(629,625,c),
(629,655,o),
(604,680,o),
(574,680,c),
(544,680,o),
(445,655,o),
(445,625,cs),
(445,595,o),
(544,570,o),
(574,570,c)
);
},
{
closed = 1;
nodes = (
(601,410,o),
(625,512,o),
(625,540,cs),
(625,568,o),
(602,590,o),
(574,590,cs),
(546,590,o),
(525,568,o),
(525,540,cs),
(525,512,o),
(545,410,o),
(573,410,cs)
);
},
{
closed = 1;
nodes = (
(602,250,o),
(625,272,o),
(625,300,cs),
(625,328,o),
(602,430,o),
(574,430,cs),
(546,430,o),
(525,328,o),
(525,300,c),
(525,272,o),
(546,250,o),
(574,250,cs)
);
},
{
closed = 1;
nodes = (
(602,90,o),
(625,192,o),
(625,220,cs),
(625,248,o),
(602,270,o),
(574,270,cs),
(546,270,o),
(525,248,o),
(525,220,cs),
(525,192,o),
(548,90,o),
(575,90,cs)
);
},
{
closed = 1;
nodes = (
(602,90,o),
(625,112,o),
(625,140,cs),
(625,168,o),
(602,270,o),
(574,270,cs),
(546,270,o),
(525,168,o),
(525,140,cs),
(525,112,o),
(548,90,o),
(574,90,cs)
);
},
{
closed = 1;
nodes = (
(602,250,o),
(625,352,o),
(625,380,cs),
(625,408,o),
(602,430,o),
(574,430,cs),
(546,430,o),
(525,408,o),
(525,380,cs),
(525,352,o),
(546,250,o),
(574,250,cs)
);
},
{
closed = 1;
nodes = (
(601,410,o),
(624,432,o),
(624,460,c),
(624,488,o),
(602,590,o),
(574,590,cs),
(546,590,o),
(524,488,o),
(524,460,cs),
(524,432,o),
(545,410,o),
(573,410,cs)
);
},
{
closed = 1;
nodes = (
(305,285,o),
(330,310,o),
(330,340,c),
(330,370,o),
(305,395,o),
(275,395,c),
(245,395,o),
(145,370,o),
(145,340,c),
(145,310,o),
(245,285,o),
(275,285,c)
);
},
{
closed = 1;
nodes = (
(455,285,o),
(555,310,o),
(555,340,c),
(555,370,o),
(455,395,o),
(425,395,c),
(395,395,o),
(370,370,o),
(370,340,c),
(370,310,o),
(395,285,o),
(425,285,c)
);
},
{
closed = 1;
nodes = (
(230,570,o),
(255,595,o),
(255,625,c),
(255,655,o),
(230,680,o),
(200,680,c),
(170,680,o),
(71,655,o),
(71,625,c),
(71,595,o),
(170,570,o),
(200,570,c)
);
},
{
closed = 1;
nodes = (
(156,570,o),
(255,595,o),
(255,625,c),
(255,655,o),
(156,680,o),
(126,680,c),
(96,680,o),
(71,655,o),
(71,625,c),
(71,595,o),
(96,570,o),
(126,570,c)
);
},
{
closed = 1;
nodes = (
(155,410,o),
(175,512,o),
(175,540,cs),
(175,568,o),
(154,590,o),
(126,590,cs),
(98,590,o),
(75,568,o),
(75,540,cs),
(75,512,o),
(99,410,o),
(127,410,cs)
);
},
{
closed = 1;
nodes = (
(154,250,o),
(175,272,o),
(175,300,c),
(175,328,o),
(154,430,o),
(126,430,cs),
(98,430,o),
(75,328,o),
(75,300,cs),
(75,272,o),
(98,250,o),
(126,250,cs)
);
},
{
closed = 1;
nodes = (
(152,90,o),
(175,192,o),
(175,220,cs),
(175,248,o),
(154,270,o),
(126,270,cs),
(98,270,o),
(75,248,o),
(75,220,cs),
(75,192,o),
(98,90,o),
(125,90,cs)
);
},
{
closed = 1;
nodes = (
(152,90,o),
(175,112,o),
(175,140,cs),
(175,168,o),
(154,270,o),
(126,270,cs),
(98,270,o),
(75,168,o),
(75,140,cs),
(75,112,o),
(98,90,o),
(126,90,cs)
);
},
{
closed = 1;
nodes = (
(154,250,o),
(175,352,o),
(175,380,cs),
(175,408,o),
(154,430,o),
(126,430,cs),
(98,430,o),
(75,408,o),
(75,380,cs),
(75,352,o),
(98,250,o),
(126,250,cs)
);
},
{
closed = 1;
nodes = (
(155,410,o),
(176,432,o),
(176,460,cs),
(176,488,o),
(154,590,o),
(126,590,cs),
(98,590,o),
(76,488,o),
(76,460,c),
(76,432,o),
(99,410,o),
(127,410,cs)
);
},
{
closed = 1;
nodes = (
(235,0,o),
(260,25,o),
(260,55,c),
(260,85,o),
(235,110,o),
(205,110,c),
(175,110,o),
(76,85,o),
(76,55,c),
(76,25,o),
(175,0,o),
(205,0,c)
);
},
{
closed = 1;
nodes = (
(161,0,o),
(260,25,o),
(260,55,c),
(260,85,o),
(161,110,o),
(131,110,c),
(101,110,o),
(76,85,o),
(76,55,c),
(76,25,o),
(101,0,o),
(131,0,c)
);
},
{
closed = 1;
nodes = (
(605,0,o),
(630,25,o),
(630,55,c),
(630,85,o),
(605,110,o),
(575,110,c),
(545,110,o),
(446,85,o),
(446,55,c),
(446,25,o),
(545,0,o),
(575,0,c)
);
},
{
closed = 1;
nodes = (
(531,0,o),
(630,25,o),
(630,55,c),
(630,85,o),
(531,110,o),
(501,110,c),
(471,110,o),
(446,85,o),
(446,55,c),
(446,25,o),
(471,0,o),
(501,0,c)
);
},
{
closed = 1;
nodes = (
(380,285,o),
(405,310,o),
(405,340,c),
(405,370,o),
(380,395,o),
(350,395,c),
(320,395,o),
(295,370,o),
(295,340,c),
(295,310,o),
(320,285,o),
(350,285,c)
);
}
);
width = 700;
}
);
unicode = 72;
},
{
glyphname = I;
lastChange = "2020-12-30 09:58:02 +0000";
layers = (
{
layerId = "C8365536-00F6-4CBD-B31D-2172D190A829";
shapes = (
{
closed = 1;
nodes = (
(455,0,o),
(555,25,o),
(555,55,c),
(555,85,o),
(455,110,o),
(425,110,c),
(395,110,o),
(370,85,o),
(370,55,c),
(370,25,o),
(395,0,o),
(425,0,c)
);
},
{
closed = 1;
nodes = (
(455,570,o),
(555,595,o),
(555,625,c),
(555,655,o),
(455,680,o),
(425,680,c),
(395,680,o),
(370,655,o),
(370,625,c),
(370,595,o),
(395,570,o),
(425,570,c)
);
},
{
closed = 1;
nodes = (
(381,570,o),
(406,595,o),
(406,625,c),
(406,655,o),
(381,680,o),
(351,680,c),
(321,680,o),
(296,655,o),
(296,625,c),
(296,595,o),
(321,570,o),
(351,570,c)
);
},
{
closed = 1;
nodes = (
(305,0,o),
(330,25,o),
(330,55,c),
(330,85,o),
(305,110,o),
(275,110,c),
(245,110,o),
(145,85,o),
(145,55,c),
(145,25,o),
(245,0,o),
(275,0,c)
);
},
{
closed = 1;
nodes = (
(305,570,o),
(330,595,o),
(330,625,c),
(330,655,o),
(305,680,o),
(275,680,c),
(245,680,o),
(145,655,o),
(145,625,c),
(145,595,o),
(245,570,o),
(275,570,c)
);
},
{
closed = 1;
nodes = (
(382,0,o),
(405,24,o),
(405,55,cs),
(405,86,o),
(382,110,o),
(351,110,cs),
(320,110,o),
(295,86,o),
(295,55,cs),
(295,24,o),
(320,0,o),
(351,0,cs)
);
},
{
closed = 1;
nodes = (
(380,410,o),
(400,512,o),
(400,540,cs),
(400,568,o),
(379,590,o),
(351,590,cs),
(323,590,o),
(300,568,o),
(300,540,cs),
(300,512,o),
(324,410,o),
(352,410,cs)
);
},
{
closed = 1;
nodes = (
(379,250,o),
(400,272,o),
(400,300,c),
(400,328,o),
(379,430,o),
(351,430,cs),
(323,430,o),
(300,328,o),
(300,300,cs),
(300,272,o),
(323,250,o),
(351,250,cs)
);
},
{
closed = 1;
nodes = (
(379,90,o),
(400,192,o),
(400,220,cs),
(400,248,o),
(379,270,o),
(351,270,cs),
(323,270,o),
(300,248,o),
(300,220,cs),
(300,192,o),
(323,90,o),
(351,90,cs)
);
},
{
closed = 1;
nodes = (
(377,90,o),
(400,112,o),
(400,140,cs),
(400,168,o),
(379,270,o),
(351,270,cs),
(323,270,o),
(300,168,o),
(300,140,cs),
(300,112,o),
(323,90,o),
(351,90,cs)
);
},
{
closed = 1;
nodes = (
(379,250,o),
(400,352,o),
(400,380,cs),
(400,408,o),
(379,430,o),
(351,430,cs),
(323,430,o),
(300,408,o),
(300,380,cs),
(300,352,o),
(323,250,o),
(351,250,cs)
);
},
{
closed = 1;
nodes = (
(380,410,o),
(401,432,o),
(401,460,cs),
(401,488,o),
(379,590,o),
(351,590,cs),
(323,590,o),
(301,488,o),
(301,460,c),
(301,432,o),
(324,410,o),
(352,410,cs)
);
},
{
closed = 1;
nodes = (
(530,0,o),
(555,25,o),
(555,55,c),
(555,85,o),
(530,110,o),
(500,110,c),
(470,110,o),
(370,85,o),
(370,55,c),
(370,25,o),
(470,0,o),
(500,0,c)
);
},
{
closed = 1;
nodes = (
(230,0,o),
(330,25,o),
(330,55,c),
(330,85,o),
(230,110,o),
(200,110,c),
(170,110,o),
(145,85,o),
(145,55,c),
(145,25,o),
(170,0,o),
(200,0,c)
);
},
{
closed = 1;
nodes = (
(230,570,o),
(330,595,o),
(330,625,c),
(330,655,o),
(230,680,o),
(200,680,c),
(170,680,o),
(145,655,o),
(145,625,c),
(145,595,o),
(170,570,o),
(200,570,c)
);
},
{
closed = 1;
nodes = (
(530,570,o),
(555,595,o),
(555,625,c),
(555,655,o),
(530,680,o),
(500,680,c),
(470,680,o),
(370,655,o),
(370,625,c),
(370,595,o),
(470,570,o),
(500,570,c)
);
}
);
width = 700;
}
);
unicode = 73;
},
{
glyphname = J;
lastChange = "2020-12-30 13:23:34 +0000";
layers = (
{
guides = (
{
pos = (472,90);
}
);
layerId = "C8365536-00F6-4CBD-B31D-2172D190A829";
shapes = (
{
closed = 1;
nodes = (
(576,570,o),
(601,595,o),
(601,625,c),
(601,655,o),
(576,680,o),
(546,680,c),
(516,680,o),
(417,655,o),
(417,625,c),
(417,595,o),
(516,570,o),
(546,570,c)
);
},
{
closed = 1;
nodes = (
(502,570,o),
(601,595,o),
(601,625,c),
(601,655,o),
(502,680,o),
(472,680,c),
(442,680,o),
(417,655,o),
(417,625,c),
(417,595,o),
(442,570,o),
(472,570,c)
);
},
{
closed = 1;
nodes = (
(426,0,o),
(526,25,o),
(526,55,c),
(526,85,o),
(426,110,o),
(396,110,c),
(366,110,o),
(341,85,o),
(341,55,c),
(341,25,o),
(366,0,o),
(396,0,c)
);
},
{
closed = 1;
nodes = (
(426,570,o),
(451,595,o),
(451,625,c),
(451,655,o),
(426,680,o),
(396,680,c),
(366,680,o),
(266,655,o),
(266,625,c),
(266,595,o),
(366,570,o),
(396,570,c)
);
},
{
closed = 1;
nodes = (
(503,0,o),
(526,24,o),
(526,55,cs),
(526,86,o),
(503,110,o),
(472,110,cs),
(441,110,o),
(341,86,o),
(341,55,cs),
(341,24,o),
(441,0,o),
(472,0,cs)
);
},
{
closed = 1;
nodes = (
(501,410,o),
(521,512,o),
(521,540,cs),
(521,568,o),
(500,590,o),
(472,590,cs),
(444,590,o),
(421,568,o),
(421,540,cs),
(421,512,o),
(445,410,o),
(473,410,cs)
);
},
{
closed = 1;
nodes = (
(500,250,o),
(521,272,o),
(521,300,c),
(521,328,o),
(500,430,o),
(472,430,cs),
(444,430,o),
(421,328,o),
(421,300,cs),
(421,272,o),
(444,250,o),
(472,250,cs)
);
},
{
closed = 1;
nodes = (
(500,90,o),
(521,192,o),
(521,220,cs),
(521,248,o),
(500,270,o),
(472,270,cs),
(444,270,o),
(421,248,o),
(421,220,cs),
(421,192,o),
(444,90,o),
(472,90,cs)
);
},
{
closed = 1;
nodes = (
(498,90,o),
(521,112,o),
(521,140,cs),
(521,168,o),
(500,270,o),
(472,270,cs),
(444,270,o),
(421,168,o),
(421,140,cs),
(421,112,o),
(444,90,o),
(472,90,cs)
);
},
{
closed = 1;
nodes = (
(500,250,o),
(521,352,o),
(521,380,cs),
(521,408,o),
(500,430,o),
(472,430,cs),
(444,430,o),
(421,408,o),
(421,380,cs),
(421,352,o),
(444,250,o),
(472,250,cs)
);
},
{
closed = 1;
nodes = (
(501,410,o),
(522,432,o),
(522,460,cs),
(522,488,o),
(500,590,o),
(472,590,cs),
(444,590,o),
(422,488,o),
(422,460,c),
(422,432,o),
(445,410,o),
(473,410,cs)
);
},
{
closed = 1;
nodes = (
(351,0,o),
(376,25,o),
(376,55,c),
(376,85,o),
(351,110,o),
(321,110,c),
(291,110,o),
(191,85,o),
(191,55,c),
(191,25,o),
(291,0,o),
(321,0,c)
);
},
{
closed = 1;
nodes = (
(351,570,o),
(451,595,o),
(451,625,c),
(451,655,o),
(351,680,o),
(321,680,c),
(291,680,o),
(266,655,o),
(266,625,c),
(266,595,o),
(291,570,o),
(321,570,c)
);
},
{
closed = 1;
nodes = (
(276,0,o),
(376,25,o),
(376,55,c),
(376,85,o),
(276,110,o),
(246,110,c),
(216,110,o),
(191,85,o),
(191,55,c),
(191,25,o),
(216,0,o),
(246,0,c)
);
},
{
closed = 1;
nodes = (
(226,90,o),
(249,112,o),
(249,140,cs),
(249,168,o),
(228,270,o),
(200,270,cs),
(172,270,o),
(149,168,o),
(149,140,cs),
(149,112,o),
(172,90,o),
(200,90,cs)
);
},
{
closed = 1;
nodes = (
(226,90,o),
(249,192,o),
(249,220,cs),
(249,248,o),
(228,270,o),
(200,270,cs),
(172,270,o),
(149,248,o),
(149,220,cs),
(149,192,o),
(172,90,o),
(200,90,cs)
);
}
);
width = 700;
}
);
unicode = 74;
},
{
glyphname = K;
lastChange = "2020-12-30 13:32:57 +0000";
layers = (
{
guides = (
{
pos = (139,170);
},
{
pos = (139,250);
},
{
pos = (139,330);
},
{
pos = (139,410);
},
{
pos = (139,490);
},
{
pos = (139,570);
},
{
angle = 90;
pos = (565,55);
},
{
pos = (139,90);
}
);
layerId = "C8365536-00F6-4CBD-B31D-2172D190A829";
shapes = (
{
closed = 1;
nodes = (
(216,570,o),
(239,594,o),
(239,625,cs),
(239,656,o),
(216,680,o),
(185,680,cs),
(154,680,o),
(129,656,o),
(129,625,cs),
(129,594,o),
(154,570,o),
(185,570,cs)
);
},
{
closed = 1;
nodes = (
(216,0,o),
(239,24,o),
(239,55,cs),
(239,86,o),
(216,110,o),
(185,110,cs),
(154,110,o),
(129,86,o),
(129,55,cs),
(129,24,o),
(154,0,o),
(185,0,cs)
);
},
{
closed = 1;
nodes = (
(213,410,o),
(234,512,o),
(234,540,cs),
(234,568,o),
(213,590,o),
(185,590,cs),
(157,590,o),
(134,568,o),
(134,540,cs),
(134,512,o),
(157,410,o),
(185,410,cs)
);
},
{
closed = 1;
nodes = (
(213,250,o),
(234,272,o),
(234,300,cs),
(234,328,o),
(213,430,o),
(185,430,cs),
(157,430,o),
(134,328,o),
(134,300,cs),
(134,272,o),
(157,250,o),
(185,250,cs)
);
},
{
closed = 1;
nodes = (
(213,90,o),
(234,192,o),
(234,220,cs),
(234,248,o),
(213,270,o),
(185,270,cs),
(157,270,o),
(134,248,o),
(134,220,cs),
(134,192,o),
(157,90,o),
(185,90,cs)
);
},
{
closed = 1;
nodes = (
(211,90,o),
(234,112,o),
(234,140,cs),
(234,168,o),
(213,270,o),
(185,270,cs),
(157,270,o),
(134,168,o),
(134,140,cs),
(134,112,o),
(157,90,o),
(185,90,cs)
);
},
{
closed = 1;
nodes = (
(213,250,o),
(234,352,o),
(234,380,cs),
(234,408,o),
(213,430,o),
(185,430,cs),
(157,430,o),
(134,408,o),
(134,380,cs),
(134,352,o),
(157,250,o),
(185,250,cs)
);
},
{
closed = 1;
nodes = (
(213,410,o),
(234,432,o),
(234,460,cs),
(234,488,o),
(213,590,o),
(185,590,cs),
(157,590,o),
(134,488,o),
(134,460,cs),
(134,432,o),
(157,410,o),
(185,410,cs)
);
},
{
closed = 1;
nodes = (
(523,570,o),
(546,594,o),
(546,625,cs),
(546,656,o),
(523,680,o),
(492,680,cs),
(461,680,o),
(436,656,o),
(436,625,cs),
(436,594,o),
(461,570,o),
(492,570,cs)
);
},
{
closed = 1;
nodes = (
(571,0,o),
(594,24,o),
(594,55,cs),
(594,86,o),
(571,110,o),
(540,110,cs),
(509,110,o),
(484,86,o),
(484,55,cs),
(484,24,o),
(509,0,o),
(540,0,cs)
);
},
{
closed = 1;
nodes = (
(257,158,o),
(326,235,o),
(340,260,cs),
(354,284,o),
(347,313,o),
(323,327,cs),
(299,341,o),
(268,334,o),
(254,310,cs),
(240,285,o),
(209,186,o),
(233,172,cs)
);
},
{
closed = 1;
nodes = (
(255,159,o),
(286,166,o),
(300,190,cs),
(314,215,o),
(347,313,o),
(323,327,cs),
(299,341,o),
(228,265,o),
(214,240,cs),
(200,216,o),
(209,186,o),
(233,172,cs)
);
},
{
closed = 1;
nodes = (
(340,298,o),
(409,375,o),
(423,400,cs),
(437,424,o),
(430,453,o),
(406,467,cs),
(382,481,o),
(351,474,o),
(337,450,cs),
(323,425,o),
(292,326,o),
(316,312,cs)
);
},
{
closed = 1;
nodes = (
(338,299,o),
(369,306,o),
(383,330,cs),
(397,355,o),
(430,453,o),
(406,467,cs),
(382,481,o),
(311,405,o),
(297,380,cs),
(283,356,o),
(292,326,o),
(316,312,cs)
);
},
{
closed = 1;
nodes = (
(420,437,o),
(489,514,o),
(503,539,cs),
(517,563,o),
(510,592,o),
(486,606,cs),
(462,620,o),
(431,613,o),
(417,589,cs),
(403,564,o),
(372,465,o),
(396,451,cs)
);
},
{
closed = 1;
nodes = (
(418,438,o),
(449,445,o),
(463,469,cs),
(477,494,o),
(510,592,o),
(486,606,cs),
(462,620,o),
(391,544,o),
(377,519,cs),
(363,495,o),
(372,465,o),
(396,451,cs)
);
},
{
closed = 1;
nodes = (
(352,346,o),
(383,247,o),
(397,222,cs),
(411,198,o),
(442,191,o),
(466,205,cs),
(490,219,o),
(497,248,o),
(483,272,cs),
(469,297,o),
(400,374,o),
(376,360,cs)
);
},
{
closed = 1;
nodes = (
(352,346,o),
(343,316,o),
(357,292,cs),
(371,267,o),
(442,191,o),
(466,205,cs),
(490,219,o),
(457,317,o),
(443,342,cs),
(429,366,o),
(398,373,o),
(376,360,cs)
);
},
{
closed = 1;
nodes = (
(425,213,o),
(456,114,o),
(470,89,cs),
(484,65,o),
(515,58,o),
(539,72,cs),
(563,86,o),
(570,115,o),
(556,139,cs),
(542,164,o),
(473,241,o),
(449,227,cs)
);
},
{
closed = 1;
nodes = (
(425,213,o),
(416,183,o),
(430,159,cs),
(444,134,o),
(515,58,o),
(539,72,cs),
(563,86,o),
(530,184,o),
(516,209,cs),
(502,233,o),
(471,240,o),
(449,227,cs)
);
}
);
width = 700;
}
);
unicode = 75;
},
{
glyphname = L;
lastChange = "2020-12-30 13:36:28 +0000";
layers = (
{
layerId = "C8365536-00F6-4CBD-B31D-2172D190A829";
shapes = (
{
closed = 1;
nodes = (
(197,570,o),
(295,594,o),
(295,625,cs),
(295,656,o),
(197,680,o),
(166,680,cs),
(135,680,o),
(110,656,o),
(110,625,cs),
(110,594,o),
(135,570,o),
(166,570,cs)
);
},
{
closed = 1;
nodes = (
(497,0,o),
(595,24,o),
(595,55,cs),
(595,86,o),
(497,110,o),
(466,110,cs),
(435,110,o),
(410,86,o),
(410,55,cs),
(410,24,o),
(435,0,o),
(466,0,cs)
);
},
{
closed = 1;
nodes = (
(572,0,o),
(595,24,o),
(595,55,cs),
(595,86,o),
(572,110,o),
(541,110,cs),
(510,110,o),
(410,86,o),
(410,55,cs),
(410,24,o),
(510,0,o),
(541,0,cs)
);
},
{
closed = 1;
nodes = (
(197,0,o),
(295,24,o),
(295,55,cs),
(295,86,o),
(197,110,o),
(166,110,cs),
(135,110,o),
(110,86,o),
(110,55,cs),
(110,24,o),
(135,0,o),
(166,0,cs)
);
},
{
closed = 1;
nodes = (
(272,0,o),
(295,24,o),
(295,55,cs),
(295,86,o),
(272,110,o),
(241,110,cs),
(210,110,o),
(110,86,o),
(110,55,c),
(110,24,o),
(210,0,o),
(241,0,cs)
);
},
{
closed = 1;
nodes = (
(347,0,o),
(445,24,o),
(445,55,cs),
(445,86,o),
(347,110,o),
(316,110,cs),
(285,110,o),
(260,86,o),
(260,55,cs),
(260,24,o),
(285,0,o),
(316,0,cs)
);
},
{
closed = 1;
nodes = (
(422,0,o),
(445,24,o),
(445,55,cs),
(445,86,o),
(422,110,o),
(391,110,cs),
(360,110,o),
(260,86,o),
(260,55,cs),
(260,24,o),
(360,0,o),
(391,0,cs)
);
},
{
closed = 1;
nodes = (
(194,490,o),
(215,512,o),
(215,540,cs),
(215,568,o),
(194,590,o),
(166,590,cs),
(138,590,o),
(115,568,o),
(115,540,cs),
(115,512,o),
(138,490,o),
(166,490,cs)
);
},
{
closed = 1;
nodes = (
(194,250,o),
(215,272,o),
(215,300,c),
(215,328,o),
(194,350,o),
(166,350,cs),
(138,350,o),
(115,328,o),
(115,300,cs),
(115,272,o),
(138,250,o),
(166,250,cs)
);
},
{
closed = 1;
nodes = (
(272,570,o),
(295,594,o),
(295,625,cs),
(295,656,o),
(272,680,o),
(241,680,cs),
(210,680,o),
(110,656,o),
(110,625,c),
(110,594,o),
(210,570,o),
(241,570,cs)
);
},
{
closed = 1;
nodes = (
(569,0,o),
(590,112,o),
(590,140,cs),
(590,168,o),
(569,190,o),
(541,190,cs),
(513,190,o),
(490,168,o),
(490,140,cs),
(490,112,o),
(513,0,o),
(541,0,cs)
);
},
{
closed = 1;
nodes = (
(166,85,o),
(220,174,o),
(230,200,cs),
(240,227,o),
(227,255,o),
(201,264,cs),
(174,273,o),
(145,261,o),
(136,235,cs),
(127,208,o),
(113,105,o),
(139,95,cs)
);
},
{
closed = 1;
nodes = (
(164,85,o),
(193,99,o),
(202,125,cs),
(211,152,o),
(227,255,o),
(201,264,cs),
(174,273,o),
(118,186,o),
(108,159,cs),
(98,133,o),
(113,105,o),
(139,95,cs)
);
},
{
closed = 1;
nodes = (
(183,330,o),
(237,419,o),
(247,445,cs),
(257,472,o),
(244,500,o),
(218,509,cs),
(191,518,o),
(162,506,o),
(153,480,cs),
(144,453,o),
(130,350,o),
(156,340,cs)
);
},
{
closed = 1;
nodes = (
(181,330,o),
(210,344,o),
(219,370,cs),
(228,397,o),
(244,500,o),
(218,509,cs),
(191,518,o),
(135,431,o),
(125,404,cs),
(115,378,o),
(130,350,o),
(156,340,cs)
);
}
);
width = 700;
}
);
unicode = 76;
},
{
color = 3;
glyphname = Lslash;
lastChange = "2023-06-12 14:05:46 +0000";
layers = (
{
layerId = "C8365536-00F6-4CBD-B31D-2172D190A829";
shapes = (
{
closed = 1;
nodes = (
(138,253,o),
(167,246,o),
(191,260,cs),
(216,274,o),
(224,303,o),
(210,327,cs),
(196,351,o),
(166,360,o),
(141,346,cs),
(117,332,o),
(110,301,o),
(124,277,cs)
);
},
{
closed = 1;
nodes = (
(67,215,o),
(98,206,o),
(122,220,cs),
(146,234,o),
(224,303,o),
(210,327,cs),
(196,351,o),
(96,320,o),
(72,306,cs),
(48,292,o),
(40,261,o),
(54,237,cs)
);
},
{
closed = 1;
nodes = (
(207,293,o),
(236,286,o),
(261,300,cs),
(285,314,o),
(293,343,o),
(279,367,cs),
(265,391,o),
(235,400,o),
(211,386,cs),
(186,372,o),
(179,341,o),
(193,317,cs)
);
},
{
closed = 1;
nodes = (
(335,431,o),
(304,440,o),
(280,426,c),
(256,412,o),
(179,341,o),
(193,317,c),
(207,293,o),
(306,326,o),
(330,340,cs),
(354,354,o),
(362,385,o),
(349,407,c)
);
},
{
ref = L;
}
);
width = 700;
}
);
unicode = 321;
},
{
glyphname = M;
lastChange = "2023-07-27 19:48:26 +0000";
layers = (
{
guides = (
{
pos = (413,490);
},
{
pos = (93,430);
}
);
layerId = "C8365536-00F6-4CBD-B31D-2172D190A829";
shapes = (
{
closed = 1;
nodes = (
(230,570,o),
(255,595,o),
(255,625,c),
(255,655,o),
(230,680,o),
(200,680,c),
(170,680,o),
(71,655,o),
(71,625,c),
(71,595,o),
(170,570,o),
(200,570,c)
);
},
{
closed = 1;
nodes = (
(156,570,o),
(255,595,o),
(255,625,c),
(255,655,o),
(156,680,o),
(126,680,c),
(96,680,o),
(71,655,o),
(71,625,c),
(71,595,o),
(96,570,o),
(126,570,c)
);
},
{
closed = 1;
nodes = (
(157,0,o),
(255,24,o),
(255,55,cs),
(255,86,o),
(157,110,o),
(126,110,cs),
(95,110,o),
(70,86,o),
(70,55,cs),
(70,24,o),
(95,0,o),
(126,0,cs)
);
},
{
closed = 1;
nodes = (
(155,410,o),
(175,512,o),
(175,540,cs),
(175,568,o),
(154,590,o),
(126,590,cs),
(98,590,o),
(75,568,o),
(75,540,cs),
(75,512,o),
(99,410,o),
(127,410,cs)
);
},
{
closed = 1;
nodes = (
(154,250,o),
(175,272,o),
(175,300,c),
(175,328,o),
(154,430,o),
(126,430,cs),
(98,430,o),
(75,328,o),
(75,300,cs),
(75,272,o),
(98,250,o),
(126,250,cs)
);
},
{
closed = 1;
nodes = (
(154,90,o),
(175,192,o),
(175,220,cs),
(175,248,o),
(154,270,o),
(126,270,cs),
(98,270,o),
(75,248,o),
(75,220,cs),
(75,192,o),
(98,90,o),
(126,90,cs)
);
},
{
closed = 1;
nodes = (
(152,90,o),
(175,112,o),
(175,140,cs),
(175,168,o),
(154,270,o),
(126,270,cs),
(98,270,o),
(75,168,o),
(75,140,cs),
(75,112,o),
(98,90,o),
(126,90,cs)
);
},
{
closed = 1;
nodes = (
(154,250,o),
(175,352,o),
(175,380,cs),
(175,408,o),
(154,430,o),
(126,430,cs),
(98,430,o),
(75,408,o),
(75,380,cs),
(75,352,o),
(98,250,o),
(126,250,cs)
);
},
{
closed = 1;
nodes = (
(155,410,o),
(176,432,o),
(176,460,cs),
(176,488,o),
(154,590,o),
(126,590,cs),
(98,590,o),
(76,488,o),
(76,460,c),
(76,432,o),
(99,410,o),
(127,410,cs)
);
},
{
closed = 1;
nodes = (
(529,570,o),
(628,595,o),
(628,625,c),
(628,655,o),
(529,680,o),
(499,680,c),
(469,680,o),
(444,655,o),
(444,625,c),
(444,595,o),
(469,570,o),
(499,570,c)
);
},
{
closed = 1;
nodes = (
(603,570,o),
(628,595,o),
(628,625,c),
(628,655,o),
(603,680,o),
(573,680,c),
(543,680,o),
(444,655,o),
(444,625,c),
(444,595,o),
(543,570,o),
(573,570,c)
);
},
{
closed = 1;
nodes = (
(600,410,o),
(624,512,o),
(624,540,cs),
(624,568,o),
(601,590,o),
(573,590,cs),
(545,590,o),
(524,568,o),
(524,540,cs),
(524,512,o),
(544,410,o),
(572,410,cs)
);
},
{
closed = 1;
nodes = (
(601,250,o),
(624,272,o),
(624,300,cs),
(624,328,o),
(601,430,o),
(573,430,cs),
(545,430,o),
(524,328,o),
(524,300,c),
(524,272,o),
(545,250,o),
(573,250,cs)
);
},
{
closed = 1;
nodes = (
(601,90,o),
(624,192,o),
(624,220,cs),
(624,248,o),
(601,270,o),
(573,270,cs),
(545,270,o),
(524,248,o),
(524,220,cs),
(524,192,o),
(545,90,o),
(573,90,cs)
);
},
{
closed = 1;
nodes = (
(601,90,o),
(624,112,o),
(624,140,cs),
(624,168,o),
(601,270,o),
(573,270,cs),
(545,270,o),
(524,168,o),
(524,140,c),
(524,112,o),
(547,90,o),
(573,90,cs)
);
},
{
closed = 1;
nodes = (
(601,250,o),
(624,352,o),
(624,380,cs),
(624,408,o),
(601,430,o),
(573,430,cs),
(545,430,o),
(524,408,o),
(524,380,cs),
(524,352,o),
(545,250,o),
(573,250,cs)
);
},
{
closed = 1;
nodes = (
(600,410,o),
(623,432,o),
(623,460,c),
(623,488,o),
(601,581,o),
(573,581,cs),
(545,581,o),
(523,488,o),
(523,460,cs),
(523,432,o),
(544,410,o),
(572,410,cs)
);
},
{
closed = 1;
nodes = (
(232,0,o),
(255,24,o),
(255,55,cs),
(255,86,o),
(232,110,o),
(201,110,cs),
(170,110,o),
(70,86,o),
(70,55,cs),
(70,24,o),
(170,0,o),
(201,0,cs)
);
},
{
closed = 1;
nodes = (
(322,430,o),
(305,533,o),
(297,559,cs),
(288,587,o),
(259,599,o),
(233,590,cs),
(207,581,o),
(192,552,o),
(202,526,cs),
(212,499,o),
(269,412,o),
(295,421,cs)
);
},
{
closed = 1;
nodes = (
(322,430,o),
(335,458,o),
(325,485,cs),
(315,511,o),
(259,599,o),
(233,590,cs),
(207,581,o),
(221,477,o),
(231,451,c),
(240,425,o),
(269,412,o),
(295,421,cs)
);
},
{
closed = 1;
nodes = (
(423,412,o),
(480,499,o),
(490,526,cs),
(500,552,o),
(485,581,o),
(459,590,cs),
(433,599,o),
(404,587,o),
(395,559,cs),
(387,533,o),
(370,430,o),
(397,421,cs)
);
},
{
closed = 1;
nodes = (
(423,412,o),
(452,425,o),
(461,451,c),
(471,477,o),
(485,581,o),
(459,590,cs),
(433,599,o),
(377,511,o),
(367,485,cs),
(357,458,o),
(370,430,o),
(397,421,cs)
);
},
{
closed = 1;
nodes = (
(413,341,o),
(438,366,o),
(438,396,c),
(438,426,o),
(413,451,o),
(383,451,c),
(353,451,o),
(254,426,o),
(254,396,c),
(254,366,o),
(353,341,o),
(383,341,c)
);
},
{
closed = 1;
nodes = (
(339,341,o),
(438,366,o),
(438,396,c),
(438,426,o),
(339,451,o),
(309,451,c),
(279,451,o),
(254,426,o),
(254,396,c),
(254,366,o),
(279,341,o),
(309,341,c)
);
},
{
closed = 1;
nodes = (
(529,0,o),
(627,24,o),
(627,55,cs),
(627,86,o),
(529,110,o),
(498,110,cs),
(467,110,o),
(442,86,o),
(442,55,cs),
(442,24,o),
(467,0,o),
(498,0,cs)
);
},
{
closed = 1;
nodes = (
(604,0,o),
(627,24,o),
(627,55,cs),
(627,86,o),
(604,110,o),
(573,110,cs),
(542,110,o),
(442,86,o),
(442,55,cs),
(442,24,o),
(542,0,o),
(573,0,cs)
);
}
);
width = 700;
}
);
unicode = 77;
},
{
glyphname = N;
lastChange = "2020-12-30 11:51:33 +0000";
layers = (
{
guides = (
{
pos = (550,250);
},
{
pos = (550,90);
}
);
layerId = "C8365536-00F6-4CBD-B31D-2172D190A829";
shapes = (
{
closed = 1;
nodes = (
(255,570,o),
(280,595,o),
(280,625,c),
(280,655,o),
(255,680,o),
(225,680,c),
(195,680,o),
(96,655,o),
(96,625,c),
(96,595,o),
(195,570,o),
(225,570,c)
);
},
{
closed = 1;
nodes = (
(181,570,o),
(280,595,o),
(280,625,c),
(280,655,o),
(181,680,o),
(151,680,c),
(121,680,o),
(96,655,o),
(96,625,c),
(96,595,o),
(121,570,o),
(151,570,c)
);
},
{
closed = 1;
nodes = (
(182,0,o),
(280,24,o),
(280,55,cs),
(280,86,o),
(182,110,o),
(151,110,cs),
(120,110,o),
(95,86,o),
(95,55,cs),
(95,24,o),
(120,0,o),
(151,0,cs)
);
},
{
closed = 1;
nodes = (
(180,410,o),
(200,512,o),
(200,540,cs),
(200,568,o),
(179,590,o),
(151,590,cs),
(123,590,o),
(100,568,o),
(100,540,cs),
(100,512,o),
(124,410,o),
(152,410,cs)
);
},
{
closed = 1;
nodes = (
(179,250,o),
(200,272,o),
(200,300,c),
(200,328,o),
(179,430,o),
(151,430,cs),
(123,430,o),
(100,328,o),
(100,300,cs),
(100,272,o),
(123,250,o),
(151,250,cs)
);
},
{
closed = 1;
nodes = (
(179,90,o),
(200,192,o),
(200,220,cs),
(200,248,o),
(179,270,o),
(151,270,cs),
(123,270,o),
(100,248,o),
(100,220,cs),
(100,192,o),
(123,90,o),
(151,90,cs)
);
},
{
closed = 1;
nodes = (
(177,90,o),
(200,112,o),
(200,140,cs),
(200,168,o),
(179,270,o),
(151,270,cs),
(123,270,o),
(100,168,o),
(100,140,cs),
(100,112,o),
(123,90,o),
(151,90,cs)
);
},
{
closed = 1;
nodes = (
(179,250,o),
(200,352,o),
(200,380,cs),
(200,408,o),
(179,430,o),
(151,430,cs),
(123,430,o),
(100,408,o),
(100,380,cs),
(100,352,o),
(123,250,o),
(151,250,cs)
);
},
{
closed = 1;
nodes = (
(180,410,o),
(201,432,o),
(201,460,cs),
(201,488,o),
(179,590,o),
(151,590,cs),
(123,590,o),
(101,488,o),
(101,460,c),
(101,432,o),
(124,410,o),
(152,410,cs)
);
},
{
closed = 1;
nodes = (
(580,570,o),
(605,595,o),
(605,625,c),
(605,655,o),
(580,680,o),
(550,680,c),
(520,680,o),
(420,655,o),
(420,625,c),
(420,595,o),
(520,570,o),
(550,570,c)
);
},
{
closed = 1;
nodes = (
(581,0,o),
(606,24,o),
(606,55,cs),
(606,86,o),
(581,110,o),
(550,110,cs),
(519,110,o),
(421,86,o),
(421,55,cs),
(421,24,o),
(519,0,o),
(550,0,cs)
);
},
{
closed = 1;
nodes = (
(577,410,o),
(601,512,o),
(601,540,cs),
(601,568,o),
(578,590,o),
(550,590,cs),
(522,590,o),
(501,568,o),
(501,540,cs),
(501,512,o),
(521,410,o),
(549,410,cs)
);
},
{
closed = 1;
nodes = (
(578,250,o),
(601,272,o),
(601,300,cs),
(601,328,o),
(578,430,o),
(550,430,cs),
(522,430,o),
(501,328,o),
(501,300,c),
(501,272,o),
(522,250,o),
(550,250,cs)
);
},
{
closed = 1;
nodes = (
(578,90,o),
(601,192,o),
(601,220,cs),
(601,248,o),
(578,270,o),
(550,270,cs),
(522,270,o),
(501,248,o),
(501,220,cs),
(501,192,o),
(522,90,o),
(550,90,cs)
);
},
{
closed = 1;
nodes = (
(578,90,o),
(601,112,o),
(601,140,cs),
(601,168,o),
(578,270,o),
(550,270,cs),
(522,270,o),
(501,168,o),
(501,140,c),
(501,112,o),
(523,90,o),
(550,90,cs)
);
},
{
closed = 1;
nodes = (
(578,250,o),
(601,352,o),
(601,380,cs),
(601,408,o),
(578,430,o),
(550,430,cs),
(522,430,o),
(501,408,o),
(501,380,cs),
(501,352,o),
(522,250,o),
(550,250,cs)
);
},
{
closed = 1;
nodes = (
(577,410,o),
(600,432,o),
(600,460,c),
(600,488,o),
(578,590,o),
(550,590,cs),
(522,590,o),
(500,488,o),
(500,460,cs),
(500,432,o),
(521,410,o),
(549,410,cs)
);
},
{
closed = 1;
nodes = (
(506,0,o),
(606,24,o),
(606,55,cs),
(606,86,o),
(506,110,o),
(475,110,cs),
(444,110,o),
(421,86,o),
(421,55,cs),
(421,24,o),
(444,0,o),
(475,0,cs)
);
},
{
closed = 1;
nodes = (
(505,570,o),
(605,595,o),
(605,625,c),
(605,655,o),
(505,680,o),
(475,680,c),
(445,680,o),
(420,655,o),
(420,625,c),
(420,595,o),
(445,570,o),
(475,570,c)
);
},
{
closed = 1;
nodes = (
(255,0,o),
(280,24,o),
(280,55,c),
(280,86,o),
(255,110,o),
(225,110,c),
(195,110,o),
(95,86,o),
(95,55,c),
(95,24,o),
(195,0,o),
(225,0,c)
);
},
{
closed = 1;
nodes = (
(356,436,o),
(322,535,o),
(308,559,cs),
(294,582,o),
(262,589,o),
(238,575,cs),
(214,561,o),
(209,530,o),
(223,506,cs),
(237,481,o),
(309,406,o),
(333,421,cs)
);
},
{
closed = 1;
nodes = (
(356,436,o),
(364,467,o),
(350,490,c),
(335,514,o),
(262,589,o),
(238,575,cs),
(214,561,o),
(250,461,o),
(264,437,cs),
(278,414,o),
(309,406,o),
(333,421,cs)
);
},
{
closed = 1;
nodes = (
(404,266,o),
(391,370,o),
(382,396,cs),
(373,422,o),
(343,435,o),
(317,426,cs),
(291,417,o),
(279,388,o),
(288,362,cs),
(297,335,o),
(351,246,o),
(378,256,cs)
);
},
{
closed = 1;
nodes = (
(404,266,o),
(418,294,o),
(409,320,c),
(399,347,o),
(343,435,o),
(317,426,cs),
(291,417,o),
(305,312,o),
(314,286,cs),
(323,260,o),
(351,246,o),
(378,256,cs)
);
},
{
closed = 1;
nodes = (
(471,105,o),
(458,209,o),
(449,235,cs),
(440,261,o),
(410,274,o),
(384,265,cs),
(358,256,o),
(346,227,o),
(355,201,cs),
(364,174,o),
(418,85,o),
(445,95,cs)
);
},
{
closed = 1;
nodes = (
(471,105,o),
(485,133,o),
(476,159,c),
(466,186,o),
(410,274,o),
(384,265,cs),
(358,256,o),
(372,151,o),
(381,125,cs),
(390,99,o),
(418,85,o),
(445,95,cs)
);
}
);
width = 700;
}
);
unicode = 78;
},
{
glyphname = O;
lastChange = "2020-12-30 10:09:18 +0000";
layers = (
{
layerId = "C8365536-00F6-4CBD-B31D-2172D190A829";
shapes = (
{
closed = 1;
nodes = (
(345,570,o),
(445,595,o),
(445,625,c),
(445,655,o),
(345,680,o),
(315,680,c),
(285,680,o),
(260,655,o),
(260,625,c),
(260,595,o),
(285,570,o),
(315,570,c)
);
},
{
closed = 1;
nodes = (
(160,207,o),
(182,309,o),
(182,337,c),
(182,365,o),
(160,387,o),
(132,387,c),
(104,387,o),
(82,365,o),
(82,337,c),
(82,309,o),
(104,207,o),
(132,207,c)
);
},
{
closed = 1;
nodes = (
(160,207,o),
(182,229,o),
(182,257,c),
(182,285,o),
(160,387,o),
(132,387,c),
(104,387,o),
(82,285,o),
(82,257,c),
(82,229,o),
(104,207,o),
(132,207,c)
);
},
{
closed = 1;
nodes = (
(160,367,o),
(182,389,o),
(182,417,c),
(182,445,o),
(160,547,o),
(132,547,c),
(104,547,o),
(82,445,o),
(82,417,c),
(82,389,o),
(104,367,o),
(132,367,c)
);
},
{
closed = 1;
nodes = (
(286,110,o),
(261,85,o),
(261,55,c),
(261,25,o),
(286,0,o),
(316,0,c),
(346,0,o),
(446,25,o),
(446,55,c),
(446,85,o),
(346,110,o),
(316,110,c)
);
},
{
closed = 1;
nodes = (
(104,547,o),
(82,525,o),
(82,497,c),
(82,469,o),
(104,367,o),
(132,367,c),
(160,367,o),
(182,469,o),
(182,497,c),
(182,525,o),
(160,547,o),
(132,547,c)
);
},
{
closed = 1;
nodes = (
(160,127,o),
(182,149,o),
(182,177,c),
(182,205,o),
(160,227,o),
(132,227,c),
(104,227,o),
(82,205,o),
(82,177,c),
(82,149,o),
(104,127,o),
(132,127,c)
);
},
{
closed = 1;
nodes = (
(420,570,o),
(445,595,o),
(445,625,c),
(445,655,o),
(420,680,o),
(390,680,c),
(360,680,o),
(260,655,o),
(260,625,c),
(260,595,o),
(360,570,o),
(390,570,c)
);
},
{
closed = 1;
nodes = (
(361,110,o),
(261,85,o),
(261,55,c),
(261,25,o),
(361,0,o),
(391,0,c),
(421,0,o),
(446,25,o),
(446,55,c),
(446,85,o),
(421,110,o),
(391,110,c)
);
},
{
closed = 1;
nodes = (
(339,123,o),
(275,206,o),
(255,224,cs),
(234,243,o),
(201,239,o),
(183,218,cs),
(165,197,o),
(169,166,o),
(190,148,cs),
(212,130,o),
(303,79,o),
(321,101,cs)
);
},
{
closed = 1;
nodes = (
(339,123,o),
(337,154,o),
(316,172,c),
(294,190,o),
(201,239,o),
(183,218,cs),
(165,197,o),
(230,114,o),
(251,95,cs),
(271,77,o),
(303,79,o),
(321,101,cs)
);
},
{
closed = 1;
nodes = (
(261,633,o),
(170,582,o),
(148,564,cs),
(127,546,o),
(123,515,o),
(141,494,cs),
(159,473,o),
(192,469,o),
(213,488,cs),
(233,506,o),
(297,589,o),
(279,611,cs)
);
},
{
closed = 1;
nodes = (
(261,633,o),
(229,635,o),
(209,617,cs),
(188,598,o),
(123,515,o),
(141,494,cs),
(159,473,o),
(252,522,o),
(274,540,c),
(295,558,o),
(297,589,o),
(279,611,cs)
);
},
{
closed = 1;
nodes = (
(596,207,o),
(618,309,o),
(618,337,c),
(618,365,o),
(596,387,o),
(568,387,c),
(540,387,o),
(518,365,o),
(518,337,c),
(518,309,o),
(540,207,o),
(568,207,c)
);
},
{
closed = 1;
nodes = (
(596,207,o),
(618,229,o),
(618,257,c),
(618,285,o),
(596,387,o),
(568,387,c),
(540,387,o),
(518,285,o),
(518,257,c),
(518,229,o),
(540,207,o),
(568,207,c)
);
},
{
closed = 1;
nodes = (
(596,367,o),
(618,389,o),
(618,417,c),
(618,445,o),
(596,547,o),
(568,547,c),
(540,547,o),
(518,445,o),
(518,417,c),
(518,389,o),
(540,367,o),
(568,367,c)
);
},
{
closed = 1;
nodes = (
(540,547,o),
(518,525,o),
(518,497,c),
(518,469,o),
(540,367,o),
(568,367,c),
(596,367,o),
(618,469,o),
(618,497,c),
(618,525,o),
(596,547,o),
(568,547,c)
);
},
{
closed = 1;
nodes = (
(596,127,o),
(618,149,o),
(618,177,c),
(618,205,o),
(596,227,o),
(568,227,c),
(540,227,o),
(518,205,o),
(518,177,c),
(518,149,o),
(540,127,o),
(568,127,c)
);
},
{
closed = 1;
nodes = (
(397,79,o),
(488,130,o),
(510,148,cs),
(531,166,o),
(535,197,o),
(517,218,cs),
(499,239,o),
(466,243,o),
(445,224,cs),
(425,206,o),
(361,123,o),
(379,101,cs)
);
},
{
closed = 1;
nodes = (
(397,79,o),
(429,77,o),
(449,95,cs),
(470,114,o),
(535,197,o),
(517,218,cs),
(499,239,o),
(406,190,o),
(384,172,c),
(363,154,o),
(361,123,o),
(379,101,cs)
);
},
{
closed = 1;
nodes = (
(404,589,o),
(468,506,o),
(488,488,cs),
(509,469,o),
(542,473,o),
(560,494,cs),
(578,515,o),
(574,546,o),
(553,564,cs),
(531,582,o),
(440,633,o),
(422,611,cs)
);
},
{
closed = 1;
nodes = (
(404,589,o),
(406,558,o),
(427,540,c),
(449,522,o),
(542,473,o),
(560,494,cs),
(578,515,o),
(513,598,o),
(492,617,cs),
(472,635,o),
(440,633,o),
(422,611,cs)
);
}
);
width = 700;
}
);
unicode = 79;
},
{
glyphname = Oslash;
lastChange = "2020-12-30 10:17:00 +0000";
layers = (
{
layerId = "C8365536-00F6-4CBD-B31D-2172D190A829";
shapes = (
{
closed = 1;
nodes = (
(470,463,o),
(543,538,o),
(558,562,cs),
(573,585,o),
(566,617,o),
(541,632,cs),
(518,646,o),
(488,639,o),
(473,615,cs),
(458,591,o),
(422,493,o),
(446,478,cs)
);
},
{
closed = 1;
nodes = (
(385,329,o),
(416,334,o),
(431,359,cs),
(445,383,o),
(480,480,o),
(457,495,cs),
(433,511,o),
(361,435,o),
(346,412,c),
(331,388,o),
(338,357,o),
(361,343,cs)
);
},
{
closed = 1;
nodes = (
(301,192,o),
(375,266,o),
(389,290,cs),
(403,315,o),
(396,346,o),
(372,360,cs),
(349,374,o),
(319,367,o),
(304,344,cs),
(288,320,o),
(253,223,o),
(276,208,cs)
);
},
{
closed = 1;
nodes = (
(301,192,o),
(331,199,o),
(346,223,cs),
(361,247,o),
(396,346,o),
(372,360,cs),
(349,374,o),
(275,300,o),
(261,276,cs),
(247,252,o),
(253,223,o),
(276,208,cs)
);
},
{
closed = 1;
nodes = (
(385,329,o),
(458,403,o),
(473,427,cs),
(488,450,o),
(480,480,o),
(457,495,cs),
(433,511,o),
(402,503,o),
(388,479,cs),
(374,456,o),
(338,357,o),
(361,343,cs)
);
},
{
closed = 1;
nodes = (
(470,463,o),
(501,471,o),
(516,494,c),
(530,518,o),
(566,617,o),
(541,632,cs),
(518,646,o),
(447,571,o),
(431,547,cs),
(416,524,o),
(422,493,o),
(446,478,cs)
);
},
{
closed = 1;
nodes = (
(216,56,o),
(289,131,o),
(304,155,cs),
(319,178,o),
(311,211,o),
(287,225,cs),
(264,239,o),
(234,232,o),
(219,208,cs),
(204,184,o),
(168,86,o),
(192,71,cs)
);
},
{
closed = 1;
nodes = (
(216,56,o),
(248,63,o),
(262,87,cs),
(276,111,o),
(311,211,o),
(287,225,cs),
(264,239,o),
(192,163,o),
(177,140,cs),
(162,116,o),
(168,86,o),
(192,71,cs)
);
},
{
closed = 1;
nodes = (
(589,607,o),
(614,632,o),
(614,662,cs),
(614,692,o),
(589,717,o),
(559,717,cs),
(529,717,o),
(504,692,o),
(504,662,cs),
(504,632,o),
(529,607,o),
(559,607,cs)
);
},
{
closed = 1;
nodes = (
(203,-13,o),
(228,12,o),
(228,42,cs),
(228,72,o),
(203,97,o),
(173,97,cs),
(143,97,o),
(118,72,o),
(118,42,cs),
(118,12,o),
(143,-13,o),
(173,-13,cs)
);
},
{
ref = O;
}
);
width = 700;
}
);
unicode = 216;
},
{
glyphname = OE;
lastChange = "2020-12-30 14:17:10 +0000";
layers = (
{
layerId = "C8365536-00F6-4CBD-B31D-2172D190A829";
shapes = (
{
closed = 0;
nodes = (
(337,55,l)
);
},
{
closed = 1;
nodes = (
(424,0,o),
(522,24,o),
(522,55,cs),
(522,86,o),
(424,110,o),
(393,110,cs),
(362,110,o),
(337,86,o),
(337,55,cs),
(337,24,o),
(362,0,o),
(393,0,cs)
);
},
{
closed = 1;
nodes = (
(499,0,o),
(522,24,o),
(522,55,cs),
(522,86,o),
(499,110,o),
(468,110,cs),
(437,110,o),
(337,86,o),
(337,55,c),
(337,24,o),
(437,0,o),
(468,0,cs)
);
},
{
closed = 1;
nodes = (
(423,0,o),
(523,25,o),
(523,55,c),
(523,85,o),
(423,110,o),
(393,110,c),
(363,110,o),
(338,85,o),
(338,55,c),
(338,25,o),
(363,0,o),
(393,0,c)
);
},
{
closed = 1;
nodes = (
(391,85,o),
(420,99,o),
(429,125,cs),
(438,152,o),
(454,255,o),
(428,264,cs),
(401,273,o),
(345,186,o),
(335,159,cs),
(325,133,o),
(340,105,o),
(366,95,cs)
);
},
{
closed = 1;
nodes = (
(393,85,o),
(447,174,o),
(457,200,cs),
(467,227,o),
(454,255,o),
(428,264,cs),
(401,273,o),
(372,261,o),
(363,235,cs),
(354,208,o),
(340,105,o),
(366,95,cs)
);
},
{
closed = 1;
nodes = (
(574,0,o),
(672,24,o),
(672,55,cs),
(672,86,o),
(574,110,o),
(543,110,cs),
(512,110,o),
(487,86,o),
(487,55,cs),
(487,24,o),
(512,0,o),
(543,0,cs)
);
},
{
closed = 1;
nodes = (
(649,0,o),
(672,24,o),
(672,55,cs),
(672,86,o),
(649,110,o),
(618,110,cs),
(587,110,o),
(487,86,o),
(487,55,cs),
(487,24,o),
(587,0,o),
(618,0,cs)
);
},
{
closed = 0;
nodes = (
(337,339,l)
);
},
{
closed = 1;
nodes = (
(421,250,o),
(442,272,o),
(442,300,c),
(442,328,o),
(421,350,o),
(393,350,cs),
(365,350,o),
(342,328,o),
(342,300,cs),
(342,272,o),
(365,250,o),
(393,250,cs)
);
},
{
closed = 1;
nodes = (
(499,284,o),
(522,308,o),
(522,339,cs),
(522,370,o),
(499,394,o),
(468,394,cs),
(437,394,o),
(412,370,o),
(412,339,c),
(412,308,o),
(437,284,o),
(468,284,cs)
);
},
{
closed = 1;
nodes = (
(408,330,o),
(437,344,o),
(446,370,cs),
(455,397,o),
(471,500,o),
(445,509,cs),
(418,518,o),
(362,431,o),
(352,404,cs),
(342,378,o),
(357,350,o),
(383,340,cs)
);
},
{
closed = 1;
nodes = (
(410,330,o),
(464,419,o),
(474,445,cs),
(484,472,o),
(471,500,o),
(445,509,cs),
(418,518,o),
(389,506,o),
(380,480,cs),
(371,453,o),
(357,350,o),
(383,340,cs)
);
},
{
closed = 1;
nodes = (
(574,284,o),
(672,308,o),
(672,339,cs),
(672,370,o),
(574,394,o),
(543,394,cs),
(512,394,o),
(487,370,o),
(487,339,cs),
(487,308,o),
(512,284,o),
(543,284,cs)
);
},
{
closed = 1;
nodes = (
(649,284,o),
(672,308,o),
(672,339,cs),
(672,370,o),
(649,394,o),
(618,394,cs),
(587,394,o),
(487,370,o),
(487,339,cs),
(487,308,o),
(587,284,o),
(618,284,cs)
);
},
{
closed = 1;
nodes = (
(421,490,o),
(442,512,o),
(442,540,cs),
(442,568,o),
(421,590,o),
(393,590,cs),
(365,590,o),
(342,568,o),
(342,540,cs),
(342,512,o),
(365,490,o),
(393,490,cs)
);
},
{
closed = 0;
nodes = (
(337,625,l)
);
},
{
closed = 1;
nodes = (
(424,570,o),
(522,594,o),
(522,625,cs),
(522,656,o),
(424,680,o),
(393,680,cs),
(362,680,o),
(337,656,o),
(337,625,cs),
(337,594,o),
(362,570,o),
(393,570,cs)
);
},
{
closed = 1;
nodes = (
(499,570,o),
(522,594,o),
(522,625,cs),
(522,656,o),
(499,680,o),
(468,680,cs),
(437,680,o),
(337,656,o),
(337,625,c),
(337,594,o),
(437,570,o),
(468,570,cs)
);
},
{
closed = 1;
nodes = (
(574,570,o),
(672,594,o),
(672,625,cs),
(672,656,o),
(574,680,o),
(543,680,cs),
(512,680,o),
(487,656,o),
(487,625,cs),
(487,594,o),
(512,570,o),
(543,570,cs)
);
},
{
closed = 1;
nodes = (
(649,570,o),
(672,594,o),
(672,625,cs),
(672,656,o),
(649,680,o),
(618,680,cs),
(587,680,o),
(487,656,o),
(487,625,cs),
(487,594,o),
(587,570,o),
(618,570,cs)
);
},
{
closed = 1;
nodes = (
(291,570,o),
(391,595,o),
(391,625,c),
(391,655,o),
(291,680,o),
(261,680,c),
(231,680,o),
(206,655,o),
(206,625,c),
(206,595,o),
(231,570,o),
(261,570,c)
);
},
{
closed = 1;
nodes = (
(106,207,o),
(128,309,o),
(128,337,c),
(128,365,o),
(106,387,o),
(78,387,c),
(50,387,o),
(28,365,o),
(28,337,c),
(28,309,o),
(50,207,o),
(78,207,c)
);
},
{
closed = 1;
nodes = (
(106,207,o),
(128,229,o),
(128,257,c),
(128,285,o),
(106,387,o),
(78,387,c),
(50,387,o),
(28,285,o),
(28,257,c),
(28,229,o),
(50,207,o),
(78,207,c)
);
},
{
closed = 1;
nodes = (
(106,367,o),
(128,389,o),
(128,417,c),
(128,445,o),
(106,547,o),
(78,547,c),
(50,547,o),
(28,445,o),
(28,417,c),
(28,389,o),
(50,367,o),
(78,367,c)
);
},
{
closed = 1;
nodes = (
(232,110,o),
(207,85,o),
(207,55,c),
(207,25,o),
(232,0,o),
(262,0,c),
(292,0,o),
(392,25,o),
(392,55,c),
(392,85,o),
(292,110,o),
(262,110,c)
);
},
{
closed = 1;
nodes = (
(50,547,o),
(28,525,o),
(28,497,c),
(28,469,o),
(50,367,o),
(78,367,c),
(106,367,o),
(128,469,o),
(128,497,c),
(128,525,o),
(106,547,o),
(78,547,c)
);
},
{
closed = 1;
nodes = (
(106,127,o),
(128,149,o),
(128,177,c),
(128,205,o),
(106,227,o),
(78,227,c),
(50,227,o),
(28,205,o),
(28,177,c),
(28,149,o),
(50,127,o),
(78,127,c)
);
},
{
closed = 1;
nodes = (
(366,570,o),
(391,595,o),
(391,625,c),
(391,655,o),
(366,680,o),
(336,680,c),
(306,680,o),
(206,655,o),
(206,625,c),
(206,595,o),
(306,570,o),
(336,570,c)
);
},
{
closed = 1;
nodes = (
(307,110,o),
(207,85,o),
(207,55,c),
(207,25,o),
(307,0,o),
(337,0,c),
(367,0,o),
(392,25,o),
(392,55,c),
(392,85,o),
(367,110,o),
(337,110,c)
);
},
{
closed = 1;
nodes = (
(285,123,o),
(221,206,o),
(201,224,cs),
(180,243,o),
(147,239,o),
(129,218,cs),
(111,197,o),
(115,166,o),
(136,148,cs),
(158,130,o),
(249,79,o),
(267,101,cs)
);
},
{
closed = 1;
nodes = (
(285,123,o),
(283,154,o),
(262,172,c),
(240,190,o),
(147,239,o),
(129,218,cs),
(111,197,o),
(176,114,o),
(197,95,cs),
(217,77,o),
(249,79,o),
(267,101,cs)
);
},
{
closed = 1;
nodes = (
(207,633,o),
(116,582,o),
(94,564,cs),
(73,546,o),
(69,515,o),
(87,494,cs),
(105,473,o),
(138,469,o),
(159,488,cs),
(179,506,o),
(243,589,o),
(225,611,cs)
);
},
{
closed = 1;
nodes = (
(207,633,o),
(175,635,o),
(155,617,cs),
(134,598,o),
(69,515,o),
(87,494,cs),
(105,473,o),
(198,522,o),
(220,540,c),
(241,558,o),
(243,589,o),
(225,611,cs)
);
}
);
width = 700;
}
);
unicode = 338;
},
{
glyphname = P;
lastChange = "2020-12-30 13:43:54 +0000";
layers = (
{
guides = (
{
pos = (387,243);
}
);
layerId = "C8365536-00F6-4CBD-B31D-2172D190A829";
shapes = (
{
closed = 1;
nodes = (
(193,570,o),
(291,594,o),
(291,625,cs),
(291,656,o),
(193,680,o),
(162,680,cs),
(131,680,o),
(106,656,o),
(106,625,cs),
(106,594,o),
(131,570,o),
(162,570,cs)
);
},
{
closed = 1;
nodes = (
(493,243,o),
(516,267,o),
(516,298,cs),
(516,329,o),
(493,353,o),
(462,353,cs),
(431,353,o),
(331,329,o),
(331,298,cs),
(331,267,o),
(431,243,o),
(462,243,cs)
);
},
{
closed = 1;
nodes = (
(193,0,o),
(216,24,o),
(216,55,cs),
(216,86,o),
(193,110,o),
(162,110,cs),
(131,110,o),
(106,86,o),
(106,55,cs),
(106,24,o),
(131,0,o),
(162,0,cs)
);
},
{
closed = 1;
nodes = (
(234,284,o),
(324,240,o),
(344,264,cs),
(364,287,o),
(305,369,o),
(281,389,cs),
(257,409,o),
(223,406,o),
(203,382,c),
(183,359,o),
(186,324,o),
(210,304,cs)
);
},
{
closed = 1;
nodes = (
(291,236,o),
(324,240,o),
(344,264,cs),
(364,287,o),
(362,320,o),
(338,340,cs),
(315,360,o),
(223,406,o),
(203,382,cs),
(183,359,o),
(244,276,o),
(268,256,c)
);
},
{
closed = 1;
nodes = (
(418,243,o),
(516,267,o),
(516,298,cs),
(516,329,o),
(418,353,o),
(387,353,cs),
(356,353,o),
(331,329,o),
(331,298,cs),
(331,267,o),
(356,243,o),
(387,243,cs)
);
},
{
closed = 1;
nodes = (
(190,410,o),
(211,512,o),
(211,540,cs),
(211,568,o),
(190,590,o),
(162,590,cs),
(134,590,o),
(111,568,o),
(111,540,cs),
(111,512,o),
(134,410,o),
(162,410,cs)
);
},
{
closed = 1;
nodes = (
(190,250,o),
(211,272,o),
(211,300,c),
(211,328,o),
(190,430,o),
(162,430,cs),
(134,430,o),
(111,328,o),
(111,300,cs),
(111,272,o),
(134,250,o),
(162,250,cs)
);
},
{
closed = 1;
nodes = (
(190,90,o),
(211,192,o),
(211,220,cs),
(211,248,o),
(190,270,o),
(162,270,cs),
(134,270,o),
(111,248,o),
(111,220,cs),
(111,192,o),
(134,90,o),
(162,90,cs)
);
},
{
closed = 1;
nodes = (
(188,90,o),
(211,112,o),
(211,140,cs),
(211,168,o),
(190,270,o),
(162,270,cs),
(134,270,o),
(111,168,o),
(111,140,cs),
(111,112,o),
(134,90,o),
(162,90,cs)
);
},
{
closed = 1;
nodes = (
(190,250,o),
(211,352,o),
(211,380,cs),
(211,408,o),
(190,430,o),
(162,430,cs),
(134,430,o),
(111,408,o),
(111,380,cs),
(111,352,o),
(134,250,o),
(162,250,cs)
);
},
{
closed = 1;
nodes = (
(190,410,o),
(211,432,o),
(211,460,cs),
(211,488,o),
(190,590,o),
(162,590,cs),
(134,590,o),
(111,488,o),
(111,460,c),
(111,432,o),
(134,410,o),
(162,410,cs)
);
},
{
closed = 1;
nodes = (
(568,410,o),
(589,512,o),
(589,540,cs),
(589,568,o),
(568,590,o),
(540,590,cs),
(512,590,o),
(489,568,o),
(489,540,cs),
(489,512,o),
(512,410,o),
(540,410,cs)
);
},
{
closed = 1;
nodes = (
(568,330,o),
(589,352,o),
(589,380,cs),
(589,408,o),
(568,510,o),
(540,510,cs),
(512,510,o),
(489,408,o),
(489,380,cs),
(489,352,o),
(512,330,o),
(540,330,cs)
);
},
{
closed = 1;
nodes = (
(568,410,o),
(589,432,o),
(589,460,cs),
(589,488,o),
(568,510,o),
(540,510,cs),
(512,510,o),
(489,488,o),
(489,460,c),
(489,432,o),
(512,410,o),
(540,410,cs)
);
},
{
closed = 1;
nodes = (
(493,570,o),
(516,594,o),
(516,625,cs),
(516,656,o),
(493,680,o),
(462,680,cs),
(431,680,o),
(331,656,o),
(331,625,cs),
(331,594,o),
(431,570,o),
(462,570,cs)
);
},
{
closed = 1;
nodes = (
(268,570,o),
(291,594,o),
(291,625,cs),
(291,656,o),
(268,680,o),
(237,680,cs),
(206,680,o),
(106,656,o),
(106,625,c),
(106,594,o),
(206,570,o),
(237,570,cs)
);
},
{
closed = 1;
nodes = (
(343,570,o),
(516,594,o),
(516,625,cs),
(516,656,o),
(343,680,o),
(312,680,cs),
(281,680,o),
(256,656,o),
(256,625,cs),
(256,594,o),
(281,570,o),
(312,570,cs)
);
},
{
closed = 1;
nodes = (
(418,570,o),
(441,594,o),
(441,625,cs),
(441,656,o),
(418,680,o),
(387,680,cs),
(356,680,o),
(331,656,o),
(331,625,cs),
(331,594,o),
(356,570,o),
(387,570,cs)
);
},
{
closed = 1;
nodes = (
(530,568,o),
(541,579,o),
(541,593,c),
(541,607,o),
(530,618,o),
(516,618,c),
(502,618,o),
(491,607,o),
(491,593,c),
(491,579,o),
(502,568,o),
(516,568,c)
);
},
{
closed = 1;
nodes = (
(530,298,o),
(541,309,o),
(541,323,c),
(541,337,o),
(530,348,o),
(516,348,c),
(502,348,o),
(491,337,o),
(491,323,c),
(491,309,o),
(502,298,o),
(516,298,c)
);
}
);
width = 700;
}
);
unicode = 80;
},
{
glyphname = Thorn;
lastChange = "2020-12-30 14:01:58 +0000";
layers = (
{
layerId = "C8365536-00F6-4CBD-B31D-2172D190A829";
shapes = (
{
closed = 1;
nodes = (
(493,121,o),
(516,145,o),
(516,176,cs),
(516,207,o),
(493,231,o),
(462,231,cs),
(431,231,o),
(331,207,o),
(331,176,cs),
(331,145,o),
(431,121,o),
(462,121,cs)
);
},
{
closed = 1;
nodes = (
(193,0,o),
(216,24,o),
(216,55,cs),
(216,86,o),
(193,110,o),
(162,110,cs),
(131,110,o),
(106,86,o),
(106,55,cs),
(106,24,o),
(131,0,o),
(162,0,cs)
);
},
{
closed = 1;
nodes = (
(234,162,o),
(324,118,o),
(344,142,cs),
(364,165,o),
(305,247,o),
(281,267,cs),
(257,287,o),
(223,284,o),
(203,260,c),
(183,237,o),
(186,202,o),
(210,182,cs)
);
},
{
closed = 1;
nodes = (
(291,114,o),
(324,118,o),
(344,142,cs),
(364,165,o),
(362,198,o),
(338,218,cs),
(315,238,o),
(223,284,o),
(203,260,cs),
(183,237,o),
(244,154,o),
(268,134,c)
);
},
{
closed = 1;
nodes = (
(418,121,o),
(516,145,o),
(516,176,cs),
(516,207,o),
(418,231,o),
(387,231,cs),
(356,231,o),
(331,207,o),
(331,176,cs),
(331,145,o),
(356,121,o),
(387,121,cs)
);
},
{
closed = 1;
nodes = (
(190,410,o),
(211,512,o),
(211,540,cs),
(211,568,o),
(190,590,o),
(162,590,cs),
(134,590,o),
(111,568,o),
(111,540,cs),
(111,512,o),
(134,410,o),
(162,410,cs)
);
},
{
closed = 1;
nodes = (
(190,250,o),
(211,272,o),
(211,300,c),
(211,328,o),
(190,430,o),
(162,430,cs),
(134,430,o),
(111,328,o),
(111,300,cs),
(111,272,o),
(134,250,o),
(162,250,cs)
);
},
{
closed = 1;
nodes = (
(190,90,o),
(211,192,o),
(211,220,cs),
(211,248,o),
(190,270,o),
(162,270,cs),
(134,270,o),
(111,248,o),
(111,220,cs),
(111,192,o),
(134,90,o),
(162,90,cs)
);
},
{
closed = 1;
nodes = (
(188,90,o),
(211,112,o),
(211,140,cs),
(211,168,o),
(190,270,o),
(162,270,cs),
(134,270,o),
(111,168,o),
(111,140,cs),
(111,112,o),
(134,90,o),
(162,90,cs)
);
},
{
closed = 1;
nodes = (
(190,250,o),
(211,352,o),
(211,380,cs),
(211,408,o),
(190,430,o),
(162,430,cs),
(134,430,o),
(111,408,o),
(111,380,cs),
(111,352,o),
(134,250,o),
(162,250,cs)
);
},
{
closed = 1;
nodes = (
(190,410,o),
(211,432,o),
(211,460,cs),
(211,488,o),
(190,590,o),
(162,590,cs),
(134,590,o),
(111,488,o),
(111,460,c),
(111,432,o),
(134,410,o),
(162,410,cs)
);
},
{
closed = 1;
nodes = (
(568,288,o),
(589,390,o),
(589,418,cs),
(589,446,o),
(568,468,o),
(540,468,cs),
(512,468,o),
(489,446,o),
(489,418,cs),
(489,390,o),
(512,288,o),
(540,288,cs)
);
},
{
closed = 1;
nodes = (
(568,208,o),
(589,230,o),
(589,258,cs),
(589,286,o),
(568,388,o),
(540,388,cs),
(512,388,o),
(489,286,o),
(489,258,cs),
(489,230,o),
(512,208,o),
(540,208,cs)
);
},
{
closed = 1;
nodes = (
(568,288,o),
(589,310,o),
(589,338,cs),
(589,366,o),
(568,388,o),
(540,388,cs),
(512,388,o),
(489,366,o),
(489,338,c),
(489,310,o),
(512,288,o),
(540,288,cs)
);
},
{
closed = 1;
nodes = (
(493,448,o),
(516,472,o),
(516,503,cs),
(516,534,o),
(493,558,o),
(462,558,cs),
(431,558,o),
(331,534,o),
(331,503,cs),
(331,472,o),
(431,448,o),
(462,448,cs)
);
},
{
closed = 1;
nodes = (
(418,448,o),
(441,472,o),
(441,503,cs),
(441,534,o),
(418,558,o),
(387,558,cs),
(356,558,o),
(331,534,o),
(331,503,cs),
(331,472,o),
(356,448,o),
(387,448,cs)
);
},
{
closed = 1;
nodes = (
(530,446,o),
(541,457,o),
(541,471,c),
(541,485,o),
(530,496,o),
(516,496,c),
(502,496,o),
(491,485,o),
(491,471,c),
(491,457,o),
(502,446,o),
(516,446,c)
);
},
{
closed = 1;
nodes = (
(530,176,o),
(541,187,o),
(541,201,c),
(541,215,o),
(530,226,o),
(516,226,c),
(502,226,o),
(491,215,o),
(491,201,c),
(491,187,o),
(502,176,o),
(516,176,c)
);
},
{
closed = 1;
nodes = (
(193,570,o),
(216,594,o),
(216,625,cs),
(216,656,o),
(193,680,o),
(162,680,cs),
(131,680,o),
(106,656,o),
(106,625,cs),
(106,594,o),
(131,570,o),
(162,570,cs)
);
},
{
closed = 1;
nodes = (
(186,478,o),
(183,443,o),
(203,420,c),
(223,396,o),
(257,393,o),
(281,413,cs),
(305,433,o),
(364,515,o),
(344,538,cs),
(324,562,o),
(234,518,o),
(210,498,cs)
);
},
{
closed = 1;
nodes = (
(244,526,o),
(183,443,o),
(203,420,cs),
(223,396,o),
(315,442,o),
(338,462,cs),
(362,482,o),
(364,515,o),
(344,538,cs),
(324,562,o),
(291,566,o),
(268,546,c)
);
}
);
width = 700;
}
);
unicode = 222;
},
{
glyphname = Q;
lastChange = "2020-12-30 13:58:41 +0000";
layers = (
{
layerId = "C8365536-00F6-4CBD-B31D-2172D190A829";
shapes = (
{
closed = 1;
nodes = (
(378,-160,o),
(400,-58,o),
(400,-30,c),
(400,-2,o),
(378,20,o),
(350,20,c),
(322,20,o),
(300,-2,o),
(300,-30,c),
(300,-58,o),
(322,-160,o),
(350,-160,c)
);
},
{
closed = 1;
nodes = (
(378,-160,o),
(400,-138,o),
(400,-110,c),
(400,-82,o),
(378,20,o),
(350,20,c),
(322,20,o),
(300,-82,o),
(300,-110,c),
(300,-138,o),
(322,-160,o),
(350,-160,c)
);
},
{
closed = 1;
nodes = (
(345,570,o),
(445,595,o),
(445,625,c),
(445,655,o),
(345,680,o),
(315,680,c),
(285,680,o),
(260,655,o),
(260,625,c),
(260,595,o),
(285,570,o),
(315,570,c)
);
},
{
closed = 1;
nodes = (
(160,207,o),
(182,309,o),
(182,337,c),
(182,365,o),
(160,387,o),
(132,387,c),
(104,387,o),
(82,365,o),
(82,337,c),
(82,309,o),
(104,207,o),
(132,207,c)
);
},
{
closed = 1;
nodes = (
(160,207,o),
(182,229,o),
(182,257,c),
(182,285,o),
(160,387,o),
(132,387,c),
(104,387,o),
(82,285,o),
(82,257,c),
(82,229,o),
(104,207,o),
(132,207,c)
);
},
{
closed = 1;
nodes = (
(160,367,o),
(182,389,o),
(182,417,c),
(182,445,o),
(160,547,o),
(132,547,c),
(104,547,o),
(82,445,o),
(82,417,c),
(82,389,o),
(104,367,o),
(132,367,c)
);
},
{
closed = 1;
nodes = (
(286,110,o),
(261,85,o),
(261,55,c),
(261,25,o),
(286,0,o),
(316,0,c),
(346,0,o),
(446,25,o),
(446,55,c),
(446,85,o),
(346,110,o),
(316,110,c)
);
},
{
closed = 1;
nodes = (
(104,547,o),
(82,525,o),
(82,497,c),
(82,469,o),
(104,367,o),
(132,367,c),
(160,367,o),
(182,469,o),
(182,497,c),
(182,525,o),
(160,547,o),
(132,547,c)
);
},
{
closed = 1;
nodes = (
(160,127,o),
(182,149,o),
(182,177,c),
(182,205,o),
(160,227,o),
(132,227,c),
(104,227,o),
(82,205,o),
(82,177,c),
(82,149,o),
(104,127,o),
(132,127,c)
);
},
{
closed = 1;
nodes = (
(420,570,o),
(445,595,o),
(445,625,c),
(445,655,o),
(420,680,o),
(390,680,c),
(360,680,o),
(260,655,o),
(260,625,c),
(260,595,o),
(360,570,o),
(390,570,c)
);
},
{
closed = 1;
nodes = (
(361,110,o),
(261,85,o),
(261,55,c),
(261,25,o),
(361,0,o),
(391,0,c),
(421,0,o),
(446,25,o),
(446,55,c),
(446,85,o),
(421,110,o),
(391,110,c)
);
},
{
closed = 1;
nodes = (
(339,123,o),
(275,206,o),
(255,224,cs),
(234,243,o),
(201,239,o),
(183,218,cs),
(165,197,o),
(169,166,o),
(190,148,cs),
(212,130,o),
(303,79,o),
(321,101,cs)
);
},
{
closed = 1;
nodes = (
(339,123,o),
(337,154,o),
(316,172,c),
(294,190,o),
(201,239,o),
(183,218,cs),
(165,197,o),
(230,114,o),
(251,95,cs),
(271,77,o),
(303,79,o),
(321,101,cs)
);
},
{
closed = 1;
nodes = (
(261,633,o),
(170,582,o),
(148,564,cs),
(127,546,o),
(123,515,o),
(141,494,cs),
(159,473,o),
(192,469,o),
(213,488,cs),
(233,506,o),
(297,589,o),
(279,611,cs)
);
},
{
closed = 1;
nodes = (
(261,633,o),
(229,635,o),
(209,617,cs),
(188,598,o),
(123,515,o),
(141,494,cs),
(159,473,o),
(252,522,o),
(274,540,c),
(295,558,o),
(297,589,o),
(279,611,cs)
);
},
{
closed = 1;
nodes = (
(596,207,o),
(618,309,o),
(618,337,c),
(618,365,o),
(596,387,o),
(568,387,c),
(540,387,o),
(518,365,o),
(518,337,c),
(518,309,o),
(540,207,o),
(568,207,c)
);
},
{
closed = 1;
nodes = (
(596,207,o),
(618,229,o),
(618,257,c),
(618,285,o),
(596,387,o),
(568,387,c),
(540,387,o),
(518,285,o),
(518,257,c),
(518,229,o),
(540,207,o),
(568,207,c)
);
},
{
closed = 1;
nodes = (
(596,367,o),
(618,389,o),
(618,417,c),
(618,445,o),
(596,547,o),
(568,547,c),
(540,547,o),
(518,445,o),
(518,417,c),
(518,389,o),
(540,367,o),
(568,367,c)
);
},
{
closed = 1;
nodes = (
(540,547,o),
(518,525,o),
(518,497,c),
(518,469,o),
(540,367,o),
(568,367,c),
(596,367,o),
(618,469,o),
(618,497,c),
(618,525,o),
(596,547,o),
(568,547,c)
);
},
{
closed = 1;
nodes = (
(596,127,o),
(618,149,o),
(618,177,c),
(618,205,o),
(596,227,o),
(568,227,c),
(540,227,o),
(518,205,o),
(518,177,c),
(518,149,o),
(540,127,o),
(568,127,c)
);
},
{
closed = 1;
nodes = (
(397,79,o),
(488,130,o),
(510,148,cs),
(531,166,o),
(535,197,o),
(517,218,cs),
(499,239,o),
(466,243,o),
(445,224,cs),
(425,206,o),
(361,123,o),
(379,101,cs)
);
},
{
closed = 1;
nodes = (
(397,79,o),
(429,77,o),
(449,95,cs),
(470,114,o),
(535,197,o),
(517,218,cs),
(499,239,o),
(406,190,o),
(384,172,c),
(363,154,o),
(361,123,o),
(379,101,cs)
);
},
{
closed = 1;
nodes = (
(404,589,o),
(468,506,o),
(488,488,cs),
(509,469,o),
(542,473,o),
(560,494,cs),
(578,515,o),
(574,546,o),
(553,564,cs),
(531,582,o),
(440,633,o),
(422,611,cs)
);
},
{
closed = 1;
nodes = (
(404,589,o),
(406,558,o),
(427,540,c),
(449,522,o),
(542,473,o),
(560,494,cs),
(578,515,o),
(513,598,o),
(492,617,cs),
(472,635,o),
(440,633,o),
(422,611,cs)
);
}
);
width = 700;
}
);
unicode = 81;
},
{
glyphname = R;
lastChange = "2020-12-30 13:54:00 +0000";
layers = (
{
layerId = "C8365536-00F6-4CBD-B31D-2172D190A829";
shapes = (
{
closed = 1;
nodes = (
(493,320,o),
(516,344,o),
(516,375,cs),
(516,406,o),
(493,430,o),
(462,430,cs),
(431,430,o),
(331,406,o),
(331,375,cs),
(331,344,o),
(431,320,o),
(462,320,cs)
);
},
{
closed = 1;
nodes = (
(193,0,o),
(216,24,o),
(216,55,cs),
(216,86,o),
(193,110,o),
(162,110,cs),
(131,110,o),
(106,86,o),
(106,55,cs),
(106,24,o),
(131,0,o),
(162,0,cs)
);
},
{
closed = 1;
nodes = (
(268,320,o),
(366,344,o),
(366,375,cs),
(366,406,o),
(268,430,o),
(237,430,cs),
(206,430,o),
(181,406,o),
(181,375,c),
(181,344,o),
(206,320,o),
(237,320,cs)
);
},
{
closed = 1;
nodes = (
(343,320,o),
(366,344,o),
(366,375,cs),
(366,406,o),
(343,430,o),
(312,430,c),
(281,430,o),
(181,406,o),
(181,375,cs),
(181,344,o),
(281,320,o),
(312,320,c)
);
},
{
closed = 1;
nodes = (
(418,320,o),
(516,344,o),
(516,375,cs),
(516,406,o),
(418,430,o),
(387,430,cs),
(356,430,o),
(331,406,o),
(331,375,cs),
(331,344,o),
(356,320,o),
(387,320,cs)
);
},
{
closed = 1;
nodes = (
(190,410,o),
(211,512,o),
(211,540,cs),
(211,568,o),
(190,590,o),
(162,590,cs),
(134,590,o),
(111,568,o),
(111,540,cs),
(111,512,o),
(134,410,o),
(162,410,cs)
);
},
{
closed = 1;
nodes = (
(190,250,o),
(211,272,o),
(211,300,c),
(211,328,o),
(190,430,o),
(162,430,cs),
(134,430,o),
(111,328,o),
(111,300,cs),
(111,272,o),
(134,250,o),
(162,250,cs)
);
},
{
closed = 1;
nodes = (
(190,90,o),
(211,192,o),
(211,220,cs),
(211,248,o),
(190,270,o),
(162,270,cs),
(134,270,o),
(111,248,o),
(111,220,cs),
(111,192,o),
(134,90,o),
(162,90,cs)
);
},
{
closed = 1;
nodes = (
(188,90,o),
(211,112,o),
(211,140,cs),
(211,168,o),
(190,270,o),
(162,270,cs),
(134,270,o),
(111,168,o),
(111,140,cs),
(111,112,o),
(134,90,o),
(162,90,cs)
);
},
{
closed = 1;
nodes = (
(190,250,o),
(211,352,o),
(211,380,cs),
(211,408,o),
(190,430,o),
(162,430,cs),
(134,430,o),
(111,408,o),
(111,380,cs),
(111,352,o),
(134,250,o),
(162,250,cs)
);
},
{
closed = 1;
nodes = (
(190,410,o),
(211,432,o),
(211,460,cs),
(211,488,o),
(190,590,o),
(162,590,cs),
(134,590,o),
(111,488,o),
(111,460,c),
(111,432,o),
(134,410,o),
(162,410,cs)
);
},
{
closed = 1;
nodes = (
(563,411,o),
(584,513,o),
(584,541,cs),
(584,569,o),
(563,591,o),
(535,591,cs),
(507,591,o),
(484,569,o),
(484,541,cs),
(484,513,o),
(507,411,o),
(535,411,cs)
);
},
{
closed = 1;
nodes = (
(563,411,o),
(584,433,o),
(584,461,cs),
(584,489,o),
(564,594,o),
(536,594,cs),
(508,594,o),
(484,489,o),
(484,461,c),
(484,433,o),
(507,411,o),
(535,411,cs)
);
},
{
closed = 1;
nodes = (
(530,568,o),
(541,579,o),
(541,593,c),
(541,607,o),
(530,618,o),
(516,618,c),
(502,618,o),
(491,607,o),
(491,593,c),
(491,579,o),
(502,568,o),
(516,568,c)
);
},
{
closed = 1;
nodes = (
(530,374,o),
(541,385,o),
(541,399,c),
(541,413,o),
(530,424,o),
(516,424,c),
(502,424,o),
(491,413,o),
(491,399,c),
(491,385,o),
(502,374,o),
(516,374,c)
);
},
{
closed = 1;
nodes = (
(401,162,o),
(429,144,o),
(460,150,cs),
(491,156,o),
(510,182,o),
(505,212,c),
(500,242,o),
(458,337,o),
(428,332,cs),
(397,327,o),
(391,224,o),
(396,194,cs)
);
},
{
closed = 1;
nodes = (
(389,236,o),
(429,144,o),
(460,150,cs),
(491,156,o),
(497,256,o),
(492,286,cs),
(486,317,o),
(458,337,o),
(428,332,cs),
(397,327,o),
(378,297,o),
(384,267,cs)
);
},
{
closed = 1;
nodes = (
(556,-17,o),
(590,-6,o),
(605,22,cs),
(620,50,o),
(612,80,o),
(586,96,cs),
(560,112,o),
(460,140,o),
(444,114,cs),
(428,88,o),
(504,17,o),
(530,0,cs)
);
},
{
closed = 1;
nodes = (
(493,23,o),
(590,-6,o),
(605,22,cs),
(620,50,o),
(548,118,o),
(521,133,cs),
(494,148,o),
(460,140,o),
(444,114,cs),
(428,88,o),
(439,53,o),
(466,38,cs)
);
},
{
closed = 1;
nodes = (
(511,74,o),
(534,98,o),
(534,129,cs),
(534,160,o),
(511,184,o),
(480,184,cs),
(449,184,o),
(424,160,o),
(424,129,cs),
(424,98,o),
(449,74,o),
(480,74,cs)
);
},
{
closed = 1;
nodes = (
(193,570,o),
(216,594,o),
(216,625,cs),
(216,656,o),
(193,680,o),
(162,680,cs),
(131,680,o),
(106,656,o),
(106,625,cs),
(106,594,o),
(131,570,o),
(162,570,cs)
);
},
{
closed = 1;
nodes = (
(493,570,o),
(516,594,o),
(516,625,cs),
(516,656,o),
(493,680,o),
(462,680,cs),
(431,680,o),
(331,656,o),
(331,625,cs),
(331,594,o),
(431,570,o),
(462,570,cs)
);
},
{
closed = 1;
nodes = (
(268,570,o),
(366,594,o),
(366,625,cs),
(366,656,o),
(268,680,o),
(237,680,cs),
(206,680,o),
(181,656,o),
(181,625,c),
(181,594,o),
(206,570,o),
(237,570,cs)
);
},
{
closed = 1;
nodes = (
(343,570,o),
(366,594,o),
(366,625,cs),
(366,656,o),
(343,680,o),
(312,680,cs),
(281,680,o),
(181,656,o),
(181,625,cs),
(181,594,o),
(281,570,o),
(312,570,c)
);
},
{
closed = 1;
nodes = (
(418,570,o),
(516,594,o),
(516,625,cs),
(516,656,o),
(418,680,o),
(387,680,cs),
(356,680,o),
(331,656,o),
(331,625,cs),
(331,594,o),
(356,570,o),
(387,570,cs)
);
}
);
width = 700;
}
);
unicode = 82;
},
{
glyphname = S;
lastChange = "2020-12-29 10:51:53 +0000";
layers = (
{
layerId = "C8365536-00F6-4CBD-B31D-2172D190A829";
shapes = (
{
closed = 1;
nodes = (
(269,0,o),
(292,24,o),
(292,55,cs),
(292,86,o),
(269,110,o),
(238,110,cs),
(207,110,o),
(107,86,o),
(107,55,cs),
(107,24,o),
(207,0,o),
(238,0,cs)
);
},
{
closed = 1;
nodes = (
(344,0,o),
(442,24,o),
(442,55,cs),
(442,86,o),
(344,110,o),
(313,110,cs),
(282,110,o),
(257,86,o),
(257,55,cs),
(257,24,o),
(282,0,o),
(313,0,cs)
);
},
{
closed = 1;
nodes = (
(419,0,o),
(442,24,o),
(442,55,cs),
(442,86,o),
(419,110,o),
(388,110,cs),
(357,110,o),
(257,86,o),
(257,55,cs),
(257,24,o),
(357,0,o),
(388,0,cs)
);
},
{
closed = 1;
nodes = (
(494,0,o),
(517,24,o),
(517,55,cs),
(517,85,o),
(496,110,o),
(463,110,cs),
(432,110,o),
(407,86,o),
(407,55,cs),
(407,24,o),
(432,0,o),
(463,0,cs)
);
},
{
closed = 1;
nodes = (
(597,173,o),
(618,195,o),
(618,223,cs),
(618,251,o),
(597,273,o),
(569,273,cs),
(541,273,o),
(518,251,o),
(518,223,cs),
(518,195,o),
(541,173,o),
(569,173,cs)
);
},
{
closed = 1;
nodes = (
(595,93,o),
(618,115,o),
(618,143,cs),
(618,171,o),
(597,273,o),
(569,273,cs),
(541,273,o),
(518,171,o),
(518,143,cs),
(518,115,o),
(541,93,o),
(569,93,cs)
);
},
{
closed = 1;
nodes = (
(269,570,o),
(367,594,o),
(367,625,cs),
(367,656,o),
(269,680,o),
(238,680,cs),
(207,680,o),
(182,656,o),
(182,625,cs),
(182,594,o),
(207,570,o),
(238,570,cs)
);
},
{
closed = 1;
nodes = (
(344,570,o),
(367,594,o),
(367,625,cs),
(367,656,o),
(344,680,o),
(313,680,cs),
(282,680,o),
(182,656,o),
(182,625,cs),
(182,594,o),
(282,570,o),
(313,570,cs)
);
},
{
closed = 1;
nodes = (
(419,570,o),
(517,594,o),
(517,625,cs),
(517,656,o),
(419,680,o),
(388,680,cs),
(357,680,o),
(332,656,o),
(332,625,cs),
(332,594,o),
(357,570,o),
(388,570,c)
);
},
{
closed = 1;
nodes = (
(543,60,o),
(554,71,o),
(554,85,c),
(554,99,o),
(543,110,o),
(529,110,c),
(515,110,o),
(504,99,o),
(504,85,c),
(504,71,o),
(515,60,o),
(529,60,c)
);
},
{
closed = 1;
nodes = (
(194,0,o),
(292,24,o),
(292,55,cs),
(292,86,o),
(194,110,o),
(163,110,cs),
(132,110,o),
(107,86,o),
(107,55,cs),
(107,24,o),
(132,0,o),
(163,0,cs)
);
},
{
closed = 1;
nodes = (
(92,539,o),
(71,517,o),
(71,489,cs),
(71,461,o),
(92,439,o),
(120,439,cs),
(148,439,o),
(171,461,o),
(171,489,cs),
(171,517,o),
(148,539,o),
(120,539,cs)
);
},
{
closed = 1;
nodes = (
(94,619,o),
(71,597,o),
(71,569,cs),
(71,541,o),
(92,439,o),
(120,439,cs),
(148,439,o),
(171,541,o),
(171,569,cs),
(171,597,o),
(148,619,o),
(120,619,cs)
);
},
{
closed = 1;
nodes = (
(151,639,o),
(140,628,o),
(140,614,c),
(140,600,o),
(151,589,o),
(165,589,c),
(179,589,o),
(190,600,o),
(190,614,c),
(190,628,o),
(179,639,o),
(165,639,c)
);
},
{
closed = 1;
nodes = (
(207,408,o),
(182,384,o),
(182,353,c),
(182,322,o),
(207,298,o),
(238,298,c),
(269,298,o),
(367,322,o),
(367,353,c),
(367,384,o),
(269,408,o),
(238,408,c)
);
},
{
closed = 1;
nodes = (
(282,408,o),
(182,384,o),
(182,353,c),
(182,322,o),
(282,298,o),
(313,298,c),
(344,298,o),
(367,322,o),
(367,353,c),
(367,384,o),
(344,408,o),
(313,408,c)
);
},
{
closed = 1;
nodes = (
(357,408,o),
(332,384,o),
(332,353,c),
(332,322,o),
(357,298,o),
(388,298,c),
(419,298,o),
(517,322,o),
(517,353,c),
(517,384,o),
(419,408,o),
(388,408,c)
);
},
{
closed = 1;
nodes = (
(432,408,o),
(332,384,o),
(332,353,c),
(332,322,o),
(432,298,o),
(463,298,c),
(494,298,o),
(517,322,o),
(517,353,c),
(517,387,o),
(494,408,o),
(463,408,c)
);
},
{
closed = 1;
nodes = (
(148,359,o),
(171,381,o),
(171,409,c),
(171,437,o),
(148,539,o),
(120,539,c),
(92,539,o),
(71,437,o),
(71,409,c),
(71,381,o),
(94,359,o),
(120,359,c)
);
},
{
closed = 1;
nodes = (
(179,339,o),
(190,350,o),
(190,364,cs),
(190,378,o),
(179,389,o),
(165,389,cs),
(151,389,o),
(140,378,o),
(140,364,cs),
(140,350,o),
(151,339,o),
(165,339,cs)
);
},
{
closed = 1;
nodes = (
(597,173,o),
(618,275,o),
(618,303,cs),
(618,331,o),
(597,353,o),
(569,353,cs),
(541,353,o),
(518,331,o),
(518,303,cs),
(518,275,o),
(541,173,o),
(569,173,cs)
);
},
{
closed = 1;
nodes = (
(539,310,o),
(550,321,o),
(550,335,c),
(550,349,o),
(539,360,o),
(525,360,c),
(511,360,o),
(500,349,o),
(500,335,c),
(500,321,o),
(511,310,o),
(525,310,c)
);
},
{
closed = 1;
nodes = (
(494,570,o),
(517,594,o),
(517,625,cs),
(517,656,o),
(494,680,o),
(463,680,cs),
(432,680,o),
(332,656,o),
(332,625,cs),
(332,594,o),
(432,570,o),
(463,570,c)
);
},
{
closed = 1;
nodes = (
(158,86,o),
(212,174,o),
(222,200,cs),
(231,227,o),
(219,255,o),
(193,264,cs),
(166,274,o),
(137,261,o),
(128,235,cs),
(118,208,o),
(105,105,o),
(131,95,cs)
);
},
{
closed = 1;
nodes = (
(156,86,o),
(185,99,o),
(194,125,cs),
(204,152,o),
(219,255,o),
(193,264,cs),
(166,274,o),
(110,186,o),
(100,160,cs),
(91,133,o),
(105,105,o),
(131,95,cs)
);
},
{
closed = 1;
nodes = (
(545,494,o),
(599,583,o),
(609,609,cs),
(619,636,o),
(606,664,o),
(580,673,cs),
(553,682,o),
(524,670,o),
(515,644,cs),
(506,617,o),
(492,514,o),
(518,504,cs)
);
},
{
closed = 1;
nodes = (
(543,494,o),
(572,508,o),
(581,534,cs),
(590,561,o),
(606,664,o),
(580,673,cs),
(553,682,o),
(497,595,o),
(487,569,cs),
(477,542,o),
(492,514,o),
(518,504,cs)
);
}
);
width = 700;
}
);
unicode = 83;
},
{
glyphname = T;
lastChange = "2020-12-30 11:33:11 +0000";
layers = (
{
layerId = "C8365536-00F6-4CBD-B31D-2172D190A829";
shapes = (
{
closed = 1;
nodes = (
(320,110,o),
(295,86,o),
(295,55,cs),
(295,24,o),
(320,0,o),
(351,0,cs),
(382,0,o),
(405,24,o),
(405,55,cs),
(405,86,o),
(382,110,o),
(351,110,cs)
);
},
{
closed = 1;
nodes = (
(58,680,o),
(33,656,o),
(33,625,cs),
(33,594,o),
(58,570,o),
(89,570,cs),
(120,570,o),
(218,594,o),
(218,625,cs),
(218,656,o),
(120,680,o),
(89,680,cs)
);
},
{
closed = 1;
nodes = (
(133,680,o),
(33,656,o),
(33,625,c),
(33,594,o),
(133,570,o),
(164,570,cs),
(195,570,o),
(218,594,o),
(218,625,cs),
(218,656,o),
(195,680,o),
(164,680,cs)
);
},
{
closed = 1;
nodes = (
(283,680,o),
(258,656,o),
(258,625,cs),
(258,594,o),
(283,570,o),
(314,570,cs),
(345,570,o),
(443,594,o),
(443,625,cs),
(443,656,o),
(345,680,o),
(314,680,cs)
);
},
{
closed = 1;
nodes = (
(358,680,o),
(258,656,o),
(258,625,cs),
(258,594,o),
(358,570,o),
(389,570,cs),
(420,570,o),
(443,594,o),
(443,625,cs),
(443,656,o),
(420,680,o),
(389,680,cs)
);
},
{
closed = 1;
nodes = (
(323,270,o),
(300,168,o),
(300,140,cs),
(300,112,o),
(323,90,o),
(351,90,cs),
(379,90,o),
(400,112,o),
(400,140,cs),
(400,168,o),
(379,270,o),
(351,270,cs)
);
},
{
closed = 1;
nodes = (
(323,430,o),
(300,408,o),
(300,380,cs),
(300,352,o),
(323,250,o),
(351,250,cs),
(379,250,o),
(400,352,o),
(400,380,c),
(400,408,o),
(379,430,o),
(351,430,cs)
);
},
{
closed = 1;
nodes = (
(323,590,o),
(300,488,o),
(300,460,cs),
(300,432,o),
(323,410,o),
(351,410,cs),
(379,410,o),
(400,432,o),
(400,460,cs),
(400,488,o),
(379,590,o),
(351,590,cs)
);
},
{
closed = 1;
nodes = (
(323,590,o),
(300,568,o),
(300,540,cs),
(300,512,o),
(323,410,o),
(351,410,cs),
(379,410,o),
(400,512,o),
(400,540,cs),
(400,568,o),
(377,590,o),
(351,590,cs)
);
},
{
closed = 1;
nodes = (
(323,430,o),
(300,328,o),
(300,300,cs),
(300,272,o),
(323,250,o),
(351,250,cs),
(379,250,o),
(400,272,o),
(400,300,cs),
(400,328,o),
(379,430,o),
(351,430,cs)
);
},
{
closed = 1;
nodes = (
(323,270,o),
(300,248,o),
(300,220,c),
(300,192,o),
(323,90,o),
(351,90,cs),
(379,90,o),
(400,192,o),
(400,220,cs),
(400,248,o),
(379,270,o),
(351,270,cs)
);
},
{
closed = 1;
nodes = (
(61,590,o),
(38,568,o),
(38,540,cs),
(38,512,o),
(61,490,o),
(89,490,cs),
(117,490,o),
(138,512,o),
(138,540,cs),
(138,568,o),
(115,590,o),
(89,590,cs)
);
},
{
closed = 1;
nodes = (
(208,680,o),
(183,656,o),
(183,625,cs),
(183,594,o),
(208,570,o),
(239,570,cs),
(270,570,o),
(293,594,o),
(293,625,cs),
(293,656,o),
(268,680,o),
(239,680,cs)
);
},
{
closed = 1;
nodes = (
(581,680,o),
(483,656,o),
(483,625,cs),
(483,594,o),
(581,570,o),
(612,570,cs),
(643,570,o),
(668,594,o),
(668,625,cs),
(668,656,o),
(643,680,o),
(612,680,cs)
);
},
{
closed = 1;
nodes = (
(506,680,o),
(483,656,o),
(483,625,cs),
(483,594,o),
(506,570,o),
(537,570,cs),
(568,570,o),
(668,594,o),
(668,625,c),
(668,656,o),
(568,680,o),
(537,680,cs)
);
},
{
closed = 1;
nodes = (
(586,590,o),
(563,568,o),
(563,540,cs),
(563,512,o),
(584,490,o),
(612,490,cs),
(640,490,o),
(663,512,o),
(663,540,cs),
(663,568,o),
(640,590,o),
(612,590,cs)
);
},
{
closed = 1;
nodes = (
(433,680,o),
(408,656,o),
(408,625,cs),
(408,594,o),
(431,570,o),
(462,570,cs),
(493,570,o),
(518,594,o),
(518,625,cs),
(518,656,o),
(493,680,o),
(462,680,cs)
);
}
);
width = 700;
}
);
unicode = 84;
},
{
glyphname = U;
lastChange = "2020-12-30 10:24:38 +0000";
layers = (
{
layerId = "C8365536-00F6-4CBD-B31D-2172D190A829";
shapes = (
{
closed = 1;
nodes = (
(116,680,o),
(91,656,o),
(91,625,cs),
(91,594,o),
(116,570,o),
(147,570,cs),
(178,570,o),
(201,594,o),
(201,625,cs),
(201,656,o),
(178,680,o),
(147,680,cs)
);
},
{
closed = 1;
nodes = (
(119,430,o),
(96,328,o),
(96,300,cs),
(96,272,o),
(119,250,o),
(147,250,cs),
(175,250,o),
(196,272,o),
(196,300,cs),
(196,328,o),
(175,430,o),
(147,430,cs)
);
},
{
closed = 1;
nodes = (
(119,430,o),
(96,408,o),
(96,380,cs),
(96,352,o),
(119,250,o),
(147,250,cs),
(175,250,o),
(196,352,o),
(196,380,cs),
(196,408,o),
(173,430,o),
(147,430,cs)
);
},
{
closed = 1;
nodes = (
(522,680,o),
(499,656,o),
(499,625,c),
(499,594,o),
(522,570,o),
(553,570,c),
(584,570,o),
(609,594,o),
(609,625,c),
(609,656,o),
(584,680,o),
(553,680,c)
);
},
{
closed = 1;
nodes = (
(525,430,o),
(504,328,o),
(504,300,c),
(504,272,o),
(525,250,o),
(553,250,c),
(581,250,o),
(604,272,o),
(604,300,c),
(604,328,o),
(581,430,o),
(553,430,c)
);
},
{
closed = 1;
nodes = (
(525,430,o),
(504,408,o),
(504,380,c),
(504,352,o),
(525,250,o),
(553,250,c),
(581,250,o),
(604,352,o),
(604,380,c),
(604,408,o),
(581,430,o),
(553,430,c)
);
},
{
closed = 1;
nodes = (
(119,590,o),
(96,488,o),
(96,460,cs),
(96,432,o),
(119,410,o),
(147,410,cs),
(175,410,o),
(196,432,o),
(196,460,cs),
(196,488,o),
(173,590,o),
(147,590,cs)
);
},
{
closed = 1;
nodes = (
(527,590,o),
(504,488,o),
(504,460,c),
(504,432,o),
(525,410,o),
(553,410,c),
(581,410,o),
(604,432,o),
(604,460,c),
(604,488,o),
(581,590,o),
(553,590,c)
);
},
{
closed = 1;
nodes = (
(119,590,o),
(96,568,o),
(96,540,cs),
(96,512,o),
(119,410,o),
(147,410,cs),
(175,410,o),
(196,512,o),
(196,540,cs),
(196,568,o),
(173,590,o),
(147,590,cs)
);
},
{
closed = 1;
nodes = (
(527,590,o),
(504,568,o),
(504,540,c),
(504,512,o),
(525,410,o),
(553,410,c),
(581,410,o),
(604,512,o),
(604,540,c),
(604,568,o),
(581,590,o),
(553,590,c)
);
},
{
closed = 1;
nodes = (
(193,190,o),
(158,188,o),
(138,164,cs),
(118,140,o),
(122,106,o),
(146,86,cs),
(169,66,o),
(260,21,o),
(280,45,cs),
(300,69,o),
(240,150,o),
(216,170,cs)
);
},
{
closed = 1;
nodes = (
(279,118,o),
(188,163,o),
(168,139,cs),
(148,115,o),
(208,34,o),
(231,14,cs),
(255,-6,o),
(290,-4,o),
(310,20,cs),
(330,44,o),
(326,78,o),
(302,98,cs)
);
},
{
closed = 1;
nodes = (
(394,78,o),
(390,44,o),
(410,20,cs),
(430,-4,o),
(465,-6,o),
(488,14,cs),
(512,34,o),
(572,115,o),
(552,139,cs),
(532,163,o),
(441,118,o),
(418,98,cs)
);
},
{
closed = 1;
nodes = (
(480,150,o),
(420,69,o),
(440,45,cs),
(460,21,o),
(551,66,o),
(574,86,cs),
(598,106,o),
(602,140,o),
(582,164,cs),
(562,188,o),
(527,190,o),
(504,170,cs)
);
},
{
closed = 1;
nodes = (
(333,110,o),
(310,86,o),
(310,55,c),
(310,24,o),
(333,0,o),
(364,0,c),
(395,0,o),
(420,24,o),
(420,55,c),
(420,86,o),
(395,110,o),
(364,110,c)
);
},
{
closed = 1;
nodes = (
(116,270,o),
(93,246,o),
(93,215,c),
(93,184,o),
(116,160,o),
(147,160,c),
(178,160,o),
(203,184,o),
(203,215,c),
(203,246,o),
(178,270,o),
(147,270,c)
);
},
{
closed = 1;
nodes = (
(522,270,o),
(499,246,o),
(499,215,c),
(499,184,o),
(522,160,o),
(553,160,c),
(584,160,o),
(609,184,o),
(609,215,c),
(609,246,o),
(584,270,o),
(553,270,c)
);
}
);
width = 700;
}
);
unicode = 85;
},
{
glyphname = V;
lastChange = "2020-12-30 10:49:16 +0000";
layers = (
{
layerId = "C8365536-00F6-4CBD-B31D-2172D190A829";
shapes = (
{
closed = 1;
nodes = (
(104,680,o),
(79,656,o),
(79,625,cs),
(79,594,o),
(104,570,o),
(135,570,cs),
(166,570,o),
(264,595,o),
(264,625,cs),
(264,655,o),
(166,680,o),
(135,680,cs)
);
},
{
closed = 1;
nodes = (
(184,272,o),
(161,250,o),
(161,222,cs),
(161,194,o),
(184,172,o),
(212,172,cs),
(240,172,o),
(261,194,o),
(261,222,cs),
(261,250,o),
(240,272,o),
(212,272,cs)
);
},
{
closed = 1;
nodes = (
(107,510,o),
(84,408,o),
(84,380,cs),
(84,352,o),
(107,330,o),
(135,330,cs),
(163,330,o),
(184,352,o),
(184,380,cs),
(184,408,o),
(161,510,o),
(135,510,cs)
);
},
{
closed = 1;
nodes = (
(107,510,o),
(84,488,o),
(84,460,cs),
(84,432,o),
(107,410,o),
(135,410,cs),
(163,410,o),
(184,432,o),
(184,460,cs),
(184,488,o),
(161,510,o),
(135,510,cs)
);
},
{
closed = 1;
nodes = (
(107,590,o),
(84,568,o),
(84,540,cs),
(84,512,o),
(107,410,o),
(135,410,cs),
(163,410,o),
(184,512,o),
(184,540,cs),
(184,568,o),
(161,590,o),
(135,590,cs)
);
},
{
closed = 1;
nodes = (
(263,110,o),
(238,86,o),
(238,55,cs),
(238,24,o),
(263,0,o),
(294,0,cs),
(325,0,o),
(423,24,o),
(423,55,cs),
(423,86,o),
(325,110,o),
(294,110,cs)
);
},
{
closed = 1;
nodes = (
(320,110,o),
(295,86,o),
(295,55,cs),
(295,24,o),
(320,0,o),
(351,0,cs),
(382,0,o),
(405,24,o),
(405,55,cs),
(405,86,o),
(382,110,o),
(351,110,cs)
);
},
{
closed = 1;
nodes = (
(534,680,o),
(436,656,o),
(436,625,cs),
(436,594,o),
(534,570,o),
(565,570,cs),
(596,570,o),
(621,594,o),
(621,625,cs),
(621,656,o),
(596,680,o),
(565,680,cs)
);
},
{
closed = 1;
nodes = (
(539,510,o),
(516,408,o),
(516,380,cs),
(516,352,o),
(537,330,o),
(565,330,cs),
(593,330,o),
(616,352,o),
(616,380,cs),
(616,408,o),
(593,510,o),
(565,510,cs)
);
},
{
closed = 1;
nodes = (
(539,510,o),
(516,488,o),
(516,460,cs),
(516,432,o),
(537,410,o),
(565,410,cs),
(593,410,o),
(616,432,o),
(616,460,cs),
(616,488,o),
(593,510,o),
(565,510,cs)
);
},
{
closed = 1;
nodes = (
(539,590,o),
(516,568,o),
(516,540,cs),
(516,512,o),
(537,410,o),
(565,410,cs),
(593,410,o),
(616,512,o),
(616,540,cs),
(616,568,o),
(593,590,o),
(565,590,cs)
);
},
{
closed = 1;
nodes = (
(375,110,o),
(277,86,o),
(277,55,cs),
(277,24,o),
(375,0,o),
(406,0,cs),
(437,0,o),
(462,24,o),
(462,55,cs),
(462,86,o),
(437,110,o),
(406,110,cs)
);
},
{
closed = 1;
nodes = (
(179,680,o),
(79,656,o),
(79,625,c),
(79,594,o),
(179,570,o),
(209,570,c),
(239,570,o),
(264,595,o),
(264,625,c),
(264,655,o),
(239,680,o),
(209,680,c)
);
},
{
closed = 1;
nodes = (
(461,680,o),
(436,656,o),
(436,625,c),
(436,594,o),
(461,570,o),
(491,570,c),
(521,570,o),
(621,594,o),
(621,625,c),
(621,656,o),
(521,680,o),
(491,680,c)
);
},
{
closed = 1;
nodes = (
(188,362,o),
(154,371,o),
(128,356,c),
(102,341,o),
(93,306,o),
(108,280,c),
(123,254,o),
(195,181,o),
(221,195,c),
(247,210,o),
(218,309,o),
(204,335,c)
);
},
{
closed = 1;
nodes = (
(296,186,o),
(225,260,o),
(199,245,c),
(173,230,o),
(201,131,o),
(216,105,c),
(232,79,o),
(266,70,o),
(292,84,c),
(318,99,o),
(327,134,o),
(312,160,c)
);
},
{
closed = 1;
nodes = (
(454,272,o),
(433,250,o),
(433,222,cs),
(433,194,o),
(454,172,o),
(482,172,cs),
(510,172,o),
(533,194,o),
(533,222,cs),
(533,250,o),
(510,272,o),
(482,272,cs)
);
},
{
closed = 1;
nodes = (
(476,309,o),
(447,210,o),
(473,195,c),
(499,181,o),
(571,254,o),
(586,280,c),
(601,306,o),
(592,341,o),
(566,356,c),
(540,371,o),
(506,362,o),
(490,335,c)
);
},
{
closed = 1;
nodes = (
(367,134,o),
(376,99,o),
(402,84,c),
(428,70,o),
(462,79,o),
(478,105,c),
(493,131,o),
(521,230,o),
(495,245,c),
(469,260,o),
(398,186,o),
(382,160,c)
);
}
);
width = 700;
}
);
unicode = 86;
},
{
glyphname = W;
lastChange = "2020-12-30 10:35:32 +0000";
layers = (
{
guides = (
{
pos = (123,437);
}
);
layerId = "C8365536-00F6-4CBD-B31D-2172D190A829";
shapes = (
{
closed = 1;
nodes = (
(50,680,o),
(25,656,o),
(25,625,cs),
(25,594,o),
(50,570,o),
(81,570,cs),
(112,570,o),
(210,594,o),
(210,625,cs),
(210,656,o),
(112,680,o),
(81,680,cs)
);
},
{
closed = 1;
nodes = (
(170,110,o),
(147,86,o),
(147,55,cs),
(147,24,o),
(170,0,o),
(201,0,cs),
(232,0,o),
(257,24,o),
(257,55,cs),
(257,86,o),
(232,110,o),
(201,110,cs)
);
},
{
closed = 1;
nodes = (
(319,680,o),
(294,656,o),
(294,625,cs),
(294,594,o),
(319,570,o),
(350,570,cs),
(381,570,o),
(404,594,o),
(404,625,cs),
(404,656,o),
(381,680,o),
(350,680,cs)
);
},
{
closed = 1;
nodes = (
(588,680,o),
(490,656,o),
(490,625,cs),
(490,594,o),
(588,570,o),
(619,570,cs),
(650,570,o),
(675,594,o),
(675,625,cs),
(675,656,o),
(650,680,o),
(619,680,cs)
);
},
{
closed = 1;
nodes = (
(468,110,o),
(445,86,o),
(445,55,cs),
(445,24,o),
(468,0,o),
(499,0,cs),
(530,0,o),
(555,24,o),
(555,55,c),
(555,86,o),
(530,110,o),
(499,110,cs)
);
},
{
closed = 1;
nodes = (
(53,590,o),
(30,568,o),
(30,540,c),
(30,512,o),
(53,410,o),
(81,410,cs),
(109,410,o),
(130,512,o),
(130,540,cs),
(130,568,o),
(107,590,o),
(81,590,cs)
);
},
{
closed = 1;
nodes = (
(322,590,o),
(299,568,o),
(299,540,cs),
(299,512,o),
(322,410,o),
(350,410,cs),
(378,410,o),
(399,512,o),
(399,540,cs),
(399,568,o),
(376,590,o),
(350,590,cs)
);
},
{
closed = 1;
nodes = (
(591,590,o),
(568,568,o),
(568,540,cs),
(568,512,o),
(591,410,o),
(619,410,cs),
(647,410,o),
(668,512,o),
(668,540,cs),
(668,568,o),
(645,590,o),
(619,590,cs)
);
},
{
closed = 1;
nodes = (
(53,590,o),
(30,488,o),
(30,460,cs),
(30,432,o),
(53,410,o),
(81,410,cs),
(109,410,o),
(130,432,o),
(130,460,cs),
(130,488,o),
(107,590,o),
(81,590,cs)
);
},
{
closed = 1;
nodes = (
(322,590,o),
(299,488,o),
(299,460,cs),
(299,432,o),
(322,410,o),
(350,410,cs),
(378,410,o),
(399,432,o),
(399,460,cs),
(399,488,o),
(376,590,o),
(350,590,cs)
);
},
{
closed = 1;
nodes = (
(591,590,o),
(568,488,o),
(568,460,cs),
(568,432,o),
(591,410,o),
(619,410,cs),
(647,410,o),
(668,432,o),
(668,460,cs),
(668,488,o),
(645,590,o),
(619,590,cs)
);
},
{
closed = 1;
nodes = (
(125,680,o),
(25,656,o),
(25,625,cs),
(25,594,o),
(125,570,o),
(156,570,cs),
(187,570,o),
(210,594,o),
(210,625,cs),
(210,656,o),
(187,680,o),
(156,680,cs)
);
},
{
closed = 1;
nodes = (
(513,680,o),
(490,656,o),
(490,625,cs),
(490,594,o),
(513,570,o),
(544,570,cs),
(575,570,o),
(675,594,o),
(675,625,cs),
(675,656,o),
(575,680,o),
(544,680,cs)
);
},
{
closed = 1;
nodes = (
(67,433,o),
(48,406,o),
(52,378,cs),
(56,351,o),
(98,254,o),
(126,260,cs),
(153,266,o),
(157,368,o),
(151,396,cs),
(145,424,o),
(120,441,o),
(94,437,cs)
);
},
{
closed = 1;
nodes = (
(67,433,o),
(61,328,o),
(67,300,cs),
(73,273,o),
(98,254,o),
(126,260,cs),
(153,266,o),
(170,290,o),
(166,318,cs),
(162,345,o),
(120,441,o),
(94,437,cs)
);
},
{
closed = 1;
nodes = (
(106,271,o),
(87,244,o),
(91,216,cs),
(95,189,o),
(137,92,o),
(165,98,cs),
(192,104,o),
(196,206,o),
(190,234,cs),
(184,262,o),
(159,279,o),
(133,275,cs)
);
},
{
closed = 1;
nodes = (
(106,271,o),
(100,166,o),
(106,138,cs),
(112,111,o),
(137,92,o),
(165,98,cs),
(192,104,o),
(209,128,o),
(204,156,cs),
(199,183,o),
(159,279,o),
(133,275,cs)
);
},
{
closed = 1;
nodes = (
(578,441,o),
(553,424,o),
(547,396,cs),
(541,368,o),
(545,266,o),
(572,260,cs),
(600,254,o),
(642,351,o),
(646,378,cs),
(650,406,o),
(631,433,o),
(604,437,cs)
);
},
{
closed = 1;
nodes = (
(578,441,o),
(536,345,o),
(532,318,cs),
(528,290,o),
(545,266,o),
(572,260,cs),
(600,254,o),
(625,273,o),
(631,300,cs),
(637,328,o),
(631,433,o),
(604,437,cs)
);
},
{
closed = 1;
nodes = (
(539,279,o),
(514,262,o),
(508,234,cs),
(502,206,o),
(506,104,o),
(533,98,cs),
(561,92,o),
(603,189,o),
(607,216,cs),
(611,244,o),
(592,271,o),
(565,275,cs)
);
},
{
closed = 1;
nodes = (
(539,279,o),
(499,183,o),
(494,156,cs),
(489,128,o),
(506,104,o),
(533,98,cs),
(561,92,o),
(586,111,o),
(592,138,cs),
(598,166,o),
(592,271,o),
(565,275,cs)
);
},
{
closed = 1;
nodes = (
(280,441,o),
(255,424,o),
(249,396,cs),
(243,368,o),
(247,266,o),
(274,260,cs),
(302,254,o),
(344,351,o),
(348,378,cs),
(352,406,o),
(333,433,o),
(306,437,cs)
);
},
{
closed = 1;
nodes = (
(280,441,o),
(238,345,o),
(234,318,cs),
(230,290,o),
(247,266,o),
(274,260,cs),
(302,254,o),
(327,273,o),
(333,300,cs),
(339,328,o),
(333,433,o),
(306,437,cs)
);
},
{
closed = 1;
nodes = (
(241,279,o),
(216,262,o),
(210,234,cs),
(204,206,o),
(208,104,o),
(235,98,cs),
(263,92,o),
(305,189,o),
(309,216,cs),
(313,244,o),
(294,271,o),
(267,275,cs)
);
},
{
closed = 1;
nodes = (
(241,279,o),
(201,183,o),
(196,156,cs),
(191,128,o),
(208,104,o),
(235,98,cs),
(263,92,o),
(288,111,o),
(294,138,cs),
(300,166,o),
(294,271,o),
(267,275,cs)
);
},
{
closed = 1;
nodes = (
(364,432,o),
(345,405,o),
(349,377,cs),
(353,350,o),
(395,253,o),
(423,259,cs),
(450,265,o),
(454,367,o),
(448,395,cs),
(442,423,o),
(417,440,o),
(391,436,cs)
);
},
{
closed = 1;
nodes = (
(364,432,o),
(358,327,o),
(364,299,cs),
(370,272,o),
(395,253,o),
(423,259,cs),
(450,265,o),
(467,289,o),
(463,317,cs),
(459,344,o),
(417,440,o),
(391,436,cs)
);
},
{
closed = 1;
nodes = (
(403,270,o),
(384,243,o),
(388,215,cs),
(392,188,o),
(434,91,o),
(462,97,cs),
(489,103,o),
(493,205,o),
(487,233,cs),
(481,261,o),
(456,278,o),
(430,274,cs)
);
},
{
closed = 1;
nodes = (
(403,270,o),
(397,165,o),
(403,137,cs),
(409,110,o),
(434,91,o),
(462,97,cs),
(489,103,o),
(506,127,o),
(501,155,cs),
(496,182,o),
(456,278,o),
(430,274,cs)
);
}
);
width = 700;
}
);
unicode = 87;
},
{
glyphname = X;
lastChange = "2023-02-13 09:05:37 +0000";
layers = (
{
layerId = "C8365536-00F6-4CBD-B31D-2172D190A829";
shapes = (
{
closed = 1;
nodes = (
(102,680,o),
(77,656,o),
(77,625,cs),
(77,594,o),
(102,570,o),
(133,570,cs),
(164,570,o),
(262,594,o),
(262,625,cs),
(262,656,o),
(164,680,o),
(133,680,cs)
);
},
{
closed = 1;
nodes = (
(527,680,o),
(429,656,o),
(429,625,cs),
(429,594,o),
(527,570,o),
(558,570,cs),
(589,570,o),
(614,594,o),
(614,625,cs),
(614,656,o),
(589,680,o),
(558,680,cs)
);
},
{
closed = 1;
nodes = (
(164,0,o),
(262,24,o),
(262,55,cs),
(262,86,o),
(164,110,o),
(133,110,cs),
(102,110,o),
(77,86,o),
(77,55,cs),
(77,24,o),
(102,0,o),
(133,0,cs)
);
},
{
closed = 1;
nodes = (
(589,0,o),
(614,24,o),
(614,55,cs),
(614,86,o),
(589,110,o),
(558,110,cs),
(527,110,o),
(429,86,o),
(429,55,cs),
(429,24,o),
(527,0,o),
(558,0,cs)
);
},
{
closed = 1;
nodes = (
(239,0,o),
(262,24,o),
(262,55,cs),
(262,86,o),
(239,110,o),
(208,110,cs),
(177,110,o),
(77,86,o),
(77,55,cs),
(77,24,o),
(177,0,o),
(208,0,cs)
);
},
{
closed = 1;
nodes = (
(514,0,o),
(614,24,o),
(614,55,cs),
(614,86,o),
(514,110,o),
(483,110,cs),
(452,110,o),
(429,86,o),
(429,55,cs),
(429,24,o),
(452,0,o),
(483,0,cs)
);
},
{
closed = 1;
nodes = (
(177,680,o),
(77,656,o),
(77,625,cs),
(77,594,o),
(177,570,o),
(208,570,cs),
(239,570,o),
(262,594,o),
(262,625,cs),
(262,656,o),
(239,680,o),
(208,680,cs)
);
},
{
closed = 1;
nodes = (
(452,680,o),
(429,656,o),
(429,625,cs),
(429,594,o),
(452,570,o),
(483,570,cs),
(514,570,o),
(614,594,o),
(614,625,cs),
(614,656,o),
(514,680,o),
(483,680,cs)
);
},
{
closed = 1;
nodes = (
(196,540,o),
(136,599,o),
(112,585,cs),
(88,571,o),
(109,490,o),
(123,466,cs),
(137,442,o),
(168,433,o),
(192,447,cs),
(216,461,o),
(224,492,o),
(210,516,cs)
);
},
{
closed = 1;
nodes = (
(167,590,o),
(136,599,o),
(112,585,cs),
(88,571,o),
(80,540,o),
(94,516,cs),
(108,492,o),
(168,433,o),
(192,447,cs),
(216,461,o),
(195,542,o),
(181,566,cs)
);
},
{
closed = 1;
nodes = (
(266,419,o),
(206,478,o),
(182,464,cs),
(158,450,o),
(179,369,o),
(193,345,cs),
(207,321,o),
(238,312,o),
(262,326,cs),
(286,340,o),
(294,371,o),
(280,395,cs)
);
},
{
closed = 1;
nodes = (
(237,469,o),
(206,478,o),
(182,464,cs),
(158,450,o),
(150,419,o),
(164,395,cs),
(178,371,o),
(238,312,o),
(262,326,cs),
(286,340,o),
(265,421,o),
(251,445,cs)
);
},
{
closed = 1;
nodes = (
(475,492,o),
(483,461,o),
(507,447,cs),
(531,433,o),
(562,442,o),
(576,466,cs),
(590,490,o),
(611,571,o),
(587,585,cs),
(563,599,o),
(503,540,o),
(489,516,cs)
);
},
{
closed = 1;
nodes = (
(504,542,o),
(483,461,o),
(507,447,cs),
(531,433,o),
(591,492,o),
(605,516,cs),
(619,540,o),
(611,571,o),
(587,585,cs),
(563,599,o),
(532,590,o),
(518,566,cs)
);
},
{
closed = 1;
nodes = (
(405,371,o),
(413,340,o),
(437,326,cs),
(461,312,o),
(492,321,o),
(506,345,cs),
(520,369,o),
(541,450,o),
(517,464,cs),
(493,478,o),
(433,419,o),
(419,395,cs)
);
},
{
closed = 1;
nodes = (
(434,421,o),
(413,340,o),
(437,326,cs),
(461,312,o),
(521,371,o),
(535,395,cs),
(549,419,o),
(541,450,o),
(517,464,cs),
(493,478,o),
(462,469,o),
(448,445,cs)
);
},
{
closed = 1;
nodes = (
(224,187,o),
(216,218,o),
(192,232,cs),
(168,246,o),
(137,237,o),
(123,213,cs),
(109,189,o),
(88,108,o),
(112,94,cs),
(136,80,o),
(196,139,o),
(210,163,cs)
);
},
{
closed = 1;
nodes = (
(195,137,o),
(216,218,o),
(192,232,cs),
(168,246,o),
(108,187,o),
(94,163,cs),
(80,139,o),
(88,108,o),
(112,94,cs),
(136,80,o),
(167,89,o),
(181,113,cs)
);
},
{
closed = 1;
nodes = (
(294,308,o),
(286,339,o),
(262,353,cs),
(238,367,o),
(207,358,o),
(193,334,cs),
(179,310,o),
(158,229,o),
(182,215,cs),
(206,201,o),
(266,260,o),
(280,284,cs)
);
},
{
closed = 1;
nodes = (
(265,258,o),
(286,339,o),
(262,353,cs),
(238,367,o),
(178,308,o),
(164,284,cs),
(150,260,o),
(158,229,o),
(182,215,cs),
(206,201,o),
(237,210,o),
(251,234,cs)
);
},
{
closed = 1;
nodes = (
(503,139,o),
(563,80,o),
(587,94,cs),
(611,108,o),
(590,189,o),
(576,213,cs),
(562,237,o),
(531,246,o),
(507,232,cs),
(483,218,o),
(475,187,o),
(489,163,cs)
);
},
{
closed = 1;
nodes = (
(532,89,o),
(563,80,o),
(587,94,cs),
(611,108,o),
(619,139,o),
(605,163,cs),
(591,187,o),
(531,246,o),
(507,232,cs),
(483,218,o),
(504,137,o),
(518,113,cs)
);
},
{
closed = 1;
nodes = (
(433,260,o),
(493,201,o),
(517,215,cs),
(541,229,o),
(520,310,o),
(506,334,cs),
(492,358,o),
(461,367,o),
(437,353,cs),
(413,339,o),
(405,308,o),
(419,284,cs)
);
},
{
closed = 1;
nodes = (
(462,210,o),
(493,201,o),
(517,215,cs),
(541,229,o),
(549,260,o),
(535,284,cs),
(521,308,o),
(461,367,o),
(437,353,cs),
(413,339,o),
(434,258,o),
(448,234,cs)
);
},
{
closed = 1;
nodes = (
(282,395,o),
(257,371,o),
(257,340,cs),
(257,309,o),
(282,285,o),
(313,285,cs),
(344,285,o),
(442,309,o),
(442,340,cs),
(442,371,o),
(344,395,o),
(313,395,cs)
);
},
{
closed = 1;
nodes = (
(357,395,o),
(257,371,o),
(257,340,cs),
(257,309,o),
(357,285,o),
(388,285,cs),
(419,285,o),
(442,309,o),
(442,340,cs),
(442,371,o),
(419,395,o),
(388,395,cs)
);
}
);
width = 700;
}
);
unicode = 88;
},
{
glyphname = Y;
lastChange = "2020-12-29 10:04:06 +0000";
layers = (
{
layerId = "C8365536-00F6-4CBD-B31D-2172D190A829";
shapes = (
{
closed = 1;
nodes = (
(110,680,o),
(85,656,o),
(85,625,cs),
(85,594,o),
(110,570,o),
(141,570,cs),
(172,570,o),
(270,594,o),
(270,625,c),
(270,656,o),
(172,680,o),
(141,680,cs)
);
},
{
closed = 1;
nodes = (
(293,358,o),
(270,336,o),
(270,308,cs),
(270,280,o),
(293,258,o),
(321,258,cs),
(349,258,o),
(430,280,o),
(430,308,cs),
(430,336,o),
(349,358,o),
(321,358,cs)
);
},
{
closed = 1;
nodes = (
(320,110,o),
(295,86,o),
(295,55,cs),
(295,24,o),
(320,0,o),
(351,0,cs),
(382,0,o),
(405,24,o),
(405,55,cs),
(405,86,o),
(382,110,o),
(351,110,cs)
);
},
{
closed = 1;
nodes = (
(528,680,o),
(430,656,o),
(430,625,cs),
(430,594,o),
(528,570,o),
(559,570,cs),
(590,570,o),
(615,594,o),
(615,625,cs),
(615,656,o),
(590,680,o),
(559,680,cs)
);
},
{
closed = 1;
nodes = (
(322,270,o),
(300,168,o),
(300,140,cs),
(300,112,o),
(323,90,o),
(351,90,cs),
(379,90,o),
(400,112,o),
(400,140,cs),
(400,168,o),
(378,270,o),
(350,270,cs)
);
},
{
closed = 1;
nodes = (
(351,358,o),
(270,336,o),
(270,308,cs),
(270,280,o),
(351,258,o),
(379,258,cs),
(407,258,o),
(430,280,o),
(430,308,cs),
(430,336,o),
(407,358,o),
(379,358,cs)
);
},
{
closed = 1;
nodes = (
(322,270,o),
(301,248,o),
(301,220,cs),
(301,192,o),
(323,90,o),
(351,90,cs),
(379,90,o),
(401,192,o),
(401,220,cs),
(401,248,o),
(378,270,o),
(350,270,cs)
);
},
{
closed = 1;
nodes = (
(185,680,o),
(85,656,o),
(85,625,cs),
(85,594,o),
(185,570,o),
(216,570,cs),
(247,570,o),
(270,594,o),
(270,625,cs),
(270,656,o),
(247,680,o),
(216,680,cs)
);
},
{
closed = 1;
nodes = (
(453,680,o),
(430,656,o),
(430,625,cs),
(430,594,o),
(453,570,o),
(484,570,cs),
(515,570,o),
(615,594,o),
(615,625,cs),
(615,656,o),
(515,680,o),
(484,680,cs)
);
},
{
closed = 1;
nodes = (
(396,369,o),
(404,338,o),
(428,324,cs),
(452,310,o),
(483,319,o),
(497,343,cs),
(511,367,o),
(532,448,o),
(508,462,cs),
(484,476,o),
(424,417,o),
(410,393,cs)
);
},
{
closed = 1;
nodes = (
(425,419,o),
(404,338,o),
(428,324,cs),
(452,310,o),
(512,369,o),
(526,393,cs),
(540,417,o),
(532,448,o),
(508,462,cs),
(484,476,o),
(453,467,o),
(439,443,cs)
);
},
{
closed = 1;
nodes = (
(468,492,o),
(476,461,o),
(500,447,cs),
(524,433,o),
(555,442,o),
(569,466,cs),
(583,490,o),
(604,571,o),
(580,585,cs),
(556,599,o),
(496,540,o),
(482,516,cs)
);
},
{
closed = 1;
nodes = (
(497,542,o),
(476,461,o),
(500,447,cs),
(524,433,o),
(584,492,o),
(598,516,cs),
(612,540,o),
(604,571,o),
(580,585,cs),
(556,599,o),
(525,590,o),
(511,566,cs)
);
},
{
closed = 1;
nodes = (
(276,417,o),
(216,476,o),
(192,462,cs),
(168,448,o),
(189,367,o),
(203,343,cs),
(217,319,o),
(248,310,o),
(272,324,cs),
(296,338,o),
(304,369,o),
(290,393,cs)
);
},
{
closed = 1;
nodes = (
(247,467,o),
(216,476,o),
(192,462,cs),
(168,448,o),
(160,417,o),
(174,393,cs),
(188,369,o),
(248,310,o),
(272,324,cs),
(296,338,o),
(275,419,o),
(261,443,cs)
);
},
{
closed = 1;
nodes = (
(204,540,o),
(144,599,o),
(120,585,cs),
(96,571,o),
(117,490,o),
(131,466,cs),
(145,442,o),
(176,433,o),
(200,447,cs),
(224,461,o),
(232,492,o),
(218,516,cs)
);
},
{
closed = 1;
nodes = (
(175,590,o),
(144,599,o),
(120,585,cs),
(96,571,o),
(88,540,o),
(102,516,cs),
(116,492,o),
(176,433,o),
(200,447,cs),
(224,461,o),
(203,542,o),
(189,566,cs)
);
}
);
width = 700;
}
);
unicode = 89;
},
{
glyphname = Z;
lastChange = "2022-12-13 11:09:14 +0000";
layers = (
{
layerId = "C8365536-00F6-4CBD-B31D-2172D190A829";
shapes = (
{
closed = 1;
nodes = (
(395,495,o),
(398,463,o),
(419,445,cs),
(441,427,o),
(472,431,o),
(490,452,cs),
(509,473,o),
(543,549,o),
(522,567,cs),
(501,585,o),
(432,537,o),
(414,517,cs)
);
},
{
closed = 1;
nodes = (
(433,539,o),
(398,463,o),
(419,445,cs),
(441,427,o),
(510,475,o),
(527,495,cs),
(546,517,o),
(543,549,o),
(522,567,cs),
(501,585,o),
(469,581,o),
(451,560,cs)
);
},
{
closed = 1;
nodes = (
(300,382,o),
(303,351,o),
(324,333,cs),
(345,315,o),
(377,318,o),
(396,339,cs),
(414,360,o),
(448,437,o),
(427,455,cs),
(406,472,o),
(337,425,o),
(319,404,cs)
);
},
{
closed = 1;
nodes = (
(338,427,o),
(303,351,o),
(324,333,cs),
(345,315,o),
(415,362,o),
(433,384,cs),
(451,405,o),
(448,437,o),
(427,455,cs),
(406,472,o),
(374,469,o),
(356,448,cs)
);
},
{
closed = 1;
nodes = (
(206,275,o),
(209,244,o),
(230,225,cs),
(251,208,o),
(283,211,o),
(302,233,cs),
(313,246,o),
(355,328,o),
(333,347,cs),
(312,366,o),
(242,317,o),
(225,296,cs)
);
},
{
closed = 1;
nodes = (
(243,319,o),
(209,244,o),
(230,225,cs),
(251,208,o),
(321,255,o),
(339,276,cs),
(357,297,o),
(354,329,o),
(333,347,cs),
(312,366,o),
(280,362,o),
(262,341,cs)
);
},
{
closed = 1;
nodes = (
(113,167,o),
(116,135,o),
(137,117,cs),
(158,99,o),
(190,103,o),
(208,124,cs),
(220,137,o),
(262,220,o),
(240,239,cs),
(218,257,o),
(149,209,o),
(132,189,cs)
);
},
{
closed = 1;
nodes = (
(150,211,o),
(116,135,o),
(137,117,cs),
(158,99,o),
(227,147,o),
(245,167,cs),
(264,189,o),
(261,221,o),
(240,239,cs),
(218,257,o),
(187,253,o),
(169,232,cs)
);
},
{
closed = 1;
nodes = (
(403,0,o),
(426,24,o),
(426,55,cs),
(426,86,o),
(403,110,o),
(372,110,cs),
(341,110,o),
(241,86,o),
(241,55,cs),
(241,24,o),
(341,0,o),
(372,0,cs)
);
},
{
closed = 1;
nodes = (
(478,0,o),
(576,24,o),
(576,55,cs),
(576,86,o),
(478,110,o),
(447,110,cs),
(416,110,o),
(391,86,o),
(391,55,cs),
(391,24,o),
(416,0,o),
(447,0,cs)
);
},
{
closed = 1;
nodes = (
(178,0,o),
(276,24,o),
(276,55,cs),
(276,86,o),
(178,110,o),
(147,110,cs),
(116,110,o),
(91,86,o),
(91,55,c),
(91,24,o),
(116,0,o),
(147,0,cs)
);
},
{
closed = 1;
nodes = (
(253,0,o),
(276,24,o),
(276,55,cs),
(276,86,o),
(253,110,o),
(222,110,cs),
(191,110,o),
(91,86,o),
(91,55,cs),
(91,24,o),
(191,0,o),
(222,0,cs)
);
},
{
closed = 1;
nodes = (
(328,0,o),
(426,24,o),
(426,55,cs),
(426,86,o),
(328,110,o),
(297,110,cs),
(266,110,o),
(241,86,o),
(241,55,cs),
(241,24,o),
(266,0,o),
(297,0,cs)
);
},
{
closed = 1;
nodes = (
(553,0,o),
(576,24,o),
(576,55,cs),
(576,86,o),
(553,110,o),
(522,110,cs),
(491,110,o),
(391,86,o),
(391,55,cs),
(391,24,o),
(491,0,o),
(522,0,cs)
);
},
{
closed = 1;
nodes = (
(264,680,o),
(241,656,o),
(241,625,cs),
(241,594,o),
(264,570,o),
(295,570,cs),
(326,570,o),
(426,594,o),
(426,625,cs),
(426,656,o),
(326,680,o),
(295,680,cs)
);
},
{
closed = 1;
nodes = (
(189,680,o),
(91,656,o),
(91,625,cs),
(91,594,o),
(189,570,o),
(220,570,cs),
(251,570,o),
(276,594,o),
(276,625,cs),
(276,656,o),
(251,680,o),
(220,680,cs)
);
},
{
closed = 1;
nodes = (
(489,680,o),
(391,656,o),
(391,625,cs),
(391,594,o),
(489,570,o),
(520,570,cs),
(551,570,o),
(576,594,o),
(576,625,c),
(576,656,o),
(551,680,o),
(520,680,cs)
);
},
{
closed = 1;
nodes = (
(414,680,o),
(391,656,o),
(391,625,cs),
(391,594,o),
(414,570,o),
(445,570,cs),
(476,570,o),
(576,594,o),
(576,625,cs),
(576,656,o),
(476,680,o),
(445,680,cs)
);
},
{
closed = 1;
nodes = (
(339,680,o),
(241,656,o),
(241,625,cs),
(241,594,o),
(339,570,o),
(370,570,cs),
(401,570,o),
(426,594,o),
(426,625,cs),
(426,656,o),
(401,680,o),
(370,680,cs)
);
},
{
closed = 1;
nodes = (
(114,680,o),
(91,656,o),
(91,625,cs),
(91,594,o),
(114,570,o),
(145,570,cs),
(176,570,o),
(276,594,o),
(276,625,cs),
(276,656,o),
(176,680,o),
(145,680,cs)
);
},
{
closed = 1;
nodes = (
(117,590,o),
(96,568,o),
(96,540,cs),
(96,512,o),
(117,400,o),
(145,400,cs),
(173,400,o),
(196,512,o),
(196,540,cs),
(196,568,o),
(173,590,o),
(145,590,cs)
);
},
{
closed = 1;
nodes = (
(117,590,o),
(96,478,o),
(96,450,cs),
(96,422,o),
(117,400,o),
(145,400,cs),
(173,400,o),
(196,422,o),
(196,450,cs),
(196,478,o),
(173,590,o),
(145,590,cs)
);
},
{
closed = 1;
nodes = (
(514,596,o),
(503,585,o),
(503,571,cs),
(503,557,o),
(514,546,o),
(528,546,cs),
(542,546,o),
(553,557,o),
(553,571,cs),
(553,585,o),
(542,596,o),
(528,596,cs)
);
},
{
closed = 1;
nodes = (
(125,140,o),
(114,129,o),
(114,115,c),
(114,101,o),
(125,90,o),
(139,90,c),
(153,90,o),
(164,101,o),
(164,115,c),
(164,129,o),
(153,140,o),
(139,140,c)
);
},
{
closed = 1;
nodes = (
(542,86,o),
(596,174,o),
(606,200,cs),
(615,227,o),
(603,255,o),
(577,264,cs),
(550,274,o),
(521,261,o),
(512,235,cs),
(502,208,o),
(489,105,o),
(515,95,cs)
);
},
{
closed = 1;
nodes = (
(540,86,o),
(569,99,o),
(578,125,cs),
(588,152,o),
(603,255,o),
(577,264,cs),
(550,274,o),
(494,186,o),
(484,160,cs),
(475,133,o),
(489,105,o),
(515,95,cs)
);
}
);
width = 700;
}
);
unicode = 90;
},
{
glyphname = O.ss01;
lastChange = "2020-12-30 11:13:54 +0000";
layers = (
{
layerId = "C8365536-00F6-4CBD-B31D-2172D190A829";
shapes = (
{
closed = 1;
nodes = (
(263,570,o),
(363,595,o),
(363,625,c),
(363,655,o),
(263,680,o),
(233,680,c),
(203,680,o),
(178,655,o),
(178,625,c),
(178,595,o),
(203,570,o),
(233,570,c)
);
},
{
closed = 1;
nodes = (
(413,570,o),
(513,595,o),
(513,625,c),
(513,655,o),
(413,680,o),
(383,680,c),
(353,680,o),
(328,655,o),
(328,625,c),
(328,595,o),
(353,570,o),
(383,570,c)
);
},
{
closed = 1;
nodes = (
(488,570,o),
(513,595,o),
(513,625,c),
(513,655,o),
(488,680,o),
(458,680,c),
(428,680,o),
(328,655,o),
(328,625,c),
(328,595,o),
(428,570,o),
(458,570,c)
);
},
{
closed = 1;
nodes = (
(116,207,o),
(138,309,o),
(138,337,c),
(138,365,o),
(116,387,o),
(88,387,c),
(60,387,o),
(38,365,o),
(38,337,c),
(38,309,o),
(60,207,o),
(88,207,c)
);
},
{
closed = 1;
nodes = (
(116,207,o),
(138,229,o),
(138,257,c),
(138,285,o),
(116,387,o),
(88,387,c),
(60,387,o),
(38,285,o),
(38,257,c),
(38,229,o),
(60,207,o),
(88,207,c)
);
},
{
closed = 1;
nodes = (
(116,367,o),
(138,389,o),
(138,417,c),
(138,445,o),
(116,547,o),
(88,547,c),
(60,547,o),
(38,445,o),
(38,417,c),
(38,389,o),
(60,367,o),
(88,367,c)
);
},
{
closed = 1;
nodes = (
(203,110,o),
(178,85,o),
(178,55,c),
(178,25,o),
(203,0,o),
(233,0,c),
(263,0,o),
(363,25,o),
(363,55,c),
(363,85,o),
(263,110,o),
(233,110,c)
);
},
{
closed = 1;
nodes = (
(353,110,o),
(328,85,o),
(328,55,c),
(328,25,o),
(353,0,o),
(383,0,c),
(413,0,o),
(513,25,o),
(513,55,c),
(513,85,o),
(413,110,o),
(383,110,c)
);
},
{
closed = 1;
nodes = (
(428,110,o),
(328,85,o),
(328,55,c),
(328,25,o),
(428,0,o),
(458,0,c),
(488,0,o),
(513,25,o),
(513,55,c),
(513,85,o),
(488,110,o),
(458,110,c)
);
},
{
closed = 1;
nodes = (
(60,547,o),
(38,525,o),
(38,497,c),
(38,469,o),
(60,367,o),
(88,367,c),
(116,367,o),
(138,469,o),
(138,497,c),
(138,525,o),
(116,547,o),
(88,547,c)
);
},
{
closed = 1;
nodes = (
(116,127,o),
(138,149,o),
(138,177,c),
(138,205,o),
(116,227,o),
(88,227,c),
(60,227,o),
(38,205,o),
(38,177,c),
(38,149,o),
(60,127,o),
(88,127,c)
);
},
{
closed = 1;
nodes = (
(338,570,o),
(363,595,o),
(363,625,c),
(363,655,o),
(338,680,o),
(308,680,c),
(278,680,o),
(178,655,o),
(178,625,c),
(178,595,o),
(278,570,o),
(308,570,c)
);
},
{
closed = 1;
nodes = (
(278,110,o),
(178,85,o),
(178,55,c),
(178,25,o),
(278,0,o),
(308,0,c),
(338,0,o),
(363,25,o),
(363,55,c),
(363,85,o),
(338,110,o),
(308,110,c)
);
},
{
closed = 1;
nodes = (
(295,123,o),
(231,206,o),
(211,224,cs),
(190,243,o),
(157,239,o),
(139,218,cs),
(121,197,o),
(125,166,o),
(146,148,cs),
(168,130,o),
(259,79,o),
(277,101,cs)
);
},
{
closed = 1;
nodes = (
(295,123,o),
(293,154,o),
(272,172,c),
(250,190,o),
(157,239,o),
(139,218,cs),
(121,197,o),
(186,114,o),
(207,95,cs),
(227,77,o),
(259,79,o),
(277,101,cs)
);
},
{
closed = 1;
nodes = (
(260,592,o),
(169,541,o),
(147,523,cs),
(126,505,o),
(122,474,o),
(140,453,cs),
(158,432,o),
(191,428,o),
(212,447,cs),
(232,465,o),
(296,548,o),
(278,570,cs)
);
},
{
closed = 1;
nodes = (
(260,592,o),
(228,594,o),
(208,576,cs),
(187,557,o),
(122,474,o),
(140,453,cs),
(158,432,o),
(251,481,o),
(273,499,c),
(294,517,o),
(296,548,o),
(278,570,cs)
);
},
{
closed = 1;
nodes = (
(631,207,o),
(653,309,o),
(653,337,c),
(653,365,o),
(631,387,o),
(603,387,c),
(575,387,o),
(553,365,o),
(553,337,c),
(553,309,o),
(575,207,o),
(603,207,c)
);
},
{
closed = 1;
nodes = (
(631,207,o),
(653,229,o),
(653,257,c),
(653,285,o),
(631,387,o),
(603,387,c),
(575,387,o),
(553,285,o),
(553,257,c),
(553,229,o),
(575,207,o),
(603,207,c)
);
},
{
closed = 1;
nodes = (
(631,367,o),
(653,389,o),
(653,417,c),
(653,445,o),
(631,547,o),
(603,547,c),
(575,547,o),
(553,445,o),
(553,417,c),
(553,389,o),
(575,367,o),
(603,367,c)
);
},
{
closed = 1;
nodes = (
(575,547,o),
(553,525,o),
(553,497,c),
(553,469,o),
(575,367,o),
(603,367,c),
(631,367,o),
(653,469,o),
(653,497,c),
(653,525,o),
(631,547,o),
(603,547,c)
);
},
{
closed = 1;
nodes = (
(631,127,o),
(653,149,o),
(653,177,c),
(653,205,o),
(631,227,o),
(603,227,c),
(575,227,o),
(553,205,o),
(553,177,c),
(553,149,o),
(575,127,o),
(603,127,c)
);
},
{
closed = 1;
nodes = (
(432,79,o),
(523,130,o),
(545,148,cs),
(566,166,o),
(570,197,o),
(552,218,cs),
(534,239,o),
(501,243,o),
(480,224,cs),
(460,206,o),
(396,123,o),
(414,101,cs)
);
},
{
closed = 1;
nodes = (
(432,79,o),
(464,77,o),
(484,95,cs),
(505,114,o),
(570,197,o),
(552,218,cs),
(534,239,o),
(441,190,o),
(419,172,c),
(398,154,o),
(396,123,o),
(414,101,cs)
);
},
{
closed = 1;
nodes = (
(395,548,o),
(459,465,o),
(479,447,cs),
(500,428,o),
(533,432,o),
(551,453,cs),
(569,474,o),
(565,505,o),
(544,523,cs),
(522,541,o),
(431,592,o),
(413,570,cs)
);
},
{
closed = 1;
nodes = (
(395,548,o),
(397,517,o),
(418,499,c),
(440,481,o),
(533,432,o),
(551,453,cs),
(569,474,o),
(504,557,o),
(483,576,cs),
(463,594,o),
(431,592,o),
(413,570,cs)
);
}
);
width = 700;
}
);
},
{
glyphname = O.ss02;
lastChange = "2020-12-30 11:25:22 +0000";
layers = (
{
guides = (
{
angle = 90;
pos = (271,570);
}
);
layerId = "C8365536-00F6-4CBD-B31D-2172D190A829";
shapes = (
{
closed = 1;
nodes = (
(345,570,o),
(445,595,o),
(445,625,c),
(445,655,o),
(345,680,o),
(315,680,c),
(285,680,o),
(260,655,o),
(260,625,c),
(260,595,o),
(285,570,o),
(315,570,c)
);
},
{
closed = 1;
nodes = (
(160,207,o),
(182,309,o),
(182,337,c),
(182,365,o),
(160,387,o),
(132,387,c),
(104,387,o),
(82,365,o),
(82,337,c),
(82,309,o),
(104,207,o),
(132,207,c)
);
},
{
closed = 1;
nodes = (
(160,207,o),
(182,229,o),
(182,257,c),
(182,285,o),
(160,387,o),
(132,387,c),
(104,387,o),
(82,285,o),
(82,257,c),
(82,229,o),
(104,207,o),
(132,207,c)
);
},
{
closed = 1;
nodes = (
(160,367,o),
(182,389,o),
(182,417,c),
(182,445,o),
(160,547,o),
(132,547,c),
(104,547,o),
(82,445,o),
(82,417,c),
(82,389,o),
(104,367,o),
(132,367,c)
);
},
{
closed = 1;
nodes = (
(286,110,o),
(261,85,o),
(261,55,c),
(261,25,o),
(286,0,o),
(316,0,c),
(346,0,o),
(446,25,o),
(446,55,c),
(446,85,o),
(346,110,o),
(316,110,c)
);
},
{
closed = 1;
nodes = (
(104,547,o),
(82,525,o),
(82,497,c),
(82,469,o),
(104,367,o),
(132,367,c),
(160,367,o),
(182,469,o),
(182,497,c),
(182,525,o),
(160,547,o),
(132,547,c)
);
},
{
closed = 1;
nodes = (
(160,127,o),
(182,149,o),
(182,177,c),
(182,205,o),
(160,227,o),
(132,227,c),
(104,227,o),
(82,205,o),
(82,177,c),
(82,149,o),
(104,127,o),
(132,127,c)
);
},
{
closed = 1;
nodes = (
(420,570,o),
(445,595,o),
(445,625,c),
(445,655,o),
(420,680,o),
(390,680,c),
(360,680,o),
(260,655,o),
(260,625,c),
(260,595,o),
(360,570,o),
(390,570,c)
);
},
{
closed = 1;
nodes = (
(361,110,o),
(261,85,o),
(261,55,c),
(261,25,o),
(361,0,o),
(391,0,c),
(421,0,o),
(446,25,o),
(446,55,c),
(446,85,o),
(421,110,o),
(391,110,c)
);
},
{
closed = 1;
nodes = (
(339,123,o),
(275,206,o),
(255,224,cs),
(234,243,o),
(201,239,o),
(183,218,cs),
(165,197,o),
(169,166,o),
(190,148,cs),
(212,130,o),
(303,79,o),
(321,101,cs)
);
},
{
closed = 1;
nodes = (
(339,123,o),
(337,154,o),
(316,172,c),
(294,190,o),
(201,239,o),
(183,218,cs),
(165,197,o),
(230,114,o),
(251,95,cs),
(271,77,o),
(303,79,o),
(321,101,cs)
);
},
{
closed = 1;
nodes = (
(261,633,o),
(170,582,o),
(148,564,cs),
(127,546,o),
(123,515,o),
(141,494,cs),
(159,473,o),
(192,469,o),
(213,488,cs),
(233,506,o),
(297,589,o),
(279,611,cs)
);
},
{
closed = 1;
nodes = (
(261,633,o),
(229,635,o),
(209,617,cs),
(188,598,o),
(123,515,o),
(141,494,cs),
(159,473,o),
(252,522,o),
(274,540,c),
(295,558,o),
(297,589,o),
(279,611,cs)
);
},
{
closed = 1;
nodes = (
(596,207,o),
(618,309,o),
(618,337,c),
(618,365,o),
(596,387,o),
(568,387,c),
(540,387,o),
(518,365,o),
(518,337,c),
(518,309,o),
(540,207,o),
(568,207,c)
);
},
{
closed = 1;
nodes = (
(596,207,o),
(618,229,o),
(618,257,c),
(618,285,o),
(596,387,o),
(568,387,c),
(540,387,o),
(518,285,o),
(518,257,c),
(518,229,o),
(540,207,o),
(568,207,c)
);
},
{
closed = 1;
nodes = (
(596,367,o),
(618,389,o),
(618,417,c),
(618,445,o),
(596,547,o),
(568,547,c),
(540,547,o),
(518,445,o),
(518,417,c),
(518,389,o),
(540,367,o),
(568,367,c)
);
},
{
closed = 1;
nodes = (
(540,547,o),
(518,525,o),
(518,497,c),
(518,469,o),
(540,367,o),
(568,367,c),
(596,367,o),
(618,469,o),
(618,497,c),
(618,525,o),
(596,547,o),
(568,547,c)
);
},
{
closed = 1;
nodes = (
(596,127,o),
(618,149,o),
(618,177,c),
(618,205,o),
(596,227,o),
(568,227,c),
(540,227,o),
(518,205,o),
(518,177,c),
(518,149,o),
(540,127,o),
(568,127,c)
);
},
{
closed = 1;
nodes = (
(397,79,o),
(488,130,o),
(510,148,cs),
(531,166,o),
(535,197,o),
(517,218,cs),
(499,239,o),
(466,243,o),
(445,224,cs),
(425,206,o),
(361,123,o),
(379,101,cs)
);
},
{
closed = 1;
nodes = (
(397,79,o),
(429,77,o),
(449,95,cs),
(470,114,o),
(535,197,o),
(517,218,cs),
(499,239,o),
(406,190,o),
(384,172,c),
(363,154,o),
(361,123,o),
(379,101,cs)
);
},
{
closed = 1;
nodes = (
(404,589,o),
(468,506,o),
(488,488,cs),
(509,469,o),
(542,473,o),
(560,494,cs),
(578,515,o),
(574,546,o),
(553,564,cs),
(531,582,o),
(440,633,o),
(422,611,cs)
);
},
{
closed = 1;
nodes = (
(404,589,o),
(406,558,o),
(427,540,c),
(449,522,o),
(542,473,o),
(560,494,cs),
(578,515,o),
(513,598,o),
(492,617,cs),
(472,635,o),
(440,633,o),
(422,611,cs)
);
}
);
width = 700;
}
);
},
{
glyphname = a;
lastChange = "2022-12-13 10:49:59 +0000";
layers = (
{
guides = (
{
angle = 90;
pos = (495,55);
},
{
angle = 90;
pos = (125,80);
},
{
angle = 90;
pos = (324,54);
},
{
angle = 90;
pos = (479,87);
}
);
layerId = "C8365536-00F6-4CBD-B31D-2172D190A829";
shapes = (
{
closed = 1;
nodes = (
(184,110,o),
(159,86,o),
(159,55,cs),
(159,24,o),
(184,0,o),
(215,0,cs),
(246,0,o),
(344,24,o),
(344,55,cs),
(344,86,o),
(246,110,o),
(215,110,cs)
);
},
{
closed = 1;
nodes = (
(259,110,o),
(159,86,o),
(159,55,cs),
(159,24,o),
(259,0,o),
(290,0,cs),
(321,0,o),
(344,24,o),
(344,55,cs),
(344,86,o),
(321,110,o),
(290,110,cs)
);
},
{
closed = 1;
nodes = (
(136,103,o),
(125,92,o),
(125,78,c),
(125,64,o),
(136,53,o),
(150,53,c),
(164,53,o),
(175,64,o),
(175,78,c),
(175,92,o),
(164,103,o),
(150,103,c)
);
},
{
closed = 1;
nodes = (
(520,270,o),
(499,168,o),
(499,140,c),
(499,112,o),
(520,90,o),
(548,90,c),
(576,90,o),
(599,112,o),
(599,140,c),
(599,168,o),
(576,270,o),
(548,270,c)
);
},
{
closed = 1;
nodes = (
(520,270,o),
(499,248,o),
(499,220,cs),
(499,192,o),
(520,90,o),
(548,90,c),
(576,90,o),
(599,192,o),
(599,220,c),
(599,248,o),
(576,270,o),
(548,270,c)
);
},
{
closed = 1;
nodes = (
(520,430,o),
(499,328,o),
(499,300,c),
(499,272,o),
(520,250,o),
(548,250,c),
(576,250,o),
(599,272,o),
(599,300,c),
(599,328,o),
(576,430,o),
(548,430,c)
);
},
{
closed = 1;
nodes = (
(522,430,o),
(499,408,o),
(499,380,c),
(499,352,o),
(520,250,o),
(548,250,c),
(576,250,o),
(599,352,o),
(599,380,c),
(599,408,o),
(576,430,o),
(548,430,c)
);
},
{
closed = 1;
nodes = (
(490,124,o),
(479,113,o),
(479,99,cs),
(479,85,o),
(490,74,o),
(504,74,cs),
(518,74,o),
(529,85,o),
(529,99,cs),
(529,113,o),
(518,124,o),
(504,124,cs)
);
},
{
closed = 1;
nodes = (
(537,110,o),
(512,86,o),
(512,55,cs),
(512,24,o),
(537,0,o),
(568,0,c),
(599,0,o),
(622,24,o),
(622,55,cs),
(622,89,o),
(599,110,o),
(568,110,cs)
);
},
{
closed = 1;
nodes = (
(522,412,o),
(533,423,o),
(533,437,c),
(533,451,o),
(522,462,o),
(508,462,c),
(494,462,o),
(483,451,o),
(483,437,c),
(483,423,o),
(494,412,o),
(508,412,c)
);
},
{
closed = 1;
nodes = (
(248,410,o),
(346,434,o),
(346,465,cs),
(346,496,o),
(248,520,o),
(217,520,cs),
(186,520,o),
(161,496,o),
(161,465,cs),
(161,434,o),
(186,410,o),
(217,410,c)
);
},
{
closed = 1;
nodes = (
(323,410,o),
(346,434,o),
(346,465,cs),
(346,496,o),
(323,520,o),
(292,520,cs),
(261,520,o),
(161,496,o),
(161,465,cs),
(161,434,o),
(261,410,o),
(292,410,cs)
);
},
{
closed = 1;
nodes = (
(398,410,o),
(496,434,o),
(496,465,cs),
(496,496,o),
(398,520,o),
(367,520,cs),
(336,520,o),
(311,496,o),
(311,465,cs),
(311,434,o),
(336,410,o),
(367,410,cs)
);
},
{
closed = 1;
nodes = (
(473,410,o),
(496,431,o),
(496,465,cs),
(496,496,o),
(473,520,o),
(442,520,cs),
(411,520,o),
(311,496,o),
(311,465,cs),
(311,434,o),
(411,410,o),
(442,410,cs)
);
},
{
closed = 1;
nodes = (
(246,209,o),
(344,233,o),
(344,264,cs),
(344,295,o),
(246,319,o),
(215,319,cs),
(184,319,o),
(159,295,o),
(159,264,cs),
(159,233,o),
(184,209,o),
(215,209,c)
);
},
{
closed = 1;
nodes = (
(321,209,o),
(344,233,o),
(344,264,cs),
(344,295,o),
(321,319,o),
(290,319,cs),
(259,319,o),
(159,295,o),
(159,264,cs),
(159,233,o),
(259,209,o),
(290,209,cs)
);
},
{
closed = 1;
nodes = (
(513,195,o),
(524,206,o),
(524,220,c),
(524,234,o),
(513,245,o),
(499,245,c),
(485,245,o),
(474,234,o),
(474,220,cs),
(474,206,o),
(485,195,o),
(499,195,c)
);
},
{
closed = 1;
nodes = (
(97,249,o),
(74,147,o),
(74,119,c),
(74,91,o),
(97,69,o),
(125,69,c),
(153,69,o),
(174,91,o),
(174,119,c),
(174,147,o),
(153,249,o),
(125,249,c)
);
},
{
closed = 1;
nodes = (
(97,249,o),
(74,227,o),
(74,199,c),
(74,171,o),
(97,69,o),
(125,69,c),
(153,69,o),
(174,171,o),
(174,199,c),
(174,227,o),
(153,249,o),
(125,249,c)
);
},
{
closed = 1;
nodes = (
(136,266,o),
(125,255,o),
(125,241,c),
(125,227,o),
(136,216,o),
(150,216,c),
(164,216,o),
(175,227,o),
(175,241,c),
(175,255,o),
(164,266,o),
(150,266,c)
);
},
{
closed = 1;
nodes = (
(329,116,o),
(314,84,o),
(324,55,cs),
(334,26,o),
(367,12,o),
(396,22,cs),
(425,32,o),
(509,89,o),
(498,118,cs),
(487,147,o),
(387,136,o),
(358,126,cs)
);
},
{
closed = 1;
nodes = (
(400,140,o),
(314,84,o),
(324,55,cs),
(334,26,o),
(437,37,o),
(466,48,cs),
(495,59,o),
(509,89,o),
(498,118,cs),
(487,147,o),
(458,162,o),
(429,151,cs)
);
},
{
closed = 1;
nodes = (
(387,183,o),
(487,171,o),
(497,200,cs),
(507,229,o),
(424,286,o),
(395,296,cs),
(366,306,o),
(334,293,o),
(324,264,cs),
(314,235,o),
(328,203,o),
(357,193,cs)
);
},
{
closed = 1;
nodes = (
(457,156,o),
(487,171,o),
(497,200,cs),
(507,229,o),
(495,260,o),
(465,271,cs),
(436,282,o),
(334,293,o),
(324,264,cs),
(314,235,o),
(399,178,o),
(428,167,cs)
);
}
);
width = 700;
}
);
unicode = 97;
},
{
glyphname = ae;
lastChange = "2022-12-13 10:50:09 +0000";
layers = (
{
layerId = "C8365536-00F6-4CBD-B31D-2172D190A829";
shapes = (
{
closed = 1;
nodes = (
(424,410,o),
(522,434,o),
(522,465,cs),
(522,496,o),
(424,520,o),
(393,520,cs),
(362,520,o),
(337,496,o),
(337,465,cs),
(337,434,o),
(362,410,o),
(393,410,cs)
);
},
{
closed = 1;
nodes = (
(499,410,o),
(522,431,o),
(522,465,cs),
(522,496,o),
(499,520,o),
(468,520,cs),
(437,520,o),
(337,496,o),
(337,465,cs),
(337,434,o),
(437,410,o),
(468,410,cs)
);
},
{
closed = 1;
nodes = (
(424,182,o),
(522,206,o),
(522,237,cs),
(522,268,o),
(424,292,o),
(393,292,cs),
(362,292,o),
(337,268,o),
(337,237,cs),
(337,206,o),
(362,182,o),
(393,182,cs)
);
},
{
closed = 1;
nodes = (
(499,182,o),
(522,203,o),
(522,237,cs),
(522,268,o),
(499,292,o),
(468,292,cs),
(437,292,o),
(337,268,o),
(337,237,cs),
(337,206,o),
(437,182,o),
(468,182,cs)
);
},
{
closed = 1;
nodes = (
(550,225,o),
(561,236,o),
(561,250,c),
(561,264,o),
(550,275,o),
(536,275,c),
(522,275,o),
(511,264,o),
(511,250,c),
(511,236,o),
(522,225,o),
(536,225,c)
);
},
{
closed = 1;
nodes = (
(424,0,o),
(522,24,o),
(522,55,cs),
(522,86,o),
(424,110,o),
(393,110,c),
(362,110,o),
(337,86,o),
(337,55,cs),
(337,24,o),
(362,0,o),
(393,0,cs)
);
},
{
closed = 1;
nodes = (
(499,0,o),
(522,24,o),
(522,55,cs),
(522,86,o),
(499,110,o),
(468,110,cs),
(437,110,o),
(337,86,o),
(337,55,cs),
(337,24,o),
(437,0,o),
(468,0,cs)
);
},
{
closed = 1;
nodes = (
(574,46,o),
(597,70,o),
(597,101,cs),
(597,132,o),
(574,156,o),
(543,156,cs),
(512,156,o),
(487,132,o),
(487,101,cs),
(487,70,o),
(512,46,o),
(543,46,cs)
);
},
{
closed = 1;
nodes = (
(601,253,o),
(624,355,o),
(624,383,cs),
(624,411,o),
(601,433,o),
(573,433,cs),
(545,433,o),
(524,411,o),
(524,383,cs),
(524,355,o),
(545,253,o),
(573,253,cs)
);
},
{
closed = 1;
nodes = (
(601,253,o),
(624,275,o),
(624,303,c),
(624,331,o),
(601,433,o),
(573,433,cs),
(545,433,o),
(524,331,o),
(524,303,cs),
(524,275,o),
(545,253,o),
(573,253,cs)
);
},
{
closed = 1;
nodes = (
(550,412,o),
(561,423,o),
(561,437,c),
(561,451,o),
(550,462,o),
(536,462,c),
(522,462,o),
(511,451,o),
(511,437,c),
(511,423,o),
(522,412,o),
(536,412,c)
);
},
{
closed = 1;
nodes = (
(331,449,o),
(310,347,o),
(310,319,c),
(310,291,o),
(331,269,o),
(359,269,c),
(387,269,o),
(410,291,o),
(410,319,c),
(410,347,o),
(387,449,o),
(359,449,c)
);
},
{
closed = 1;
nodes = (
(333,449,o),
(310,427,o),
(310,399,c),
(310,371,o),
(331,269,o),
(359,269,c),
(387,269,o),
(410,371,o),
(410,399,c),
(410,427,o),
(387,449,o),
(359,449,c)
);
},
{
closed = 1;
nodes = (
(331,236,o),
(310,134,o),
(310,106,c),
(310,78,o),
(331,56,o),
(359,56,c),
(387,56,o),
(410,78,o),
(410,106,c),
(410,134,o),
(387,236,o),
(359,236,c)
);
},
{
closed = 1;
nodes = (
(333,236,o),
(310,214,o),
(310,186,c),
(310,158,o),
(331,56,o),
(359,56,c),
(387,56,o),
(410,158,o),
(410,186,c),
(410,214,o),
(387,236,o),
(359,236,c)
);
},
{
closed = 1;
nodes = (
(274,410,o),
(372,434,o),
(372,465,cs),
(372,496,o),
(274,520,o),
(243,520,cs),
(212,520,o),
(187,496,o),
(187,465,cs),
(187,434,o),
(212,410,o),
(243,410,c)
);
},
{
closed = 1;
nodes = (
(349,410,o),
(372,434,o),
(372,465,cs),
(372,496,o),
(349,520,o),
(318,520,cs),
(287,520,o),
(187,496,o),
(187,465,cs),
(187,434,o),
(287,410,o),
(318,410,cs)
);
},
{
closed = 1;
nodes = (
(190,110,o),
(165,86,o),
(165,55,cs),
(165,24,o),
(190,0,o),
(221,0,cs),
(252,0,o),
(350,24,o),
(350,55,cs),
(350,86,o),
(252,110,o),
(221,110,cs)
);
},
{
closed = 1;
nodes = (
(265,110,o),
(165,86,o),
(165,55,cs),
(165,24,o),
(265,0,o),
(296,0,cs),
(327,0,o),
(350,24,o),
(350,55,cs),
(350,86,o),
(327,110,o),
(296,110,cs)
);
},
{
closed = 0;
nodes = (
(215,209,l)
);
},
{
closed = 1;
nodes = (
(327,209,o),
(350,233,o),
(350,264,cs),
(350,295,o),
(327,319,o),
(296,319,cs),
(265,319,o),
(165,295,o),
(165,264,cs),
(165,233,o),
(265,209,o),
(296,209,cs)
);
},
{
closed = 1;
nodes = (
(103,249,o),
(80,147,o),
(80,119,c),
(80,91,o),
(103,69,o),
(131,69,c),
(159,69,o),
(180,91,o),
(180,119,c),
(180,147,o),
(159,249,o),
(131,249,c)
);
},
{
closed = 1;
nodes = (
(103,249,o),
(80,227,o),
(80,199,c),
(80,171,o),
(103,69,o),
(131,69,c),
(159,69,o),
(180,171,o),
(180,199,c),
(180,227,o),
(159,249,o),
(131,249,c)
);
},
{
closed = 1;
nodes = (
(142,266,o),
(131,255,o),
(131,241,c),
(131,227,o),
(142,216,o),
(156,216,c),
(170,216,o),
(181,227,o),
(181,241,c),
(181,255,o),
(170,266,o),
(156,266,c)
);
},
{
closed = 1;
nodes = (
(252,209,o),
(350,233,o),
(350,264,cs),
(350,295,o),
(252,319,o),
(221,319,cs),
(190,319,o),
(165,295,o),
(165,264,cs),
(165,233,o),
(190,209,o),
(221,209,c)
);
},
{
closed = 1;
nodes = (
(142,103,o),
(131,92,o),
(131,78,c),
(131,64,o),
(142,53,o),
(156,53,c),
(170,53,o),
(181,64,o),
(181,78,c),
(181,92,o),
(170,103,o),
(156,103,c)
);
}
);
width = 700;
}
);
unicode = 230;
},
{
glyphname = b;
lastChange = "2020-12-10 18:04:19 +0000";
layers = (
{
guides = (
{
angle = 90;
pos = (187,305);
},
{
angle = 90;
pos = (523,435);
},
{
angle = 90;
pos = (360,465);
},
{
angle = 90;
pos = (380,55);
}
);
layerId = "C8365536-00F6-4CBD-B31D-2172D190A829";
shapes = (
{
closed = 1;
nodes = (
(112,270,o),
(86,87,o),
(86,56,cs),
(86,24,o),
(111,0,o),
(142,0,cs),
(174,0,o),
(197,24,o),
(197,56,cs),
(197,87,o),
(175,270,o),
(143,270,cs)
);
},
{
closed = 1;
nodes = (
(112,680,o),
(87,656,o),
(87,625,cs),
(87,594,o),
(112,410,o),
(143,410,cs),
(174,410,o),
(197,594,o),
(197,625,cs),
(197,656,o),
(174,680,o),
(143,680,cs)
);
},
{
closed = 1;
nodes = (
(115,270,o),
(91,170,o),
(91,141,cs),
(91,113,o),
(114,91,o),
(142,91,cs),
(171,91,o),
(192,113,o),
(192,141,cs),
(192,170,o),
(172,270,o),
(143,270,cs)
);
},
{
closed = 1;
nodes = (
(115,587,o),
(92,488,o),
(92,460,cs),
(92,432,o),
(115,410,o),
(143,410,cs),
(171,410,o),
(192,432,o),
(192,460,cs),
(192,488,o),
(171,587,o),
(143,587,cs)
);
},
{
closed = 1;
nodes = (
(115,270,o),
(92,248,o),
(92,220,cs),
(92,192,o),
(114,91,o),
(142,91,cs),
(170,91,o),
(192,192,o),
(192,220,cs),
(192,248,o),
(171,270,o),
(143,270,cs)
);
},
{
closed = 1;
nodes = (
(363,520,o),
(338,496,o),
(338,465,cs),
(338,434,o),
(363,410,o),
(394,410,cs),
(425,410,o),
(523,434,o),
(523,465,cs),
(523,496,o),
(425,520,o),
(394,520,cs)
);
},
{
closed = 1;
nodes = (
(538,267,o),
(515,165,o),
(515,137,cs),
(515,109,o),
(538,87,o),
(566,87,cs),
(594,87,o),
(615,109,o),
(615,137,cs),
(615,165,o),
(594,267,o),
(566,267,cs)
);
},
{
closed = 1;
nodes = (
(538,267,o),
(515,245,o),
(515,217,cs),
(515,189,o),
(538,87,o),
(566,87,cs),
(594,87,o),
(615,189,o),
(615,217,cs),
(615,245,o),
(594,267,o),
(566,267,cs)
);
},
{
closed = 1;
nodes = (
(538,427,o),
(515,325,o),
(515,297,cs),
(515,269,o),
(538,247,o),
(566,247,cs),
(594,247,o),
(615,269,o),
(615,297,cs),
(615,325,o),
(594,427,o),
(566,427,cs)
);
},
{
closed = 1;
nodes = (
(538,427,o),
(515,405,o),
(515,377,cs),
(515,349,o),
(538,247,o),
(566,247,cs),
(594,247,o),
(615,349,o),
(615,377,cs),
(615,405,o),
(592,427,o),
(566,427,cs)
);
},
{
closed = 1;
nodes = (
(363,110,o),
(338,86,o),
(338,55,cs),
(338,24,o),
(363,0,o),
(394,0,cs),
(425,0,o),
(523,24,o),
(523,55,cs),
(523,89,o),
(425,110,o),
(394,110,cs)
);
},
{
closed = 1;
nodes = (
(115,427,o),
(92,325,o),
(92,297,cs),
(92,269,o),
(115,247,o),
(143,247,cs),
(171,247,o),
(192,269,o),
(192,297,cs),
(192,325,o),
(171,427,o),
(143,427,cs)
);
},
{
closed = 1;
nodes = (
(115,427,o),
(92,405,o),
(92,377,cs),
(92,349,o),
(115,247,o),
(143,247,cs),
(171,247,o),
(192,349,o),
(192,377,cs),
(192,405,o),
(171,427,o),
(143,427,cs)
);
},
{
closed = 1;
nodes = (
(115,587,o),
(92,565,o),
(92,537,cs),
(92,509,o),
(115,410,o),
(143,410,cs),
(171,410,o),
(192,509,o),
(192,537,cs),
(192,565,o),
(169,587,o),
(143,587,cs)
);
},
{
closed = 1;
nodes = (
(512,108,o),
(501,97,o),
(501,83,c),
(501,69,o),
(512,58,o),
(526,58,c),
(540,58,o),
(551,69,o),
(551,83,c),
(551,97,o),
(540,108,o),
(526,108,c)
);
},
{
closed = 1;
nodes = (
(512,460,o),
(501,449,o),
(501,435,c),
(501,421,o),
(512,410,o),
(526,410,c),
(540,410,o),
(551,421,o),
(551,435,c),
(551,449,o),
(540,460,o),
(526,460,c)
);
},
{
closed = 1;
nodes = (
(195,206,o),
(184,195,o),
(184,181,c),
(184,167,o),
(195,156,o),
(209,156,c),
(223,156,o),
(234,167,o),
(234,181,c),
(234,195,o),
(223,206,o),
(209,206,c)
);
},
{
closed = 1;
nodes = (
(195,362,o),
(184,351,o),
(184,337,c),
(184,323,o),
(195,312,o),
(209,312,c),
(223,312,o),
(234,323,o),
(234,337,c),
(234,351,o),
(223,362,o),
(209,362,c)
);
},
{
closed = 1;
nodes = (
(438,520,o),
(338,496,o),
(338,465,cs),
(338,434,o),
(438,410,o),
(469,410,c),
(500,410,o),
(523,434,o),
(523,465,cs),
(523,496,o),
(500,520,o),
(469,520,cs)
);
},
{
closed = 1;
nodes = (
(438,110,o),
(338,86,o),
(338,55,cs),
(338,24,o),
(438,0,o),
(469,0,cs),
(500,0,o),
(523,24,o),
(523,55,cs),
(523,89,o),
(500,110,o),
(469,110,cs)
);
},
{
closed = 1;
nodes = (
(200,405,o),
(196,370,o),
(216,346,cs),
(236,323,o),
(271,320,o),
(295,340,cs),
(318,360,o),
(378,442,o),
(358,465,cs),
(338,489,o),
(248,443,o),
(224,424,cs)
);
},
{
closed = 1;
nodes = (
(258,453,o),
(196,370,o),
(216,346,cs),
(236,323,o),
(328,368,o),
(352,388,c),
(376,408,o),
(378,442,o),
(358,465,cs),
(338,489,o),
(305,493,o),
(281,473,cs)
);
},
{
closed = 1;
nodes = (
(248,77,o),
(338,31,o),
(358,55,cs),
(378,78,o),
(318,160,o),
(295,180,cs),
(271,200,o),
(236,197,o),
(216,174,cs),
(196,150,o),
(200,115,o),
(224,96,cs)
);
},
{
closed = 1;
nodes = (
(305,27,o),
(338,31,o),
(358,55,cs),
(378,78,o),
(376,112,o),
(352,132,c),
(328,152,o),
(236,197,o),
(216,174,cs),
(196,150,o),
(258,67,o),
(281,47,cs)
);
}
);
width = 700;
}
);
unicode = 98;
},
{
color = 4;
glyphname = c;
lastChange = "2020-12-23 10:09:57 +0000";
layers = (
{
guides = (
{
angle = 90;
pos = (145,86);
},
{
angle = 90;
pos = (237,110);
},
{
angle = 90;
pos = (462,110);
},
{
pos = (170,412);
}
);
layerId = "C8365536-00F6-4CBD-B31D-2172D190A829";
shapes = (
{
closed = 1;
nodes = (
(274,0,o),
(372,24,o),
(372,55,cs),
(372,86,o),
(274,110,o),
(243,110,cs),
(212,110,o),
(187,86,o),
(187,55,cs),
(187,24,o),
(212,0,o),
(243,0,cs)
);
},
{
closed = 1;
nodes = (
(349,0,o),
(372,24,o),
(372,55,cs),
(372,86,o),
(349,110,o),
(318,110,cs),
(287,110,o),
(187,86,o),
(187,55,cs),
(187,24,o),
(287,0,o),
(318,0,cs)
);
},
{
closed = 1;
nodes = (
(424,0,o),
(522,24,o),
(522,55,cs),
(522,86,o),
(424,110,o),
(393,110,cs),
(362,110,o),
(337,86,o),
(337,55,cs),
(337,24,o),
(362,0,o),
(393,0,cs)
);
},
{
closed = 1;
nodes = (
(499,0,o),
(522,24,o),
(522,55,cs),
(522,86,o),
(499,110,o),
(468,110,cs),
(437,110,o),
(337,86,o),
(337,55,cs),
(337,24,o),
(437,0,o),
(468,0,cs)
);
},
{
closed = 1;
nodes = (
(274,410,o),
(372,434,o),
(372,465,cs),
(372,496,o),
(274,520,o),
(243,520,cs),
(212,520,o),
(187,496,o),
(187,465,cs),
(187,434,o),
(212,410,o),
(243,410,cs)
);
},
{
closed = 1;
nodes = (
(349,410,o),
(372,434,o),
(372,465,cs),
(372,496,o),
(349,520,o),
(318,520,cs),
(287,520,o),
(187,496,o),
(187,465,cs),
(187,434,o),
(287,410,o),
(318,410,cs)
);
},
{
closed = 1;
nodes = (
(424,410,o),
(522,434,o),
(522,465,cs),
(522,496,o),
(424,520,o),
(393,520,cs),
(362,520,o),
(337,496,o),
(337,465,cs),
(337,434,o),
(362,410,o),
(393,410,cs)
);
},
{
closed = 1;
nodes = (
(499,410,o),
(522,431,o),
(522,465,cs),
(522,496,o),
(499,520,o),
(468,520,cs),
(437,520,o),
(337,496,o),
(337,465,cs),
(337,434,o),
(437,410,o),
(468,410,cs)
);
},
{
closed = 1;
nodes = (
(188,263,o),
(182,368,o),
(175,395,cs),
(168,422,o),
(142,437,o),
(115,430,cs),
(88,423,o),
(71,396,o),
(78,369,cs),
(85,342,o),
(134,249,o),
(161,256,cs)
);
},
{
closed = 1;
nodes = (
(188,263,o),
(203,290,o),
(196,317,cs),
(189,344,o),
(142,437,o),
(115,430,cs),
(88,423,o),
(92,318,o),
(99,291,c),
(106,264,o),
(134,249,o),
(161,256,cs)
);
},
{
closed = 1;
nodes = (
(187,61,o),
(198,72,o),
(198,86,c),
(198,100,o),
(187,111,o),
(173,111,c),
(159,111,o),
(148,100,o),
(148,86,c),
(148,72,o),
(159,61,o),
(173,61,c)
);
},
{
closed = 1;
nodes = (
(187,412,o),
(198,423,o),
(198,437,c),
(198,451,o),
(187,462,o),
(173,462,c),
(159,462,o),
(148,451,o),
(148,437,c),
(148,423,o),
(159,412,o),
(173,412,c)
);
},
{
closed = 1;
nodes = (
(574,46,o),
(597,70,o),
(597,101,cs),
(597,132,o),
(574,156,o),
(543,156,cs),
(512,156,o),
(487,132,o),
(487,101,cs),
(487,70,o),
(512,46,o),
(543,46,cs)
);
},
{
closed = 1;
nodes = (
(601,253,o),
(624,355,o),
(624,383,cs),
(624,411,o),
(601,433,o),
(573,433,cs),
(545,433,o),
(524,411,o),
(524,383,cs),
(524,355,o),
(545,253,o),
(573,253,cs)
);
},
{
closed = 1;
nodes = (
(601,253,o),
(624,275,o),
(624,303,c),
(624,331,o),
(601,433,o),
(573,433,cs),
(545,433,o),
(524,331,o),
(524,303,cs),
(524,275,o),
(545,253,o),
(573,253,cs)
);
},
{
closed = 1;
nodes = (
(550,412,o),
(561,423,o),
(561,437,c),
(561,451,o),
(550,462,o),
(536,462,c),
(522,462,o),
(511,451,o),
(511,437,c),
(511,423,o),
(522,412,o),
(536,412,c)
);
},
{
closed = 1;
nodes = (
(142,84,o),
(188,177,o),
(196,204,cs),
(204,231,o),
(188,258,o),
(161,265,cs),
(134,272,o),
(106,257,o),
(99,230,cs),
(92,203,o),
(88,98,o),
(115,91,cs)
);
},
{
closed = 1;
nodes = (
(142,84,o),
(168,100,o),
(175,127,cs),
(182,154,o),
(188,258,o),
(161,265,cs),
(134,272,o),
(86,180,o),
(78,153,c),
(71,126,o),
(88,98,o),
(115,91,cs)
);
}
);
width = 700;
}
);
unicode = 99;
},
{
glyphname = d;
lastChange = "2020-12-10 17:58:16 +0000";
layers = (
{
layerId = "C8365536-00F6-4CBD-B31D-2172D190A829";
shapes = (
{
closed = 1;
nodes = (
(526,270,o),
(504,87,o),
(504,56,cs),
(504,24,o),
(527,0,o),
(559,0,cs),
(590,0,o),
(615,24,o),
(615,56,cs),
(615,87,o),
(589,270,o),
(558,270,cs)
);
},
{
closed = 1;
nodes = (
(527,680,o),
(504,656,o),
(504,625,cs),
(504,594,o),
(527,410,o),
(558,410,cs),
(589,410,o),
(614,594,o),
(614,625,cs),
(614,656,o),
(589,680,o),
(558,680,cs)
);
},
{
closed = 1;
nodes = (
(529,270,o),
(509,170,o),
(509,141,cs),
(509,113,o),
(530,91,o),
(559,91,cs),
(587,91,o),
(610,113,o),
(610,141,cs),
(610,170,o),
(586,270,o),
(558,270,cs)
);
},
{
closed = 1;
nodes = (
(530,587,o),
(509,488,o),
(509,460,cs),
(509,432,o),
(530,410,o),
(558,410,cs),
(586,410,o),
(609,432,o),
(609,460,cs),
(609,488,o),
(586,587,o),
(558,587,cs)
);
},
{
closed = 1;
nodes = (
(530,270,o),
(509,248,o),
(509,220,cs),
(509,192,o),
(531,91,o),
(559,91,cs),
(587,91,o),
(609,192,o),
(609,220,cs),
(609,248,o),
(586,270,o),
(558,270,cs)
);
},
{
closed = 1;
nodes = (
(276,520,o),
(178,496,o),
(178,465,cs),
(178,434,o),
(276,410,o),
(307,410,cs),
(338,410,o),
(363,434,o),
(363,465,cs),
(363,496,o),
(338,520,o),
(307,520,cs)
);
},
{
closed = 1;
nodes = (
(107,267,o),
(86,165,o),
(86,137,cs),
(86,109,o),
(107,87,o),
(135,87,cs),
(163,87,o),
(186,109,o),
(186,137,cs),
(186,165,o),
(163,267,o),
(135,267,cs)
);
},
{
closed = 1;
nodes = (
(107,267,o),
(86,245,o),
(86,217,cs),
(86,189,o),
(107,87,o),
(135,87,cs),
(163,87,o),
(186,189,o),
(186,217,cs),
(186,245,o),
(163,267,o),
(135,267,cs)
);
},
{
closed = 1;
nodes = (
(107,427,o),
(86,325,o),
(86,297,cs),
(86,269,o),
(107,247,o),
(135,247,cs),
(163,247,o),
(186,269,o),
(186,297,cs),
(186,325,o),
(163,427,o),
(135,427,cs)
);
},
{
closed = 1;
nodes = (
(109,427,o),
(86,405,o),
(86,377,cs),
(86,349,o),
(107,247,o),
(135,247,cs),
(163,247,o),
(186,349,o),
(186,377,cs),
(186,405,o),
(163,427,o),
(135,427,cs)
);
},
{
closed = 1;
nodes = (
(276,110,o),
(178,89,o),
(178,55,cs),
(178,24,o),
(276,0,o),
(307,0,cs),
(338,0,o),
(363,24,o),
(363,55,cs),
(363,86,o),
(338,110,o),
(307,110,cs)
);
},
{
closed = 1;
nodes = (
(530,430,o),
(509,328,o),
(509,300,cs),
(509,272,o),
(530,250,o),
(558,250,cs),
(586,250,o),
(609,272,o),
(609,300,cs),
(609,328,o),
(586,430,o),
(558,430,cs)
);
},
{
closed = 1;
nodes = (
(530,430,o),
(509,408,o),
(509,380,cs),
(509,352,o),
(530,250,o),
(558,250,cs),
(586,250,o),
(609,352,o),
(609,380,cs),
(609,408,o),
(586,430,o),
(558,430,cs)
);
},
{
closed = 1;
nodes = (
(532,587,o),
(509,565,o),
(509,537,cs),
(509,509,o),
(530,410,o),
(558,410,cs),
(586,410,o),
(609,509,o),
(609,537,cs),
(609,565,o),
(586,587,o),
(558,587,cs)
);
},
{
closed = 1;
nodes = (
(161,108,o),
(150,97,o),
(150,83,c),
(150,69,o),
(161,58,o),
(175,58,c),
(189,58,o),
(200,69,o),
(200,83,c),
(200,97,o),
(189,108,o),
(175,108,c)
);
},
{
closed = 1;
nodes = (
(161,460,o),
(150,449,o),
(150,435,c),
(150,421,o),
(161,410,o),
(175,410,c),
(189,410,o),
(200,421,o),
(200,435,c),
(200,449,o),
(189,460,o),
(175,460,c)
);
},
{
closed = 1;
nodes = (
(478,206,o),
(467,195,o),
(467,181,c),
(467,167,o),
(478,156,o),
(492,156,c),
(506,156,o),
(517,167,o),
(517,181,c),
(517,195,o),
(506,206,o),
(492,206,c)
);
},
{
closed = 1;
nodes = (
(478,362,o),
(467,351,o),
(467,337,c),
(467,323,o),
(478,312,o),
(492,312,c),
(506,312,o),
(517,323,o),
(517,337,c),
(517,351,o),
(506,362,o),
(492,362,c)
);
},
{
closed = 1;
nodes = (
(201,520,o),
(178,496,o),
(178,465,cs),
(178,434,o),
(201,410,o),
(232,410,c),
(263,410,o),
(363,434,o),
(363,465,cs),
(363,496,o),
(263,520,o),
(232,520,cs)
);
},
{
closed = 1;
nodes = (
(201,110,o),
(178,89,o),
(178,55,cs),
(178,24,o),
(201,0,o),
(232,0,cs),
(263,0,o),
(363,24,o),
(363,55,cs),
(363,86,o),
(263,110,o),
(232,110,cs)
);
},
{
closed = 1;
nodes = (
(453,443,o),
(363,489,o),
(343,465,cs),
(323,442,o),
(383,360,o),
(406,340,cs),
(430,320,o),
(465,323,o),
(485,346,cs),
(505,370,o),
(501,405,o),
(477,424,cs)
);
},
{
closed = 1;
nodes = (
(396,493,o),
(363,489,o),
(343,465,cs),
(323,442,o),
(325,408,o),
(349,388,c),
(373,369,o),
(465,323,o),
(485,346,cs),
(505,370,o),
(443,453,o),
(420,473,cs)
);
},
{
closed = 1;
nodes = (
(501,115,o),
(505,150,o),
(485,174,cs),
(465,197,o),
(430,200,o),
(406,180,cs),
(383,160,o),
(323,78,o),
(343,55,cs),
(363,31,o),
(453,77,o),
(477,96,cs)
);
},
{
closed = 1;
nodes = (
(443,67,o),
(505,150,o),
(485,174,cs),
(465,197,o),
(373,152,o),
(349,132,c),
(325,112,o),
(323,78,o),
(343,55,cs),
(363,31,o),
(396,27,o),
(420,47,cs)
);
}
);
width = 700;
}
);
unicode = 100;
},
{
color = 3;
glyphname = dcroat;
lastChange = "2023-06-12 14:05:46 +0000";
layers = (
{
layerId = "C8365536-00F6-4CBD-B31D-2172D190A829";
shapes = (
{
closed = 1;
nodes = (
(446,514,o),
(515,500,o),
(534,500,cs),
(552,500,o),
(567,514,o),
(567,532,cs),
(567,551,o),
(550,567,o),
(534,567,cs),
(514,567,o),
(446,550,o),
(446,532,cs)
);
},
{
closed = 1;
nodes = (
(446,514,o),
(461,500,o),
(481,500,cs),
(499,500,o),
(567,514,o),
(567,532,cs),
(567,551,o),
(499,567,o),
(481,567,cs),
(460,567,o),
(446,550,o),
(446,532,cs)
);
},
{
closed = 1;
nodes = (
(499,514,o),
(568,500,o),
(587,500,cs),
(605,500,o),
(620,514,o),
(620,532,cs),
(620,551,o),
(603,567,o),
(587,567,cs),
(567,567,o),
(499,550,o),
(499,532,cs)
);
},
{
closed = 1;
nodes = (
(499,514,o),
(514,500,o),
(534,500,cs),
(552,500,o),
(620,514,o),
(620,532,cs),
(620,551,o),
(552,567,o),
(534,567,cs),
(513,567,o),
(499,550,o),
(499,532,cs)
);
},
{
closed = 1;
nodes = (
(499,514,o),
(568,500,o),
(587,500,cs),
(605,500,o),
(620,514,o),
(620,532,cs),
(620,551,o),
(603,567,o),
(587,567,cs),
(567,567,o),
(499,550,o),
(499,532,cs)
);
},
{
closed = 1;
nodes = (
(499,514,o),
(514,500,o),
(534,500,cs),
(552,500,o),
(620,514,o),
(620,532,cs),
(620,551,o),
(552,567,o),
(534,567,cs),
(513,567,o),
(499,550,o),
(499,532,cs)
);
},
{
closed = 1;
nodes = (
(552,514,o),
(621,500,o),
(640,500,cs),
(658,500,o),
(673,514,o),
(673,532,cs),
(673,551,o),
(656,567,o),
(640,567,cs),
(620,567,o),
(552,550,o),
(552,532,cs)
);
},
{
closed = 1;
nodes = (
(552,514,o),
(567,500,o),
(587,500,cs),
(605,500,o),
(673,514,o),
(673,532,cs),
(673,551,o),
(605,567,o),
(587,567,cs),
(566,567,o),
(552,550,o),
(552,532,cs)
);
},
{
ref = d;
}
);
width = 700;
}
);
unicode = 273;
},
{
glyphname = e;
lastChange = "2020-12-10 15:19:06 +0000";
layers = (
{
guides = (
{
pos = (222,264);
},
{
angle = 90;
pos = (505,264);
},
{
pos = (518,383);
},
{
pos = (518,303);
},
{
angle = 90;
pos = (505,250);
}
);
layerId = "C8365536-00F6-4CBD-B31D-2172D190A829";
shapes = (
{
closed = 1;
nodes = (
(274,182,o),
(372,206,o),
(372,237,cs),
(372,268,o),
(274,292,o),
(243,292,cs),
(212,292,o),
(187,268,o),
(187,237,cs),
(187,206,o),
(212,182,o),
(243,182,cs)
);
},
{
closed = 1;
nodes = (
(349,182,o),
(372,206,o),
(372,237,cs),
(372,268,o),
(349,292,o),
(318,292,cs),
(287,292,o),
(187,268,o),
(187,237,cs),
(187,206,o),
(287,182,o),
(318,182,cs)
);
},
{
closed = 1;
nodes = (
(424,182,o),
(522,206,o),
(522,237,cs),
(522,268,o),
(424,292,o),
(393,292,cs),
(362,292,o),
(337,268,o),
(337,237,cs),
(337,206,o),
(362,182,o),
(393,182,cs)
);
},
{
closed = 1;
nodes = (
(499,182,o),
(522,203,o),
(522,237,cs),
(522,268,o),
(499,292,o),
(468,292,cs),
(437,292,o),
(337,268,o),
(337,237,cs),
(337,206,o),
(437,182,o),
(468,182,cs)
);
},
{
closed = 1;
nodes = (
(550,225,o),
(561,236,o),
(561,250,c),
(561,264,o),
(550,275,o),
(536,275,c),
(522,275,o),
(511,264,o),
(511,250,c),
(511,236,o),
(522,225,o),
(536,225,c)
);
},
{
closed = 1;
nodes = (
(274,0,o),
(372,24,o),
(372,55,cs),
(372,86,o),
(274,110,o),
(243,110,cs),
(212,110,o),
(187,86,o),
(187,55,cs),
(187,24,o),
(212,0,o),
(243,0,cs)
);
},
{
closed = 1;
nodes = (
(349,0,o),
(372,24,o),
(372,55,cs),
(372,86,o),
(349,110,o),
(318,110,cs),
(287,110,o),
(187,86,o),
(187,55,cs),
(187,24,o),
(287,0,o),
(318,0,cs)
);
},
{
closed = 1;
nodes = (
(424,0,o),
(522,24,o),
(522,55,cs),
(522,86,o),
(424,110,o),
(393,110,c),
(362,110,o),
(337,86,o),
(337,55,cs),
(337,24,o),
(362,0,o),
(393,0,cs)
);
},
{
closed = 1;
nodes = (
(499,0,o),
(522,24,o),
(522,55,cs),
(522,86,o),
(499,110,o),
(468,110,cs),
(437,110,o),
(337,86,o),
(337,55,cs),
(337,24,o),
(437,0,o),
(468,0,cs)
);
},
{
closed = 1;
nodes = (
(274,410,o),
(372,434,o),
(372,465,cs),
(372,496,o),
(274,520,o),
(243,520,cs),
(212,520,o),
(187,496,o),
(187,465,cs),
(187,434,o),
(212,410,o),
(243,410,cs)
);
},
{
closed = 1;
nodes = (
(349,410,o),
(372,434,o),
(372,465,cs),
(372,496,o),
(349,520,o),
(318,520,cs),
(287,520,o),
(187,496,o),
(187,465,cs),
(187,434,o),
(287,410,o),
(318,410,cs)
);
},
{
closed = 1;
nodes = (
(424,410,o),
(522,434,o),
(522,465,cs),
(522,496,o),
(424,520,o),
(393,520,cs),
(362,520,o),
(337,496,o),
(337,465,cs),
(337,434,o),
(362,410,o),
(393,410,cs)
);
},
{
closed = 1;
nodes = (
(499,410,o),
(522,431,o),
(522,465,cs),
(522,496,o),
(499,520,o),
(468,520,cs),
(437,520,o),
(337,496,o),
(337,465,cs),
(337,434,o),
(437,410,o),
(468,410,cs)
);
},
{
closed = 1;
nodes = (
(188,263,o),
(182,368,o),
(175,395,cs),
(168,422,o),
(142,437,o),
(115,430,cs),
(88,423,o),
(71,396,o),
(78,369,cs),
(85,342,o),
(134,249,o),
(161,256,cs)
);
},
{
closed = 1;
nodes = (
(188,263,o),
(203,290,o),
(196,317,cs),
(189,344,o),
(142,437,o),
(115,430,cs),
(88,423,o),
(92,318,o),
(99,291,c),
(106,264,o),
(134,249,o),
(161,256,cs)
);
},
{
closed = 1;
nodes = (
(187,61,o),
(198,72,o),
(198,86,c),
(198,100,o),
(187,111,o),
(173,111,c),
(159,111,o),
(148,100,o),
(148,86,c),
(148,72,o),
(159,61,o),
(173,61,c)
);
},
{
closed = 1;
nodes = (
(187,412,o),
(198,423,o),
(198,437,c),
(198,451,o),
(187,462,o),
(173,462,c),
(159,462,o),
(148,451,o),
(148,437,c),
(148,423,o),
(159,412,o),
(173,412,c)
);
},
{
closed = 1;
nodes = (
(574,46,o),
(597,70,o),
(597,101,cs),
(597,132,o),
(574,156,o),
(543,156,cs),
(512,156,o),
(487,132,o),
(487,101,cs),
(487,70,o),
(512,46,o),
(543,46,cs)
);
},
{
closed = 1;
nodes = (
(601,253,o),
(624,355,o),
(624,383,cs),
(624,411,o),
(601,433,o),
(573,433,cs),
(545,433,o),
(524,411,o),
(524,383,cs),
(524,355,o),
(545,253,o),
(573,253,cs)
);
},
{
closed = 1;
nodes = (
(601,253,o),
(624,275,o),
(624,303,c),
(624,331,o),
(601,433,o),
(573,433,cs),
(545,433,o),
(524,331,o),
(524,303,cs),
(524,275,o),
(545,253,o),
(573,253,cs)
);
},
{
closed = 1;
nodes = (
(550,412,o),
(561,423,o),
(561,437,c),
(561,451,o),
(550,462,o),
(536,462,c),
(522,462,o),
(511,451,o),
(511,437,c),
(511,423,o),
(522,412,o),
(536,412,c)
);
},
{
closed = 1;
nodes = (
(142,84,o),
(188,177,o),
(196,204,cs),
(204,231,o),
(188,258,o),
(161,265,cs),
(134,272,o),
(106,257,o),
(99,230,cs),
(92,203,o),
(88,98,o),
(115,91,cs)
);
},
{
closed = 1;
nodes = (
(142,84,o),
(168,100,o),
(175,127,cs),
(182,154,o),
(188,258,o),
(161,265,cs),
(134,272,o),
(86,180,o),
(78,153,c),
(71,126,o),
(88,98,o),
(115,91,cs)
);
}
);
width = 700;
}
);
unicode = 101;
},
{
glyphname = f;
lastChange = "2020-12-10 15:23:40 +0000";
layers = (
{
guides = (
{
angle = 90;
pos = (630,55);
},
{
angle = 90;
pos = (365,380);
},
{
angle = 90;
pos = (370,55);
},
{
pos = (424,325);
}
);
layerId = "C8365536-00F6-4CBD-B31D-2172D190A829";
shapes = (
{
closed = 1;
nodes = (
(489,570,o),
(514,594,o),
(514,625,cs),
(514,656,o),
(489,680,o),
(458,680,cs),
(427,680,o),
(329,656,o),
(329,625,cs),
(329,594,o),
(427,570,o),
(458,570,cs)
);
},
{
closed = 1;
nodes = (
(414,570,o),
(514,594,o),
(514,625,cs),
(514,656,o),
(414,680,o),
(383,680,cs),
(352,680,o),
(329,656,o),
(329,625,cs),
(329,594,o),
(352,570,o),
(383,570,cs)
);
},
{
closed = 1;
nodes = (
(339,410,o),
(364,594,o),
(364,625,cs),
(364,656,o),
(339,680,o),
(308,680,cs),
(277,680,o),
(254,656,o),
(254,625,cs),
(254,594,o),
(277,410,o),
(308,410,cs)
);
},
{
closed = 1;
nodes = (
(339,0,o),
(364,24,o),
(364,55,cs),
(364,86,o),
(339,270,o),
(308,270,cs),
(277,270,o),
(254,86,o),
(254,55,cs),
(254,24,o),
(277,0,o),
(308,0,cs)
);
},
{
closed = 1;
nodes = (
(336,410,o),
(359,512,o),
(359,540,cs),
(359,568,o),
(336,590,o),
(308,590,cs),
(280,590,o),
(259,568,o),
(259,540,cs),
(259,512,o),
(280,410,o),
(308,410,cs)
);
},
{
closed = 1;
nodes = (
(336,250,o),
(359,272,o),
(359,300,cs),
(359,328,o),
(336,430,o),
(308,430,cs),
(280,430,o),
(259,328,o),
(259,300,cs),
(259,272,o),
(280,250,o),
(308,250,cs)
);
},
{
closed = 1;
nodes = (
(336,90,o),
(359,192,o),
(359,220,cs),
(359,248,o),
(336,270,o),
(308,270,cs),
(280,270,o),
(259,248,o),
(259,220,cs),
(259,192,o),
(280,90,o),
(308,90,cs)
);
},
{
closed = 1;
nodes = (
(336,90,o),
(359,112,o),
(359,140,cs),
(359,168,o),
(336,270,o),
(308,270,cs),
(280,270,o),
(259,168,o),
(259,140,cs),
(259,112,o),
(282,90,o),
(308,90,cs)
);
},
{
closed = 1;
nodes = (
(336,250,o),
(359,352,o),
(359,380,cs),
(359,408,o),
(336,430,o),
(308,430,cs),
(280,430,o),
(259,408,o),
(259,380,cs),
(259,352,o),
(280,250,o),
(308,250,cs)
);
},
{
closed = 1;
nodes = (
(336,410,o),
(359,432,o),
(359,460,cs),
(359,488,o),
(336,590,o),
(308,590,cs),
(280,590,o),
(259,488,o),
(259,460,cs),
(259,432,o),
(280,410,o),
(308,410,cs)
);
},
{
closed = 1;
nodes = (
(489,326,o),
(514,350,o),
(514,381,c),
(514,412,o),
(489,436,o),
(458,436,c),
(427,436,o),
(329,412,o),
(329,381,c),
(329,350,o),
(427,326,o),
(458,326,c)
);
},
{
closed = 1;
nodes = (
(414,326,o),
(514,350,o),
(514,381,c),
(514,412,o),
(414,436,o),
(383,436,c),
(352,436,o),
(329,412,o),
(329,381,c),
(329,350,o),
(352,326,o),
(383,326,c)
);
},
{
closed = 1;
nodes = (
(264,326,o),
(289,350,o),
(289,381,c),
(289,412,o),
(264,436,o),
(233,436,c),
(202,436,o),
(104,412,o),
(104,381,c),
(104,350,o),
(202,326,o),
(233,326,c)
);
},
{
closed = 1;
nodes = (
(189,326,o),
(289,350,o),
(289,381,c),
(289,412,o),
(189,436,o),
(158,436,c),
(127,436,o),
(104,412,o),
(104,381,c),
(104,350,o),
(127,326,o),
(158,326,c)
);
},
{
closed = 1;
nodes = (
(564,570,o),
(589,594,o),
(589,625,cs),
(589,656,o),
(564,680,o),
(533,680,cs),
(502,680,o),
(329,656,o),
(329,625,cs),
(329,594,o),
(502,570,o),
(533,570,cs)
);
}
);
width = 700;
}
);
unicode = 102;
},
{
glyphname = g;
lastChange = "2020-12-10 15:17:57 +0000";
layers = (
{
layerId = "C8365536-00F6-4CBD-B31D-2172D190A829";
shapes = (
{
closed = 1;
nodes = (
(518,520,o),
(495,496,o),
(495,465,cs),
(495,434,o),
(518,250,o),
(549,250,cs),
(580,250,o),
(605,434,o),
(605,465,cs),
(605,496,o),
(580,520,o),
(549,520,cs)
);
},
{
closed = 1;
nodes = (
(521,-50,o),
(500,-72,o),
(500,-100,cs),
(500,-128,o),
(521,-150,o),
(549,-150,cs),
(577,-150,o),
(600,-128,o),
(600,-100,cs),
(600,-72,o),
(577,-50,o),
(549,-50,cs)
);
},
{
closed = 1;
nodes = (
(521,427,o),
(500,328,o),
(500,300,cs),
(500,272,o),
(521,250,o),
(549,250,cs),
(577,250,o),
(600,272,o),
(600,300,cs),
(600,328,o),
(577,427,o),
(549,427,cs)
);
},
{
closed = 1;
nodes = (
(522,267,o),
(501,165,o),
(501,137,cs),
(501,109,o),
(522,87,o),
(550,87,cs),
(578,87,o),
(601,109,o),
(601,137,cs),
(601,165,o),
(578,267,o),
(550,267,cs)
);
},
{
closed = 1;
nodes = (
(522,267,o),
(501,245,o),
(501,217,cs),
(501,189,o),
(522,87,o),
(550,87,cs),
(578,87,o),
(601,189,o),
(601,217,cs),
(601,245,o),
(578,267,o),
(550,267,cs)
);
},
{
closed = 1;
nodes = (
(523,427,o),
(500,405,o),
(500,377,cs),
(500,349,o),
(521,250,o),
(549,250,cs),
(577,250,o),
(600,349,o),
(600,377,cs),
(600,405,o),
(577,427,o),
(549,427,cs)
);
},
{
closed = 1;
nodes = (
(434,-236,o),
(530,-216,o),
(530,-185,cs),
(530,-154,o),
(434,-126,o),
(403,-126,cs),
(372,-126,o),
(343,-155,o),
(343,-186,cs),
(343,-217,o),
(372,-236,o),
(403,-236,cs)
);
},
{
closed = 1;
nodes = (
(507,-240,o),
(530,-216,o),
(530,-185,cs),
(530,-154,o),
(507,-130,o),
(476,-130,cs),
(445,-130,o),
(343,-155,o),
(343,-186,cs),
(343,-217,o),
(445,-240,o),
(476,-240,cs)
);
},
{
closed = 1;
nodes = (
(528,-139,o),
(517,-150,o),
(517,-164,c),
(517,-178,o),
(528,-189,o),
(542,-189,cs),
(556,-189,o),
(567,-178,o),
(567,-164,c),
(567,-150,o),
(556,-139,o),
(542,-139,c)
);
},
{
closed = 1;
nodes = (
(524,112,o),
(486,15,o),
(481,-13,cs),
(476,-40,o),
(493,-66,o),
(520,-70,cs),
(548,-74,o),
(575,-58,o),
(579,-30,cs),
(583,-3,o),
(579,102,o),
(552,107,cs)
);
},
{
closed = 1;
nodes = (
(524,112,o),
(500,94,o),
(495,66,cs),
(490,38,o),
(493,-66,o),
(520,-70,cs),
(548,-74,o),
(588,21,o),
(593,49,cs),
(598,76,o),
(579,102,o),
(552,107,cs)
);
},
{
closed = 1;
nodes = (
(231,-92,o),
(262,-191,o),
(275,-216,cs),
(288,-240,o),
(319,-246,o),
(344,-233,cs),
(368,-220,o),
(375,-190,o),
(361,-166,cs),
(347,-141,o),
(278,-63,o),
(254,-78,cs)
);
},
{
closed = 1;
nodes = (
(231,-92,o),
(221,-122,o),
(235,-146,cs),
(249,-171,o),
(319,-246,o),
(344,-233,cs),
(368,-220,o),
(336,-121,o),
(321,-97,cs),
(306,-73,o),
(278,-63,o),
(254,-78,cs)
);
},
{
closed = 1;
nodes = (
(276,520,o),
(178,496,o),
(178,465,cs),
(178,434,o),
(276,410,o),
(307,410,cs),
(338,410,o),
(363,434,o),
(363,465,cs),
(363,496,o),
(338,520,o),
(307,520,cs)
);
},
{
closed = 1;
nodes = (
(107,267,o),
(86,165,o),
(86,137,cs),
(86,109,o),
(107,87,o),
(135,87,cs),
(163,87,o),
(186,109,o),
(186,137,cs),
(186,165,o),
(163,267,o),
(135,267,cs)
);
},
{
closed = 1;
nodes = (
(107,267,o),
(86,245,o),
(86,217,cs),
(86,189,o),
(107,87,o),
(135,87,cs),
(163,87,o),
(186,189,o),
(186,217,cs),
(186,245,o),
(163,267,o),
(135,267,cs)
);
},
{
closed = 1;
nodes = (
(107,427,o),
(86,325,o),
(86,297,cs),
(86,269,o),
(107,247,o),
(135,247,cs),
(163,247,o),
(186,269,o),
(186,297,cs),
(186,325,o),
(163,427,o),
(135,427,cs)
);
},
{
closed = 1;
nodes = (
(109,427,o),
(86,405,o),
(86,377,cs),
(86,349,o),
(107,247,o),
(135,247,cs),
(163,247,o),
(186,349,o),
(186,377,cs),
(186,405,o),
(163,427,o),
(135,427,cs)
);
},
{
closed = 1;
nodes = (
(276,110,o),
(178,89,o),
(178,55,cs),
(178,24,o),
(276,0,o),
(307,0,cs),
(338,0,o),
(363,24,o),
(363,55,cs),
(363,86,o),
(338,110,o),
(307,110,cs)
);
},
{
closed = 1;
nodes = (
(161,108,o),
(150,97,o),
(150,83,c),
(150,69,o),
(161,58,o),
(175,58,c),
(189,58,o),
(200,69,o),
(200,83,c),
(200,97,o),
(189,108,o),
(175,108,c)
);
},
{
closed = 1;
nodes = (
(161,460,o),
(150,449,o),
(150,435,c),
(150,421,o),
(161,410,o),
(175,410,c),
(189,410,o),
(200,421,o),
(200,435,c),
(200,449,o),
(189,460,o),
(175,460,c)
);
},
{
closed = 1;
nodes = (
(478,206,o),
(467,195,o),
(467,181,c),
(467,167,o),
(478,156,o),
(492,156,c),
(506,156,o),
(517,167,o),
(517,181,c),
(517,195,o),
(506,206,o),
(492,206,c)
);
},
{
closed = 1;
nodes = (
(478,362,o),
(467,351,o),
(467,337,c),
(467,323,o),
(478,312,o),
(492,312,c),
(506,312,o),
(517,323,o),
(517,337,c),
(517,351,o),
(506,362,o),
(492,362,c)
);
},
{
closed = 1;
nodes = (
(201,520,o),
(178,496,o),
(178,465,cs),
(178,434,o),
(201,410,o),
(232,410,c),
(263,410,o),
(363,434,o),
(363,465,cs),
(363,496,o),
(263,520,o),
(232,520,cs)
);
},
{
closed = 1;
nodes = (
(201,110,o),
(178,89,o),
(178,55,cs),
(178,24,o),
(201,0,o),
(232,0,cs),
(263,0,o),
(363,24,o),
(363,55,cs),
(363,86,o),
(263,110,o),
(232,110,cs)
);
},
{
closed = 1;
nodes = (
(453,443,o),
(363,489,o),
(343,465,cs),
(323,442,o),
(383,360,o),
(406,340,cs),
(430,320,o),
(465,323,o),
(485,346,cs),
(505,370,o),
(501,405,o),
(477,424,cs)
);
},
{
closed = 1;
nodes = (
(396,493,o),
(363,489,o),
(343,465,cs),
(323,442,o),
(325,408,o),
(349,388,c),
(373,369,o),
(465,323,o),
(485,346,cs),
(505,370,o),
(443,453,o),
(420,473,cs)
);
},
{
closed = 1;
nodes = (
(501,115,o),
(505,150,o),
(485,174,cs),
(465,197,o),
(430,200,o),
(406,180,cs),
(383,160,o),
(323,78,o),
(343,55,cs),
(363,31,o),
(453,77,o),
(477,96,cs)
);
},
{
closed = 1;
nodes = (
(443,67,o),
(505,150,o),
(485,174,cs),
(465,197,o),
(373,152,o),
(349,132,c),
(325,112,o),
(323,78,o),
(343,55,cs),
(363,31,o),
(396,27,o),
(420,47,cs)
);
}
);
width = 700;
}
);
unicode = 103;
},
{
glyphname = h;
lastChange = "2020-12-10 17:58:46 +0000";
layers = (
{
layerId = "C8365536-00F6-4CBD-B31D-2172D190A829";
shapes = (
{
closed = 1;
nodes = (
(535,265,o),
(512,163,o),
(512,135,cs),
(512,107,o),
(535,85,o),
(563,85,cs),
(591,85,o),
(612,107,o),
(612,135,cs),
(612,163,o),
(591,265,o),
(563,265,cs)
);
},
{
closed = 1;
nodes = (
(535,265,o),
(512,243,o),
(512,215,cs),
(512,187,o),
(535,85,o),
(563,85,cs),
(591,85,o),
(612,187,o),
(612,215,cs),
(612,243,o),
(591,265,o),
(563,265,cs)
);
},
{
closed = 1;
nodes = (
(594,0,o),
(617,24,o),
(617,54,cs),
(617,85,o),
(591,266,o),
(563,266,cs),
(535,266,o),
(507,85,o),
(507,54,cs),
(507,24,o),
(532,0,o),
(563,0,cs)
);
},
{
closed = 1;
nodes = (
(109,269,o),
(83,86,o),
(83,55,cs),
(83,23,o),
(108,-1,o),
(139,-1,cs),
(171,-1,o),
(194,23,o),
(194,55,cs),
(194,86,o),
(172,269,o),
(140,269,cs)
);
},
{
closed = 1;
nodes = (
(109,679,o),
(84,655,o),
(84,624,cs),
(84,593,o),
(109,409,o),
(140,409,cs),
(171,409,o),
(194,593,o),
(194,624,cs),
(194,655,o),
(171,679,o),
(140,679,cs)
);
},
{
closed = 1;
nodes = (
(112,269,o),
(88,169,o),
(88,140,cs),
(88,112,o),
(111,90,o),
(139,90,cs),
(168,90,o),
(189,112,o),
(189,140,cs),
(189,169,o),
(169,269,o),
(140,269,cs)
);
},
{
closed = 1;
nodes = (
(112,586,o),
(89,487,o),
(89,459,cs),
(89,431,o),
(112,409,o),
(140,409,cs),
(168,409,o),
(189,431,o),
(189,459,cs),
(189,487,o),
(168,586,o),
(140,586,cs)
);
},
{
closed = 1;
nodes = (
(112,269,o),
(89,247,o),
(89,219,cs),
(89,191,o),
(111,90,o),
(139,90,cs),
(167,90,o),
(189,191,o),
(189,219,cs),
(189,247,o),
(168,269,o),
(140,269,cs)
);
},
{
closed = 1;
nodes = (
(360,519,o),
(335,495,o),
(335,464,cs),
(335,433,o),
(360,409,o),
(391,409,cs),
(422,409,o),
(520,433,o),
(520,464,cs),
(520,495,o),
(422,519,o),
(391,519,cs)
);
},
{
closed = 1;
nodes = (
(535,426,o),
(512,324,o),
(512,296,cs),
(512,268,o),
(535,246,o),
(563,246,cs),
(591,246,o),
(612,268,o),
(612,296,cs),
(612,324,o),
(591,426,o),
(563,426,cs)
);
},
{
closed = 1;
nodes = (
(535,426,o),
(512,404,o),
(512,376,cs),
(512,348,o),
(535,246,o),
(563,246,cs),
(591,246,o),
(612,348,o),
(612,376,cs),
(612,404,o),
(589,426,o),
(563,426,cs)
);
},
{
closed = 1;
nodes = (
(112,426,o),
(89,324,o),
(89,296,cs),
(89,268,o),
(112,246,o),
(140,246,cs),
(168,246,o),
(189,268,o),
(189,296,cs),
(189,324,o),
(168,426,o),
(140,426,cs)
);
},
{
closed = 1;
nodes = (
(112,426,o),
(89,404,o),
(89,376,cs),
(89,348,o),
(112,246,o),
(140,246,cs),
(168,246,o),
(189,348,o),
(189,376,cs),
(189,404,o),
(168,426,o),
(140,426,cs)
);
},
{
closed = 1;
nodes = (
(112,586,o),
(89,564,o),
(89,536,cs),
(89,508,o),
(112,409,o),
(140,409,cs),
(168,409,o),
(189,508,o),
(189,536,cs),
(189,564,o),
(166,586,o),
(140,586,cs)
);
},
{
closed = 1;
nodes = (
(509,459,o),
(498,448,o),
(498,434,c),
(498,420,o),
(509,409,o),
(523,409,c),
(537,409,o),
(548,420,o),
(548,434,c),
(548,448,o),
(537,459,o),
(523,459,c)
);
},
{
closed = 1;
nodes = (
(192,361,o),
(181,350,o),
(181,336,c),
(181,322,o),
(192,311,o),
(206,311,c),
(220,311,o),
(231,322,o),
(231,336,c),
(231,350,o),
(220,361,o),
(206,361,c)
);
},
{
closed = 1;
nodes = (
(435,519,o),
(335,495,o),
(335,464,cs),
(335,433,o),
(435,409,o),
(466,409,c),
(497,409,o),
(520,433,o),
(520,464,cs),
(520,495,o),
(497,519,o),
(466,519,cs)
);
},
{
closed = 1;
nodes = (
(197,404,o),
(193,369,o),
(213,345,cs),
(233,322,o),
(268,319,o),
(292,339,cs),
(315,359,o),
(375,441,o),
(355,464,cs),
(335,488,o),
(245,442,o),
(221,423,cs)
);
},
{
closed = 1;
nodes = (
(255,452,o),
(193,369,o),
(213,345,cs),
(233,322,o),
(325,367,o),
(349,387,c),
(373,407,o),
(375,441,o),
(355,464,cs),
(335,488,o),
(302,492,o),
(278,472,cs)
);
}
);
width = 700;
}
);
unicode = 104;
},
{
glyphname = i;
lastChange = "2020-12-10 15:22:48 +0000";
layers = (
{
guides = (
{
angle = 90;
pos = (399,110);
}
);
layerId = "C8365536-00F6-4CBD-B31D-2172D190A829";
shapes = (
{
closed = 1;
nodes = (
(385,576,o),
(413,604,o),
(413,638,cs),
(413,672,o),
(385,700,o),
(351,700,cs),
(317,700,o),
(289,672,o),
(289,638,cs),
(289,604,o),
(317,576,o),
(351,576,cs)
);
},
{
closed = 1;
nodes = (
(232,410,o),
(330,434,o),
(330,465,cs),
(330,496,o),
(232,520,o),
(201,520,cs),
(170,520,o),
(145,496,o),
(145,465,cs),
(145,434,o),
(170,410,o),
(201,410,cs)
);
},
{
closed = 1;
nodes = (
(307,410,o),
(330,434,o),
(330,465,cs),
(330,496,o),
(307,520,o),
(276,520,cs),
(245,520,o),
(145,496,o),
(145,465,cs),
(145,434,o),
(245,410,o),
(276,410,cs)
);
},
{
closed = 1;
nodes = (
(382,410,o),
(405,434,o),
(405,465,cs),
(405,496,o),
(382,520,o),
(351,520,cs),
(320,520,o),
(295,496,o),
(295,465,cs),
(295,434,o),
(320,410,o),
(351,410,cs)
);
},
{
closed = 1;
nodes = (
(195,0,o),
(293,24,o),
(293,55,cs),
(293,86,o),
(195,110,o),
(164,110,cs),
(133,110,o),
(108,86,o),
(108,55,cs),
(108,24,o),
(133,0,o),
(164,0,cs)
);
},
{
closed = 1;
nodes = (
(270,0,o),
(293,24,o),
(293,55,cs),
(293,86,o),
(270,110,o),
(239,110,cs),
(208,110,o),
(108,86,o),
(108,55,cs),
(108,24,o),
(208,0,o),
(239,0,cs)
);
},
{
closed = 1;
nodes = (
(345,0,o),
(443,24,o),
(443,55,cs),
(443,86,o),
(345,110,o),
(314,110,cs),
(283,110,o),
(258,86,o),
(258,55,cs),
(258,24,o),
(283,0,o),
(314,0,cs)
);
},
{
closed = 1;
nodes = (
(420,0,o),
(443,24,o),
(443,55,cs),
(443,86,o),
(420,110,o),
(389,110,cs),
(358,110,o),
(258,86,o),
(258,55,cs),
(258,24,o),
(358,0,o),
(389,0,cs)
);
},
{
closed = 1;
nodes = (
(495,0,o),
(593,24,o),
(593,55,cs),
(593,86,o),
(495,110,o),
(464,110,cs),
(433,110,o),
(408,86,o),
(408,55,cs),
(408,24,o),
(433,0,o),
(464,0,cs)
);
},
{
closed = 1;
nodes = (
(570,0,o),
(593,24,o),
(593,55,cs),
(593,86,o),
(570,110,o),
(539,110,cs),
(508,110,o),
(408,86,o),
(408,55,cs),
(408,24,o),
(508,0,o),
(539,0,cs)
);
},
{
closed = 1;
nodes = (
(379,250,o),
(400,352,o),
(400,380,cs),
(400,408,o),
(379,430,o),
(351,430,cs),
(323,430,o),
(300,408,o),
(300,380,cs),
(300,352,o),
(323,250,o),
(351,250,cs)
);
},
{
closed = 1;
nodes = (
(379,250,o),
(400,272,o),
(400,300,cs),
(400,328,o),
(379,430,o),
(351,430,cs),
(323,430,o),
(300,328,o),
(300,300,cs),
(300,272,o),
(323,250,o),
(351,250,cs)
);
},
{
closed = 1;
nodes = (
(379,90,o),
(400,192,o),
(400,220,cs),
(400,248,o),
(379,270,o),
(351,270,cs),
(323,270,o),
(300,248,o),
(300,220,cs),
(300,192,o),
(323,90,o),
(351,90,cs)
);
},
{
closed = 1;
nodes = (
(377,90,o),
(400,112,o),
(400,140,cs),
(400,168,o),
(379,270,o),
(351,270,cs),
(323,270,o),
(300,168,o),
(300,140,cs),
(300,112,o),
(323,90,o),
(351,90,cs)
);
}
);
width = 700;
}
);
unicode = 105;
},
{
glyphname = idotless;
lastChange = "2020-12-10 18:20:32 +0000";
layers = (
{
guides = (
{
angle = 90;
pos = (399,110);
}
);
layerId = "C8365536-00F6-4CBD-B31D-2172D190A829";
shapes = (
{
closed = 1;
nodes = (
(232,410,o),
(330,434,o),
(330,465,cs),
(330,496,o),
(232,520,o),
(201,520,cs),
(170,520,o),
(145,496,o),
(145,465,cs),
(145,434,o),
(170,410,o),
(201,410,cs)
);
},
{
closed = 1;
nodes = (
(307,410,o),
(330,434,o),
(330,465,cs),
(330,496,o),
(307,520,o),
(276,520,cs),
(245,520,o),
(145,496,o),
(145,465,cs),
(145,434,o),
(245,410,o),
(276,410,cs)
);
},
{
closed = 1;
nodes = (
(382,410,o),
(405,434,o),
(405,465,cs),
(405,496,o),
(382,520,o),
(351,520,cs),
(320,520,o),
(295,496,o),
(295,465,cs),
(295,434,o),
(320,410,o),
(351,410,cs)
);
},
{
closed = 1;
nodes = (
(195,0,o),
(293,24,o),
(293,55,cs),
(293,86,o),
(195,110,o),
(164,110,cs),
(133,110,o),
(108,86,o),
(108,55,cs),
(108,24,o),
(133,0,o),
(164,0,cs)
);
},
{
closed = 1;
nodes = (
(270,0,o),
(293,24,o),
(293,55,cs),
(293,86,o),
(270,110,o),
(239,110,cs),
(208,110,o),
(108,86,o),
(108,55,cs),
(108,24,o),
(208,0,o),
(239,0,cs)
);
},
{
closed = 1;
nodes = (
(345,0,o),
(443,24,o),
(443,55,cs),
(443,86,o),
(345,110,o),
(314,110,cs),
(283,110,o),
(258,86,o),
(258,55,cs),
(258,24,o),
(283,0,o),
(314,0,cs)
);
},
{
closed = 1;
nodes = (
(420,0,o),
(443,24,o),
(443,55,cs),
(443,86,o),
(420,110,o),
(389,110,cs),
(358,110,o),
(258,86,o),
(258,55,cs),
(258,24,o),
(358,0,o),
(389,0,cs)
);
},
{
closed = 1;
nodes = (
(495,0,o),
(593,24,o),
(593,55,cs),
(593,86,o),
(495,110,o),
(464,110,cs),
(433,110,o),
(408,86,o),
(408,55,cs),
(408,24,o),
(433,0,o),
(464,0,cs)
);
},
{
closed = 1;
nodes = (
(570,0,o),
(593,24,o),
(593,55,cs),
(593,86,o),
(570,110,o),
(539,110,cs),
(508,110,o),
(408,86,o),
(408,55,cs),
(408,24,o),
(508,0,o),
(539,0,cs)
);
},
{
closed = 1;
nodes = (
(379,250,o),
(400,352,o),
(400,380,cs),
(400,408,o),
(379,430,o),
(351,430,cs),
(323,430,o),
(300,408,o),
(300,380,cs),
(300,352,o),
(323,250,o),
(351,250,cs)
);
},
{
closed = 1;
nodes = (
(379,250,o),
(400,272,o),
(400,300,cs),
(400,328,o),
(379,430,o),
(351,430,cs),
(323,430,o),
(300,328,o),
(300,300,cs),
(300,272,o),
(323,250,o),
(351,250,cs)
);
},
{
closed = 1;
nodes = (
(379,90,o),
(400,192,o),
(400,220,cs),
(400,248,o),
(379,270,o),
(351,270,cs),
(323,270,o),
(300,248,o),
(300,220,cs),
(300,192,o),
(323,90,o),
(351,90,cs)
);
},
{
closed = 1;
nodes = (
(377,90,o),
(400,112,o),
(400,140,cs),
(400,168,o),
(379,270,o),
(351,270,cs),
(323,270,o),
(300,168,o),
(300,140,cs),
(300,112,o),
(323,90,o),
(351,90,cs)
);
}
);
width = 700;
}
);
unicode = 305;
},
{
color = 3;
glyphname = iogonek;
lastChange = "2023-06-12 14:05:46 +0000";
layers = (
{
layerId = "C8365536-00F6-4CBD-B31D-2172D190A829";
shapes = (
{
closed = 1;
nodes = (
(385,576,o),
(413,604,o),
(413,638,cs),
(413,672,o),
(385,700,o),
(351,700,cs),
(317,700,o),
(289,672,o),
(289,638,cs),
(289,604,o),
(317,576,o),
(351,576,cs)
);
},
{
ref = idotless;
},
{
ref = ogonek;
}
);
width = 700;
}
);
unicode = 303;
},
{
glyphname = j;
lastChange = "2020-12-10 18:03:03 +0000";
layers = (
{
guides = (
{
angle = 90;
pos = (400,140);
}
);
layerId = "C8365536-00F6-4CBD-B31D-2172D190A829";
shapes = (
{
closed = 1;
nodes = (
(434,576,o),
(462,604,o),
(462,638,cs),
(462,672,o),
(434,700,o),
(400,700,cs),
(366,700,o),
(338,672,o),
(338,638,cs),
(338,604,o),
(366,576,o),
(400,576,cs)
);
},
{
closed = 1;
nodes = (
(281,410,o),
(379,434,o),
(379,465,cs),
(379,496,o),
(281,520,o),
(250,520,cs),
(219,520,o),
(194,496,o),
(194,465,cs),
(194,434,o),
(219,410,o),
(250,410,cs)
);
},
{
closed = 1;
nodes = (
(356,410,o),
(379,434,o),
(379,465,cs),
(379,496,o),
(356,520,o),
(325,520,cs),
(294,520,o),
(194,496,o),
(194,465,cs),
(194,434,o),
(294,410,o),
(325,410,cs)
);
},
{
closed = 1;
nodes = (
(431,410,o),
(454,434,o),
(454,465,cs),
(454,496,o),
(431,520,o),
(400,520,cs),
(369,520,o),
(344,496,o),
(344,465,cs),
(344,434,o),
(369,410,o),
(400,410,cs)
);
},
{
closed = 1;
nodes = (
(206,-181,o),
(229,-157,o),
(229,-126,cs),
(229,-95,o),
(206,-71,o),
(175,-71,cs),
(144,-71,o),
(119,-95,o),
(119,-126,cs),
(119,-157,o),
(144,-181,o),
(175,-181,cs)
);
},
{
closed = 1;
nodes = (
(281,-240,o),
(379,-216,o),
(379,-185,cs),
(379,-154,o),
(281,-130,o),
(250,-130,cs),
(219,-130,o),
(194,-154,o),
(194,-185,cs),
(194,-216,o),
(219,-240,o),
(250,-240,cs)
);
},
{
closed = 1;
nodes = (
(356,-240,o),
(379,-216,o),
(379,-185,cs),
(379,-154,o),
(356,-130,o),
(325,-130,cs),
(294,-130,o),
(194,-154,o),
(194,-185,cs),
(194,-216,o),
(294,-240,o),
(325,-240,cs)
);
},
{
closed = 1;
nodes = (
(431,-240,o),
(454,-216,o),
(454,-185,cs),
(454,-154,o),
(431,-50,o),
(400,-50,cs),
(369,-50,o),
(344,-154,o),
(344,-185,cs),
(344,-216,o),
(369,-240,o),
(400,-240,cs)
);
},
{
closed = 1;
nodes = (
(428,250,o),
(449,352,o),
(449,380,cs),
(449,408,o),
(428,430,o),
(400,430,cs),
(372,430,o),
(349,408,o),
(349,380,cs),
(349,352,o),
(372,250,o),
(400,250,cs)
);
},
{
closed = 1;
nodes = (
(428,250,o),
(449,272,o),
(449,300,cs),
(449,328,o),
(428,430,o),
(400,430,cs),
(372,430,o),
(349,328,o),
(349,300,cs),
(349,272,o),
(372,250,o),
(400,250,cs)
);
},
{
closed = 1;
nodes = (
(428,90,o),
(449,192,o),
(449,220,cs),
(449,248,o),
(428,270,o),
(400,270,cs),
(372,270,o),
(349,248,o),
(349,220,cs),
(349,192,o),
(372,90,o),
(400,90,cs)
);
},
{
closed = 1;
nodes = (
(426,90,o),
(449,112,o),
(449,140,cs),
(449,168,o),
(428,270,o),
(400,270,cs),
(372,270,o),
(349,168,o),
(349,140,cs),
(349,112,o),
(372,90,o),
(400,90,cs)
);
},
{
closed = 1;
nodes = (
(426,-70,o),
(449,32,o),
(449,60,cs),
(449,88,o),
(428,110,o),
(400,110,cs),
(372,110,o),
(349,88,o),
(349,60,cs),
(349,32,o),
(372,-70,o),
(400,-70,cs)
);
},
{
closed = 1;
nodes = (
(426,-240,o),
(449,-128,o),
(449,-100,cs),
(449,-72,o),
(428,-50,o),
(400,-50,cs),
(372,-50,o),
(349,-72,o),
(349,-100,cs),
(349,-128,o),
(372,-240,o),
(400,-240,cs)
);
},
{
closed = 1;
nodes = (
(426,-70,o),
(449,-48,o),
(449,-20,cs),
(449,8,o),
(428,110,o),
(400,110,cs),
(372,110,o),
(349,8,o),
(349,-20,cs),
(349,-48,o),
(372,-70,o),
(400,-70,cs)
);
}
);
width = 700;
}
);
unicode = 106;
},
{
glyphname = k;
lastChange = "2020-12-10 18:03:12 +0000";
layers = (
{
layerId = "C8365536-00F6-4CBD-B31D-2172D190A829";
shapes = (
{
closed = 1;
nodes = (
(192,410,o),
(215,594,o),
(215,625,cs),
(215,656,o),
(192,680,o),
(161,680,cs),
(130,680,o),
(105,656,o),
(105,625,cs),
(105,594,o),
(130,410,o),
(161,410,cs)
);
},
{
closed = 1;
nodes = (
(192,0,o),
(215,24,o),
(215,55,cs),
(215,86,o),
(192,270,o),
(161,270,cs),
(130,270,o),
(105,86,o),
(105,55,cs),
(105,24,o),
(130,0,o),
(161,0,cs)
);
},
{
closed = 1;
nodes = (
(189,410,o),
(210,512,o),
(210,540,cs),
(210,568,o),
(189,590,o),
(161,590,cs),
(133,590,o),
(110,568,o),
(110,540,cs),
(110,512,o),
(133,410,o),
(161,410,cs)
);
},
{
closed = 1;
nodes = (
(189,250,o),
(210,272,o),
(210,300,cs),
(210,328,o),
(189,430,o),
(161,430,cs),
(133,430,o),
(110,328,o),
(110,300,cs),
(110,272,o),
(133,250,o),
(161,250,cs)
);
},
{
closed = 1;
nodes = (
(189,90,o),
(210,192,o),
(210,220,cs),
(210,248,o),
(189,270,o),
(161,270,cs),
(133,270,o),
(110,248,o),
(110,220,cs),
(110,192,o),
(133,90,o),
(161,90,cs)
);
},
{
closed = 1;
nodes = (
(187,90,o),
(210,112,o),
(210,140,cs),
(210,168,o),
(189,270,o),
(161,270,cs),
(133,270,o),
(110,168,o),
(110,140,cs),
(110,112,o),
(133,90,o),
(161,90,cs)
);
},
{
closed = 1;
nodes = (
(189,250,o),
(210,352,o),
(210,380,cs),
(210,408,o),
(189,430,o),
(161,430,cs),
(133,430,o),
(110,408,o),
(110,380,cs),
(110,352,o),
(133,250,o),
(161,250,cs)
);
},
{
closed = 1;
nodes = (
(189,410,o),
(210,432,o),
(210,460,cs),
(210,488,o),
(189,590,o),
(161,590,cs),
(133,590,o),
(110,488,o),
(110,460,cs),
(110,432,o),
(133,410,o),
(161,410,cs)
);
},
{
closed = 1;
nodes = (
(536,410,o),
(562,435,o),
(562,465,cs),
(562,495,o),
(536,520,o),
(506,520,cs),
(476,520,o),
(452,495,o),
(452,465,cs),
(452,435,o),
(476,410,o),
(506,410,cs)
);
},
{
closed = 1;
nodes = (
(520,166,o),
(505,268,o),
(495,295,cs),
(485,321,o),
(458,335,o),
(432,325,cs),
(405,315,o),
(391,287,o),
(401,261,cs),
(411,234,o),
(467,146,o),
(494,156,cs)
);
},
{
closed = 1;
nodes = (
(518,165,o),
(532,193,o),
(522,219,cs),
(512,246,o),
(458,335,o),
(432,325,cs),
(405,315,o),
(418,212,o),
(428,185,cs),
(438,159,o),
(467,146,o),
(494,156,cs)
);
},
{
closed = 1;
nodes = (
(577,12,o),
(562,115,o),
(552,142,cs),
(542,168,o),
(515,182,o),
(489,172,cs),
(462,162,o),
(448,134,o),
(458,108,cs),
(468,81,o),
(524,-6,o),
(551,3,cs)
);
},
{
closed = 1;
nodes = (
(575,11,o),
(589,40,o),
(579,66,cs),
(569,93,o),
(515,182,o),
(489,172,cs),
(462,162,o),
(476,59,o),
(485,32,cs),
(494,6,o),
(524,-6,o),
(551,3,cs)
);
},
{
closed = 1;
nodes = (
(383,359,o),
(301,297,o),
(282,275,cs),
(264,255,o),
(268,223,o),
(289,204,cs),
(310,185,o),
(342,190,o),
(359,211,cs),
(377,234,o),
(427,325,o),
(405,342,cs)
);
},
{
closed = 1;
nodes = (
(383,360,o),
(351,358,o),
(333,337,c),
(315,315,o),
(268,223,o),
(289,204,cs),
(310,185,o),
(392,252,o),
(410,273,cs),
(428,295,o),
(425,326,o),
(405,342,cs)
);
},
{
closed = 1;
nodes = (
(489,483,o),
(407,421,o),
(388,399,c),
(371,378,o),
(374,347,o),
(395,328,cs),
(416,309,o),
(448,314,o),
(465,335,cs),
(483,358,o),
(533,449,o),
(511,466,cs)
);
},
{
closed = 1;
nodes = (
(489,484,o),
(457,483,o),
(439,461,cs),
(421,440,o),
(374,347,o),
(395,328,cs),
(416,309,o),
(498,376,o),
(516,397,cs),
(534,419,o),
(531,450,o),
(511,466,cs)
);
},
{
closed = 1;
nodes = (
(271,191,o),
(369,215,o),
(369,246,cs),
(369,277,o),
(271,301,o),
(240,301,cs),
(209,301,o),
(184,277,o),
(184,246,cs),
(184,215,o),
(209,191,o),
(240,191,cs)
);
},
{
closed = 1;
nodes = (
(346,191,o),
(369,215,o),
(369,246,cs),
(369,277,o),
(346,301,o),
(315,301,cs),
(284,301,o),
(184,277,o),
(184,246,cs),
(184,215,o),
(284,191,o),
(315,191,cs)
);
}
);
width = 700;
}
);
unicode = 107;
},
{
glyphname = l;
lastChange = "2020-12-10 18:03:19 +0000";
layers = (
{
guides = (
{
angle = 90;
pos = (300,300);
}
);
layerId = "C8365536-00F6-4CBD-B31D-2172D190A829";
shapes = (
{
closed = 1;
nodes = (
(239,570,o),
(337,594,o),
(337,625,cs),
(337,656,o),
(239,680,o),
(208,680,cs),
(177,680,o),
(152,656,o),
(152,625,cs),
(152,594,o),
(177,570,o),
(208,570,cs)
);
},
{
closed = 1;
nodes = (
(314,570,o),
(337,594,o),
(337,625,cs),
(337,656,o),
(314,680,o),
(283,680,cs),
(252,680,o),
(152,656,o),
(152,625,cs),
(152,594,o),
(252,570,o),
(283,570,cs)
);
},
{
closed = 1;
nodes = (
(389,570,o),
(412,594,o),
(412,625,cs),
(412,656,o),
(389,680,o),
(358,680,cs),
(327,680,o),
(302,656,o),
(302,625,cs),
(302,594,o),
(327,570,o),
(358,570,cs)
);
},
{
closed = 1;
nodes = (
(195,0,o),
(293,24,o),
(293,55,cs),
(293,86,o),
(195,110,o),
(164,110,cs),
(133,110,o),
(108,86,o),
(108,55,cs),
(108,24,o),
(133,0,o),
(164,0,cs)
);
},
{
closed = 1;
nodes = (
(270,0,o),
(293,24,o),
(293,55,cs),
(293,86,o),
(270,110,o),
(239,110,cs),
(208,110,o),
(108,86,o),
(108,55,cs),
(108,24,o),
(208,0,o),
(239,0,cs)
);
},
{
closed = 1;
nodes = (
(345,0,o),
(443,24,o),
(443,55,cs),
(443,86,o),
(345,110,o),
(314,110,cs),
(283,110,o),
(258,86,o),
(258,55,cs),
(258,24,o),
(283,0,o),
(314,0,cs)
);
},
{
closed = 1;
nodes = (
(420,0,o),
(443,24,o),
(443,55,cs),
(443,86,o),
(420,110,o),
(389,110,cs),
(358,110,o),
(258,86,o),
(258,55,cs),
(258,24,o),
(358,0,o),
(389,0,cs)
);
},
{
closed = 1;
nodes = (
(495,0,o),
(593,24,o),
(593,55,cs),
(593,86,o),
(495,110,o),
(464,110,cs),
(433,110,o),
(408,86,o),
(408,55,c),
(408,24,o),
(433,0,o),
(464,0,cs)
);
},
{
closed = 1;
nodes = (
(570,0,o),
(593,24,o),
(593,55,cs),
(593,86,o),
(570,110,o),
(539,110,cs),
(508,110,o),
(408,86,o),
(408,55,cs),
(408,24,o),
(508,0,o),
(539,0,cs)
);
},
{
closed = 1;
nodes = (
(386,410,o),
(407,512,o),
(407,540,cs),
(407,568,o),
(386,590,o),
(358,590,cs),
(330,590,o),
(307,568,o),
(307,540,cs),
(307,512,o),
(330,410,o),
(358,410,cs)
);
},
{
closed = 1;
nodes = (
(386,250,o),
(407,272,o),
(407,300,c),
(407,328,o),
(386,430,o),
(358,430,cs),
(330,430,o),
(307,328,o),
(307,300,cs),
(307,272,o),
(330,250,o),
(358,250,cs)
);
},
{
closed = 1;
nodes = (
(386,90,o),
(407,192,o),
(407,220,cs),
(407,248,o),
(386,270,o),
(358,270,cs),
(330,270,o),
(307,248,o),
(307,220,cs),
(307,192,o),
(330,90,o),
(358,90,cs)
);
},
{
closed = 1;
nodes = (
(384,90,o),
(407,112,o),
(407,140,cs),
(407,168,o),
(386,270,o),
(358,270,cs),
(330,270,o),
(307,168,o),
(307,140,cs),
(307,112,o),
(330,90,o),
(358,90,cs)
);
},
{
closed = 1;
nodes = (
(386,250,o),
(407,352,o),
(407,380,cs),
(407,408,o),
(386,430,o),
(358,430,cs),
(330,430,o),
(307,408,o),
(307,380,cs),
(307,352,o),
(330,250,o),
(358,250,cs)
);
},
{
closed = 1;
nodes = (
(386,410,o),
(407,432,o),
(407,460,cs),
(407,488,o),
(386,590,o),
(358,590,cs),
(330,590,o),
(307,488,o),
(307,460,c),
(307,432,o),
(330,410,o),
(358,410,cs)
);
}
);
width = 700;
}
);
unicode = 108;
},
